<svg width="160" height="98" viewBox="0 0 160 98" fill="none" xmlns="http://www.w3.org/2000/svg">
<g clip-path="url(#clip0_3_356)">
<path d="M32.7199 96.1C20.8199 96.1 9.46991 89.17 4.37991 77.57C-2.48009 61.92 4.64991 43.67 20.2999 36.81C35.9499 29.95 54.1999 37.07 61.0599 52.73C64.3799 60.32 64.5799 68.28 62.0099 75.39C61.6699 76.34 61.2699 77.29 60.8299 78.22" stroke="#00557F" stroke-width="3.54" stroke-linecap="round" stroke-linejoin="round"/>
<path d="M83.5801 13.49C92.0801 9.83999 101.64 12.05 107.3 18.32" stroke="#00557F" stroke-width="3.54" stroke-linecap="round" stroke-linejoin="round"/>
<path d="M57.29 23.15C65.79 19.49 75.44 21.9 81.22 28.43" stroke="#00557F" stroke-width="3.54" stroke-linecap="round" stroke-linejoin="round"/>
<path d="M106.83 44.17C107.93 48.83 107.05 53.39 104.57 57.2C104.23 57.71 103.87 58.22 103.48 58.7" stroke="#00557F" stroke-width="3.54" stroke-linecap="round" stroke-linejoin="round"/>
<path d="M128.5 32.49C129.6 37.15 128.72 41.71 126.24 45.52C125.9 46.03 125.54 46.54 125.15 47.02" stroke="#00557F" stroke-width="3.54" stroke-linecap="round" stroke-linejoin="round"/>
<path d="M81.8202 57.12C82.9202 61.78 82.0402 66.34 79.5602 70.15C79.2202 70.66 78.8602 71.17 78.4702 71.65" stroke="#00557F" stroke-width="3.54" stroke-linecap="round" stroke-linejoin="round"/>
<path d="M24.9101 84.61C19.9901 82.64 15.8201 78.8 13.5201 73.56C8.87005 62.95 13.7001 50.58 24.3101 45.93C28.2901 44.19 32.5101 43.77 36.4901 44.51C43.1101 45.72 49.0301 50.1 51.9401 56.72C53.6801 60.7 54.1001 64.92 53.3601 68.9" stroke="#0071A8" stroke-width="4.42" stroke-linecap="round" stroke-linejoin="round"/>
<path d="M23.0599 69.38C21.8499 66.61 21.9199 63.6 23.0099 61.03C24.0299 58.63 25.9199 56.61 28.4899 55.49C31.0599 54.37 34.0499 54.34 36.5699 55.32" stroke="#0071A8" stroke-width="4.42" stroke-linecap="round" stroke-linejoin="round"/>
<path d="M42.65 68.72C41.7 71.35 39.72 73.61 36.96 74.82" stroke="#0071A8" stroke-width="4.42" stroke-linecap="round" stroke-linejoin="round"/>
<path d="M157.6 43.56V51.94L83.5202 96.1H32.7202" stroke="#00557F" stroke-width="3.54" stroke-linecap="round" stroke-linejoin="round"/>
<path d="M132.42 43.56H157.6L83.5201 86.12H32.5601" stroke="#0071A8" stroke-width="4.42" stroke-linecap="round" stroke-linejoin="round"/>
<path d="M129.45 44.96L67.7402 77.71" stroke="#00557F" stroke-width="3.54" stroke-linecap="round" stroke-linejoin="round"/>
<path d="M20.2998 36.8L111.21 3.33997" stroke="#00557F" stroke-width="3.54" stroke-linecap="round" stroke-linejoin="round"/>
<path d="M111.21 3.33999C123.34 -1.12001 136.41 4.22999 141.13 15.02C145.86 25.82 140.94 39.06 129.45 44.95" stroke="#00557F" stroke-width="3.54" stroke-linecap="round" stroke-linejoin="round"/>
<path d="M32.7202 68.71C34.6863 68.71 36.2802 67.1162 36.2802 65.15C36.2802 63.1839 34.6863 61.59 32.7202 61.59C30.754 61.59 29.1602 63.1839 29.1602 65.15C29.1602 67.1162 30.754 68.71 32.7202 68.71Z" fill="#0071A8"/>
</g>
<defs>
<clipPath id="clip0_3_356">
<rect width="159.81" height="97.86" fill="white"/>
</clipPath>
</defs>
</svg>
