<svg width="147" height="153" viewBox="0 0 147 153" fill="none" xmlns="http://www.w3.org/2000/svg">
<g clip-path="url(#clip0_3_150)">
<path d="M52.71 20.81H93.93" stroke="#00557F" stroke-width="3.54" stroke-linecap="round" stroke-linejoin="round"/>
<path d="M52.71 119.9H93.93" stroke="#00557F" stroke-width="3.54" stroke-linecap="round" stroke-linejoin="round"/>
<path d="M52.71 31.42H93.93" stroke="#00557F" stroke-width="3.54" stroke-linecap="round" stroke-linejoin="round"/>
<path d="M52.71 111H93.93" stroke="#00557F" stroke-width="3.54" stroke-linecap="round" stroke-linejoin="round"/>
<path d="M73.3198 31.42V111" stroke="#00557F" stroke-width="3.54" stroke-linecap="round" stroke-linejoin="round"/>
<path d="M52.71 72.43H93.93" stroke="#00557F" stroke-width="3.54" stroke-linecap="round" stroke-linejoin="round"/>
<path d="M52.7101 149.97C48.8201 149.97 46.8101 148.03 45.1901 146.46C43.7801 145.09 42.8401 144.19 40.7401 144.19C38.6401 144.19 37.7101 145.09 36.2901 146.46C34.6701 148.02 32.6601 149.97 28.7701 149.97C24.8801 149.97 22.8701 148.03 21.2501 146.46C19.8401 145.09 18.9001 144.19 16.8001 144.19C14.7001 144.19 13.7601 145.09 12.3501 146.46C10.7301 148.02 8.72012 149.97 4.83012 149.97C3.61012 149.97 2.62012 148.98 2.62012 147.76V14.2799C2.62012 13.0599 3.61012 12.0699 4.83012 12.0699H52.7101C53.9301 12.0699 54.9201 13.0599 54.9201 14.2799V147.76C54.9201 148.98 53.9301 149.97 52.7101 149.97Z" fill="#FCD1AC"/>
<path d="M52.7102 14.28V147.76C46.7302 147.76 46.7302 141.98 40.7402 141.98C34.7502 141.98 34.7602 147.76 28.7702 147.76C22.7802 147.76 22.7902 141.98 16.7902 141.98C10.7902 141.98 10.8102 147.76 4.81016 147.76V14.28H52.6902M52.7102 9.85997H4.83016C2.39016 9.85997 0.410156 11.84 0.410156 14.28V147.76C0.410156 150.2 2.39016 152.18 4.83016 152.18C9.61016 152.18 12.1802 149.7 13.8902 148.05C15.2402 146.74 15.6502 146.4 16.8102 146.4C17.9702 146.4 18.3702 146.74 19.7302 148.05C21.4402 149.69 24.0102 152.18 28.7902 152.18C33.5702 152.18 36.1402 149.7 37.8402 148.04C39.1902 146.73 39.6002 146.39 40.7602 146.39C41.9202 146.39 42.3202 146.73 43.6802 148.04C45.3902 149.68 47.9602 152.17 52.7402 152.17C55.1802 152.17 57.1602 150.19 57.1602 147.75V14.27C57.1602 11.83 55.1802 9.84998 52.7402 9.84998L52.7102 9.85997Z" fill="#0078D3"/>
<path d="M37.9502 31.42V101.2" stroke="#0078D3" stroke-width="4.42" stroke-linecap="round" stroke-linejoin="round"/>
<path d="M19.9902 26.52V57.54" stroke="#0078D3" stroke-width="4.42" stroke-linecap="round" stroke-linejoin="round"/>
<path d="M19.9902 90.9999V122.01" stroke="#0078D3" stroke-width="4.42" stroke-linecap="round" stroke-linejoin="round"/>
<path d="M141.81 149.97C137.92 149.97 135.91 148.03 134.29 146.46C132.88 145.09 131.94 144.19 129.84 144.19C127.74 144.19 126.81 145.09 125.39 146.46C123.77 148.02 121.76 149.97 117.87 149.97C113.98 149.97 111.97 148.03 110.35 146.46C108.94 145.09 108 144.19 105.9 144.19C103.8 144.19 102.86 145.09 101.45 146.46C99.8297 148.02 97.8197 149.97 93.9297 149.97C92.7097 149.97 91.7197 148.98 91.7197 147.76V14.2799C91.7197 13.0599 92.7097 12.0699 93.9297 12.0699H141.81C143.03 12.0699 144.02 13.0599 144.02 14.2799V147.76C144.02 148.98 143.03 149.97 141.81 149.97Z" fill="#FCD1AC"/>
<path d="M141.81 14.28V147.76C135.83 147.76 135.83 141.98 129.84 141.98C123.85 141.98 123.86 147.76 117.87 147.76C111.88 147.76 111.89 141.98 105.89 141.98C99.8898 141.98 99.9098 147.76 93.9098 147.76V14.28H141.79M141.81 9.85997H93.9298C91.4898 9.85997 89.5098 11.84 89.5098 14.28V147.76C89.5098 150.2 91.4898 152.18 93.9298 152.18C98.7098 152.18 101.28 149.7 102.99 148.05C104.34 146.74 104.75 146.4 105.91 146.4C107.07 146.4 107.47 146.74 108.83 148.05C110.54 149.69 113.11 152.18 117.89 152.18C122.67 152.18 125.24 149.7 126.94 148.04C128.29 146.73 128.7 146.39 129.86 146.39C131.02 146.39 131.42 146.73 132.78 148.04C134.49 149.68 137.06 152.17 141.84 152.17C144.28 152.17 146.26 150.19 146.26 147.75V14.27C146.26 11.83 144.28 9.84998 141.84 9.84998L141.81 9.85997Z" fill="#0078D3"/>
<path d="M127.05 31.42V69.78" stroke="#0078D3" stroke-width="4.42" stroke-linecap="round" stroke-linejoin="round"/>
<path d="M127.05 90.9999V122.01" stroke="#0078D3" stroke-width="4.42" stroke-linecap="round" stroke-linejoin="round"/>
<path d="M109.09 26.52V86.51" stroke="#0078D3" stroke-width="4.42" stroke-linecap="round" stroke-linejoin="round"/>
<path d="M109.09 113.45V126.35" stroke="#0078D3" stroke-width="4.42" stroke-linecap="round" stroke-linejoin="round"/>
<path d="M144.87 1.77002H1.77002V12.07H144.87V1.77002Z" stroke="#00557F" stroke-width="3.54" stroke-linecap="round" stroke-linejoin="round"/>
</g>
<defs>
<clipPath id="clip0_3_150">
<rect width="146.64" height="152.18" fill="white"/>
</clipPath>
</defs>
</svg>
