<svg width="151" height="151" viewBox="0 0 151 151" fill="none" xmlns="http://www.w3.org/2000/svg">
<g clip-path="url(#clip0_3_202)">
<path d="M75.1699 94.45C85.8124 94.45 94.4399 85.8225 94.4399 75.18C94.4399 64.5374 85.8124 55.91 75.1699 55.91C64.5274 55.91 55.8999 64.5374 55.8999 75.18C55.8999 85.8225 64.5274 94.45 75.1699 94.45Z" stroke="#00557F" stroke-width="3.54" stroke-miterlimit="8.84"/>
<path d="M57.0399 85.67C32.5899 105.89 11.4199 109.74 3.24986 110.45C1.87986 110.57 1.26986 112.23 2.22986 113.21L19.6099 130.85C20.9399 132.19 22.9999 132.47 24.6299 131.51C32.3799 126.97 50.4499 116.41 68.1399 93.8" stroke="#00557F" stroke-width="3.54" stroke-linecap="round" stroke-linejoin="round"/>
<path d="M93.31 64.69C117.76 44.47 138.93 40.62 147.1 39.91C148.47 39.79 149.08 38.13 148.12 37.15L130.74 19.51C129.41 18.17 127.35 17.89 125.72 18.85C117.97 23.39 99.9 33.95 82.21 56.56" stroke="#00557F" stroke-width="3.54" stroke-linecap="round" stroke-linejoin="round"/>
<path d="M64.6798 57.04C44.4598 32.59 40.6198 11.42 39.8998 3.24998C39.7798 1.87998 38.1198 1.26998 37.1398 2.22998L19.4998 19.61C18.1598 20.94 17.8798 23 18.8398 24.63C23.3798 32.38 33.9298 50.45 56.5498 68.14" stroke="#00557F" stroke-width="3.54" stroke-linecap="round" stroke-linejoin="round"/>
<path d="M85.6699 93.32C105.89 117.77 109.74 138.94 110.45 147.11C110.57 148.48 112.23 149.09 113.21 148.13L130.85 130.75C132.19 129.42 132.47 127.36 131.51 125.73C126.97 117.98 116.42 99.91 93.7999 82.22" stroke="#00557F" stroke-width="3.54" stroke-linecap="round" stroke-linejoin="round"/>
<path d="M86.9399 127.73C90.3499 126.96 93.6699 125.87 96.8299 124.48C99.9899 123.09 103.02 121.4 105.84 119.43C108.66 117.46 111.32 115.23 113.73 112.77C116.14 110.3 118.33 107.58 120.24 104.66C122.16 101.74 123.8 98.6 125.13 95.27C126.46 91.95 127.48 88.45 128.14 84.79" stroke="#FCD1AC" stroke-width="9.72" stroke-miterlimit="8.84"/>
<path d="M22.6201 86.95C23.3901 90.36 24.4801 93.68 25.8701 96.84C27.2701 100 28.9501 103.03 30.9201 105.85C32.8901 108.67 35.1201 111.33 37.5801 113.74C40.0501 116.15 42.7701 118.34 45.6901 120.25C48.6201 122.17 51.7501 123.81 55.0801 125.14C58.4001 126.47 61.9001 127.49 65.5601 128.15" stroke="#FCD1AC" stroke-width="9.72" stroke-miterlimit="8.84"/>
<path d="M63.41 22.63C60 23.4 56.68 24.49 53.52 25.88C50.36 27.27 47.33 28.96 44.51 30.93C41.69 32.9 39.03 35.13 36.62 37.59C34.21 40.06 32.02 42.78 30.11 45.7C28.19 48.62 26.55 51.76 25.22 55.09C23.89 58.42 22.87 61.91 22.21 65.57" stroke="#FCD1AC" stroke-width="9.72" stroke-miterlimit="8.84"/>
<path d="M127.73 63.42C126.96 60.01 125.87 56.69 124.48 53.53C123.08 50.37 121.4 47.34 119.43 44.52C117.46 41.7 115.23 39.04 112.77 36.63C110.3 34.22 107.58 32.03 104.66 30.12C101.73 28.2 98.6 26.56 95.27 25.23C91.94 23.9 88.45 22.88 84.79 22.22" stroke="#FCD1AC" stroke-width="9.72" stroke-miterlimit="8.84"/>
<path d="M55.23 133.18L65.56 128.16L60.55 117.82" stroke="#FCD1AC" stroke-width="9.72" stroke-miterlimit="8.84"/>
<path d="M95.13 17.19L84.79 22.2L89.8 32.54" stroke="#FCD1AC" stroke-width="9.72" stroke-miterlimit="8.84"/>
<path d="M17.1802 55.23L22.2002 65.57L32.5302 60.55" stroke="#FCD1AC" stroke-width="9.72" stroke-miterlimit="8.84"/>
<path d="M133.17 95.13L128.15 84.8L117.82 89.81" stroke="#FCD1AC" stroke-width="9.72" stroke-miterlimit="8.84"/>
<path d="M86.9399 127.73C90.3499 126.96 93.6699 125.87 96.8299 124.48C99.9899 123.09 103.02 121.4 105.84 119.43C108.66 117.46 111.32 115.23 113.73 112.77C116.14 110.3 118.33 107.58 120.24 104.66C122.16 101.74 123.8 98.6 125.13 95.27C126.46 91.95 127.48 88.45 128.14 84.79" stroke="#0078D3" stroke-width="4.42" stroke-linecap="round" stroke-linejoin="round"/>
<path d="M22.6201 86.95C23.3901 90.36 24.4801 93.68 25.8701 96.84C27.2701 100 28.9501 103.03 30.9201 105.85C32.8901 108.67 35.1201 111.33 37.5801 113.74C40.0501 116.15 42.7701 118.34 45.6901 120.25C48.6201 122.17 51.7501 123.81 55.0801 125.14C58.4001 126.47 61.9001 127.49 65.5601 128.15" stroke="#0078D3" stroke-width="4.42" stroke-linecap="round" stroke-linejoin="round"/>
<path d="M63.41 22.63C60 23.4 56.68 24.49 53.52 25.88C50.36 27.27 47.33 28.96 44.51 30.93C41.69 32.9 39.03 35.13 36.62 37.59C34.21 40.06 32.02 42.78 30.11 45.7C28.19 48.62 26.55 51.76 25.22 55.09C23.89 58.42 22.87 61.91 22.21 65.57" stroke="#0078D3" stroke-width="4.42" stroke-linecap="round" stroke-linejoin="round"/>
<path d="M127.73 63.42C126.96 60.01 125.87 56.69 124.48 53.53C123.08 50.37 121.4 47.34 119.43 44.52C117.46 41.7 115.23 39.04 112.77 36.63C110.3 34.22 107.58 32.03 104.66 30.12C101.73 28.2 98.6 26.56 95.27 25.23C91.94 23.9 88.45 22.88 84.79 22.22" stroke="#0078D3" stroke-width="4.42" stroke-linecap="round" stroke-linejoin="round"/>
<path d="M55.23 133.18L65.56 128.16L60.55 117.82" stroke="#0078D3" stroke-width="4.42" stroke-linecap="round" stroke-linejoin="round"/>
<path d="M95.13 17.19L84.79 22.2L89.8 32.54" stroke="#0078D3" stroke-width="4.42" stroke-linecap="round" stroke-linejoin="round"/>
<path d="M17.1802 55.23L22.2002 65.57L32.5302 60.55" stroke="#0078D3" stroke-width="4.42" stroke-linecap="round" stroke-linejoin="round"/>
<path d="M133.17 95.13L128.15 84.8L117.82 89.81" stroke="#0078D3" stroke-width="4.42" stroke-linecap="round" stroke-linejoin="round"/>
</g>
<defs>
<clipPath id="clip0_3_202">
<rect width="150.35" height="150.36" fill="white"/>
</clipPath>
</defs>
</svg>
