<svg width="162" height="148" viewBox="0 0 162 148" fill="none" xmlns="http://www.w3.org/2000/svg">
<path d="M144.396 24.7739C145.608 24.774 146.59 25.7563 146.59 26.9679V128.371C146.59 129.583 145.608 130.565 144.396 130.565H17.5953C16.3836 130.565 15.4014 129.583 15.4014 128.371V26.9679C15.4014 25.7562 16.3836 24.7739 17.5953 24.7739H144.396ZM19.7892 126.178H142.202V29.1618H19.7892V126.178Z" fill="#0071A8"/>
<path d="M153.189 126.178C154.401 126.178 155.383 127.16 155.383 128.372V144.888C155.383 146.099 154.401 147.082 153.189 147.082H8.81943C7.60784 147.082 6.62563 146.099 6.62549 144.888V128.372C6.62549 127.16 7.60775 126.178 8.81943 126.178H153.189ZM11.0134 142.694H150.995V130.566H11.0134V142.694Z" fill="#00557F"/>
<path d="M151.487 16.516C152.699 16.516 153.681 17.4983 153.681 18.7099V26.968C153.681 28.1797 152.699 29.162 151.487 29.162H10.5226C9.31092 29.162 8.32869 28.1797 8.32861 26.968V18.7099C8.32861 17.4983 9.31087 16.516 10.5226 16.516H151.487ZM12.7165 24.7741H149.293V20.9039H12.7165V24.7741Z" fill="#00557F"/>
<path d="M159.806 0C161.018 0 162 0.982259 162 2.19394V18.7102C162 19.9217 161.018 20.9041 159.806 20.9041H2.19394C0.982351 20.9041 0.000148343 19.9217 0 18.7102V2.19394C0 0.982259 0.982259 0 2.19394 0H159.806ZM4.38787 16.5162H157.612V4.38787H4.38787V16.5162Z" fill="#00557F"/>
<path d="M32.4352 63.8172C33.6468 63.8173 34.6292 64.7995 34.6292 66.0111C34.6292 67.2228 33.6468 68.205 32.4352 68.2051H17.5953C16.3836 68.2051 15.4014 67.2228 15.4014 66.0111C15.4014 64.7995 16.3836 63.8172 17.5953 63.8172H32.4352Z" fill="#0071A8"/>
<path d="M41.4391 91.7768C42.6507 91.777 43.6331 92.7592 43.6331 93.9707C43.6331 95.1823 42.6507 96.1645 41.4391 96.1647H24.8526C23.641 96.1647 22.6587 95.1824 22.6587 93.9707C22.6587 92.7591 23.641 91.7768 24.8526 91.7768H41.4391Z" fill="#0071A8"/>
<path d="M137.147 77.7971C138.359 77.7971 139.341 78.7793 139.341 79.991C139.341 81.2027 138.359 82.1849 137.147 82.1849H120.57C119.358 82.1849 118.376 81.2027 118.376 79.991C118.376 78.7793 119.358 77.7971 120.57 77.7971H137.147Z" fill="#0071A8"/>
<path d="M144.405 105.765C145.616 105.765 146.599 106.748 146.599 107.959C146.599 109.171 145.616 110.153 144.405 110.153H130.873C129.661 110.153 128.679 109.171 128.679 107.959C128.679 106.748 129.661 105.765 130.873 105.765H144.405Z" fill="#0071A8"/>
<path d="M46.0729 35.8489C47.2844 35.8491 48.2669 36.8313 48.2669 38.0429C48.2669 39.2544 47.2844 40.2366 46.0729 40.2368H29.4864C28.2747 40.2368 27.2925 39.2546 27.2925 38.0429C27.2925 36.8312 28.2747 35.8489 29.4864 35.8489H46.0729Z" fill="#0071A8"/>
<path d="M46.0729 35.8489C47.2844 35.8491 48.2669 36.8313 48.2669 38.0429C48.2669 39.2544 47.2844 40.2366 46.0729 40.2368H29.4864C28.2747 40.2368 27.2925 39.2546 27.2925 38.0429C27.2925 36.8312 28.2747 35.8489 29.4864 35.8489H46.0729Z" fill="#0071A8"/>
<path d="M144.405 35.8489C145.617 35.8489 146.599 36.8312 146.599 38.0429C146.599 39.2546 145.617 40.2368 144.405 40.2368H98.9908C97.7791 40.2368 96.7969 39.2546 96.7969 38.0429C96.7969 36.8312 97.7791 35.8489 98.9908 35.8489H144.405Z" fill="#0071A8"/>
<path d="M87.547 48.0911C88.7586 48.0911 89.7409 49.0734 89.7409 50.2851C89.7409 51.4967 88.7586 52.479 87.547 52.479H54.3834C53.1717 52.479 52.1895 51.4967 52.1895 50.2851C52.1895 49.0734 53.1717 48.0911 54.3834 48.0911H87.547Z" fill="#0071A8"/>
<path d="M118.376 122.009V71.6893C118.376 67.9145 115.12 64.6774 110.943 64.6773H51.0658C46.889 64.6774 43.633 67.9146 43.633 71.6893V122.009C43.633 123.221 42.6507 124.203 41.4391 124.203C40.2274 124.203 39.2452 123.221 39.2451 122.009V71.6893C39.2451 65.3019 44.6593 60.2896 51.0658 60.2894H110.943C117.35 60.2895 122.764 65.3019 122.764 71.6893V122.009C122.764 123.221 121.782 124.203 120.57 124.203C119.358 124.203 118.376 123.221 118.376 122.009Z" fill="#00557F"/>
<path d="M103.212 101.755C103.212 101.755 103.185 101.737 103.168 101.737L74.2868 84.0892L65.6865 98.1655L94.5675 115.805C94.5675 115.805 94.5938 115.814 94.6026 115.822C95.7347 116.516 98.5693 113.927 100.939 110.039C103.308 106.151 104.317 102.448 103.185 101.764L103.212 101.755Z" fill="#FCD1AC"/>
<path d="M73.978 82.8097C74.3173 82.7279 74.6752 82.7838 74.973 82.9657L103.759 100.556C103.773 100.563 103.782 100.567 103.785 100.569C103.827 100.59 103.861 100.609 103.884 100.623C103.896 100.631 103.907 100.637 103.917 100.643C103.921 100.646 103.926 100.649 103.93 100.652C103.932 100.653 103.935 100.655 103.936 100.656C103.937 100.657 103.938 100.657 103.939 100.658L103.941 100.659L103.942 100.659L104.018 100.714C104.092 100.772 104.16 100.837 104.219 100.908C104.774 101.435 104.93 102.177 104.96 102.727C104.998 103.429 104.867 104.231 104.645 105.046C104.197 106.693 103.293 108.706 102.063 110.724C100.832 112.743 99.4564 114.469 98.1945 115.621C97.5703 116.191 96.9161 116.674 96.2731 116.961C95.6838 117.223 94.786 117.453 93.954 116.967C93.9298 116.954 93.9046 116.942 93.8812 116.928L65 99.2891C64.7022 99.1072 64.489 98.8142 64.407 98.475C64.325 98.1356 64.3809 97.7771 64.563 97.4791L73.163 83.4028L73.2367 83.2957C73.4194 83.054 73.681 82.8815 73.978 82.8097ZM94.0637 117.021C94.0862 117.03 94.1046 117.037 94.1168 117.042C94.1235 117.044 94.1301 117.046 94.1357 117.048C94.1384 117.049 94.1408 117.051 94.1434 117.051C94.1447 117.052 94.1464 117.052 94.1477 117.052L94.1494 117.053H94.1503L94.1511 117.054C94.1136 117.042 94.0776 117.025 94.0414 117.009C94.0505 117.014 94.0578 117.018 94.0637 117.021ZM93.8075 116.87C93.8341 116.89 93.8589 116.906 93.8803 116.92C93.8556 116.904 93.831 116.888 93.8075 116.87ZM93.6721 116.753C93.7084 116.79 93.7447 116.821 93.7783 116.847C93.7414 116.818 93.7056 116.787 93.6721 116.753ZM67.4965 97.7277L95.1075 114.593C95.1329 114.583 95.1642 114.572 95.201 114.556C95.4818 114.431 95.8967 114.153 96.4188 113.677C97.4495 112.736 98.6754 111.222 99.8142 109.354C100.953 107.485 101.739 105.702 102.105 104.355C102.29 103.673 102.347 103.177 102.33 102.871C102.328 102.826 102.324 102.79 102.32 102.762L74.7228 85.8992L67.4965 97.7277ZM103.031 103.046L103.168 103.054C103.113 103.054 103.059 103.049 103.005 103.042C103.014 103.043 103.022 103.045 103.031 103.046ZM102.867 103.015C102.895 103.022 102.928 103.03 102.964 103.036C102.931 103.031 102.899 103.023 102.867 103.015ZM102.766 102.989C102.768 102.99 102.77 102.99 102.773 102.991C102.766 102.989 102.761 102.986 102.755 102.984C102.758 102.985 102.762 102.988 102.766 102.989Z" fill="#0071A8"/>
<path d="M71.937 92.3137C74.3095 88.4299 75.3175 84.7224 74.1883 84.0326C73.0592 83.3428 70.2205 85.932 67.848 89.8158C65.4755 93.6995 64.4676 97.4071 65.5967 98.0968C66.7259 98.7866 69.5645 96.1974 71.937 92.3137Z" fill="#FCD1AC"/>
<path d="M66.7245 89.1298C67.9567 87.1128 69.3348 85.3885 70.5973 84.2368C71.2219 83.6672 71.8759 83.1845 72.5182 82.8976C73.1144 82.6312 74.0319 82.3942 74.875 82.9093C75.7179 83.4244 75.9254 84.3485 75.9606 85.0005C75.9984 85.7029 75.8676 86.5051 75.6458 87.3208C75.1975 88.9699 74.2924 90.9831 73.0602 93.0001C71.828 95.0172 70.4499 96.7415 69.1874 97.8931C68.5629 98.4627 67.9091 98.9447 67.267 99.2317C66.708 99.4815 65.867 99.7057 65.0692 99.3081L64.9109 99.2204L64.7598 99.1191C64.0419 98.5908 63.8575 97.7402 63.8246 97.1288C63.7868 96.4265 63.9172 95.6247 64.1389 94.8091C64.5872 93.1601 65.4924 91.1469 66.7245 89.1298ZM68.9712 90.5023C67.831 92.3688 67.0462 94.1516 66.6797 95.4996C66.5455 95.9934 66.4775 96.3898 66.4568 96.6881C66.7128 96.5336 67.035 96.2927 67.4132 95.9477C68.4453 95.0063 69.6733 93.4942 70.8135 91.6277C71.9538 89.7611 72.739 87.9777 73.1055 86.6297C73.2395 86.1365 73.306 85.7403 73.3267 85.4422C73.071 85.5967 72.7493 85.8373 72.3719 86.1815C71.3398 87.123 70.1115 88.6357 68.9712 90.5023Z" fill="#0071A8"/>
<path d="M60.7283 99.3942C60.7283 99.3942 60.7634 99.3942 60.781 99.3942L94.6202 99.3854V115.875H60.781C60.781 115.875 60.7458 115.875 60.7283 115.875C59.4032 115.875 58.3325 112.189 58.3325 107.635C58.3325 103.089 59.4032 99.3942 60.7283 99.3942Z" fill="#FCD1AC"/>
<path d="M94.6199 98.069C94.969 98.0689 95.3036 98.2078 95.5506 98.4547C95.7975 98.7016 95.9362 99.0362 95.9362 99.3854V115.875C95.9362 116.602 95.3469 117.191 94.6199 117.191H60.7287C59.7413 117.191 59.0812 116.513 58.7104 115.974C58.3116 115.395 58.0053 114.642 57.7694 113.83C57.2926 112.19 57.0161 110 57.0161 107.635C57.0161 105.274 57.2927 103.084 57.7694 101.442C58.0052 100.63 58.3111 99.8772 58.7096 99.2971C59.0796 98.7584 59.7399 98.0776 60.7287 98.0776L94.6199 98.069ZM59.6488 107.635C59.6489 109.824 59.9079 111.755 60.2976 113.096C60.4949 113.775 60.705 114.228 60.8795 114.482C60.9009 114.513 60.9199 114.538 60.9361 114.559H93.3035V100.702L60.9369 100.709C60.9206 100.73 60.9012 100.756 60.8795 100.787C60.7046 101.042 60.495 101.497 60.2976 102.177C59.9078 103.519 59.6488 105.45 59.6488 107.635Z" fill="#0071A8"/>
<path d="M94.7346 115.866C96.0578 115.866 97.1304 112.177 97.1304 107.626C97.1304 103.075 96.0578 99.3854 94.7346 99.3854C93.4115 99.3854 92.3389 103.075 92.3389 107.626C92.3389 112.177 93.4115 115.866 94.7346 115.866Z" fill="#FCD1AC"/>
<path d="M95.814 107.626C95.814 105.438 95.5544 103.508 95.1644 102.166C95.0215 101.675 94.872 101.301 94.7342 101.036C94.5963 101.301 94.4477 101.675 94.3048 102.166C93.9148 103.508 93.6552 105.438 93.6552 107.626C93.6552 109.813 93.9148 111.744 94.3048 113.086C94.4474 113.576 94.5965 113.949 94.7342 114.214C94.8719 113.949 95.0217 113.576 95.1644 113.086C95.5544 111.744 95.814 109.813 95.814 107.626ZM98.4467 107.626C98.4467 109.989 98.1696 112.179 97.6925 113.82C97.4565 114.632 97.15 115.384 96.7516 115.964C96.3817 116.502 95.7228 117.183 94.735 117.183C93.747 117.183 93.0876 116.502 92.7176 115.964C92.3191 115.384 92.0126 114.632 91.7766 113.82C91.2996 112.179 91.0225 109.989 91.0225 107.626C91.0225 105.262 91.2996 103.072 91.7766 101.431C92.0126 100.62 92.3192 99.8673 92.7176 99.2877C93.0876 98.7495 93.7469 98.069 94.735 98.069L94.9158 98.0767C95.8039 98.1534 96.4047 98.7831 96.7516 99.2877C97.1499 99.8673 97.4566 100.62 97.6925 101.431C98.1696 103.072 98.4467 105.262 98.4467 107.626Z" fill="#0071A8"/>
</svg>
