<svg width="163" height="148" viewBox="0 0 163 148" fill="none" xmlns="http://www.w3.org/2000/svg">
<g clip-path="url(#clip0_3_322)">
<path d="M144.98 26.72H17.2798V128.84H144.98V26.72Z" stroke="#0071A8" stroke-width="4.42" stroke-linecap="round" stroke-linejoin="round"/>
<path d="M153.83 128.83H8.43994V145.46H153.83V128.83Z" stroke="#00557F" stroke-width="3.54" stroke-linecap="round" stroke-linejoin="round"/>
<path d="M152.11 18.4H10.1499V26.72H152.11V18.4Z" stroke="#00557F" stroke-width="3.54" stroke-linecap="round" stroke-linejoin="round"/>
<path d="M160.5 1.77002H1.77002V18.4H160.5V1.77002Z" stroke="#00557F" stroke-width="3.54" stroke-linecap="round" stroke-linejoin="round"/>
<path d="M32.2198 66.03H17.2798" stroke="#0071A8" stroke-width="4.42" stroke-linecap="round" stroke-linejoin="round"/>
<path d="M41.2898 94.1899H24.5898" stroke="#0071A8" stroke-width="4.42" stroke-linecap="round" stroke-linejoin="round"/>
<path d="M137.68 80.11H120.98" stroke="#0071A8" stroke-width="4.42" stroke-linecap="round" stroke-linejoin="round"/>
<path d="M144.98 108.27H131.36" stroke="#0071A8" stroke-width="4.42" stroke-linecap="round" stroke-linejoin="round"/>
<path d="M45.96 37.87H29.25" stroke="#0071A8" stroke-width="4.42" stroke-linecap="round" stroke-linejoin="round"/>
<path d="M45.96 37.87H29.25" stroke="#0071A8" stroke-width="4.42" stroke-linecap="round" stroke-linejoin="round"/>
<path d="M144.98 37.87H99.25" stroke="#0071A8" stroke-width="4.42" stroke-linecap="round" stroke-linejoin="round"/>
<path d="M54.3301 50.19H87.7201" stroke="#0071A8" stroke-width="4.42" stroke-linecap="round" stroke-linejoin="round"/>
<path d="M65.8498 116.52C65.8498 116.52 55.1798 109.86 60.7898 101.43C66.3998 93 64.9998 90.11 63.6898 83.37C73.2898 84.96 69.5698 91.93 74.7798 92.24C79.9898 92.55 79.7698 77.93 75.8498 72.98C82.1398 74.56 88.9498 81.12 88.6598 91.04C88.4398 98.99 96.4798 94.9 96.4798 87.42C100.87 88.82 110.76 109.87 94.2098 116.51" stroke="#0071A8" stroke-width="4.42" stroke-linecap="round" stroke-linejoin="round"/>
<path d="M120.98 122.43V71.75C120.98 66.63 116.61 62.48 111.28 62.48H50.99C45.66 62.48 41.29 66.63 41.29 71.75V122.43" stroke="#00557F" stroke-width="3.54" stroke-linecap="round" stroke-linejoin="round"/>
</g>
<defs>
<clipPath id="clip0_3_322">
<rect width="162.26" height="147.23" fill="white"/>
</clipPath>
</defs>
</svg>
