<svg width="192" height="107" viewBox="0 0 192 107" fill="none" xmlns="http://www.w3.org/2000/svg">
<path fill-rule="evenodd" clip-rule="evenodd" d="M113.45 47.71H105.71V81.71H113.86V70.45C114.65 71.18 116.71 73.23 120.57 73.23C126.14 73.23 130.66 68.75 130.66 60.03C130.66 55.55 129.42 52.59 128 50.77C126.33 48.64 123.7 47.13 120.51 47.13C116.52 47.13 114.24 49.22 113.45 49.97V47.72V47.71ZM122.54 59.98C122.59 61.24 122.59 63.93 121.35 65.72C121 66.18 120.11 67.39 118.13 67.39C114.75 67.39 113.81 63.93 113.81 60.38C113.81 56.83 114.75 53.22 118.13 53.22C122.33 53.22 122.48 58.53 122.53 59.97L122.54 59.98ZM84.6902 47.71H76.9502V81.71H85.1001V70.45C85.8901 71.18 87.9501 73.23 91.8101 73.23C97.3801 73.23 101.9 68.75 101.9 60.03C101.9 55.55 100.69 52.59 99.24 50.77C97.57 48.64 94.96 47.13 91.75 47.13C87.76 47.13 85.4802 49.22 84.6902 49.97V47.72V47.71ZM93.77 59.98C93.82 61.24 93.8201 63.93 92.5801 65.72C92.2301 66.18 91.3401 67.39 89.3701 67.39C85.9801 67.39 85.04 63.93 85.04 60.38C85.04 56.83 85.9801 53.22 89.3701 53.22C93.5701 53.22 93.72 58.53 93.77 59.97V59.98ZM134.68 37.29V72.74H142.85V32.59L134.68 37.29Z" fill="white"/>
<path fill-rule="evenodd" clip-rule="evenodd" d="M164.33 80.73L160.31 77.29C161.32 76.41 162.28 75.4399 163.16 74.45L166.6 78.44C165.87 79.25 165.11 80.01 164.32 80.72L164.33 80.73ZM170.32 85.86L166.15 82.29C166.83 81.64 167.49 80.96 168.15 80.27L171.71 84.44C171.26 84.92 170.8 85.4 170.32 85.85V85.86ZM175.89 90.62L172.73 87.93C173.11 87.58 173.44 87.22 173.79 86.87L176.49 90.01L175.88 90.62H175.89ZM164.13 70.05L159.55 67.85L162.13 63.42L166.3 66.28C165.66 67.6 164.94 68.86 164.13 70.04V70.05ZM170.65 73.16L165.9 70.88C166.63 69.77 167.31 68.6 167.92 67.39L172.27 70.38C171.77 71.34 171.24 72.28 170.65 73.16ZM177.78 76.57L172.82 74.19C173.3 73.38 173.78 72.57 174.23 71.73L178.76 74.84C178.46 75.42 178.12 76.01 177.77 76.56L177.78 76.57ZM184.39 79.74L180.64 77.95C180.9 77.52 181.14 77.09 181.4 76.66L184.81 79.01C184.66 79.24 184.53 79.49 184.38 79.74H184.39ZM167.72 62.89L162.74 61.98L164.06 57.02L168.84 58.72C168.57 60.13 168.19 61.56 167.73 62.89H167.72ZM174.83 64.24L169.64 63.25C170.05 61.99 170.4 60.7 170.67 59.35L175.65 61.12C175.42 62.18 175.15 63.2 174.82 64.23L174.83 64.24ZM182.59 65.68L177.17 64.66C177.44 63.75 177.67 62.84 177.9 61.9L183.09 63.75C182.94 64.39 182.76 65.04 182.59 65.68ZM189.78 67.01L185.71 66.25C185.86 65.77 185.99 65.29 186.12 64.81L190.02 66.18C189.94 66.45 189.87 66.74 189.79 67.01H189.78ZM169.32 55.07L164.26 55.45V50.34L169.32 50.72C169.37 51.45 169.4 52.16 169.4 52.89C169.4 53.62 169.37 54.33 169.32 55.06V55.07ZM176.53 54.49L171.26 54.92C171.29 54.24 171.31 53.58 171.31 52.9C171.31 52.22 171.28 51.56 171.26 50.88L176.53 51.29C176.56 51.85 176.56 52.38 176.56 52.91C176.56 53.44 176.56 53.97 176.53 54.5V54.49ZM184.39 53.89L178.9 54.32C178.93 53.84 178.93 53.38 178.93 52.91C178.93 52.44 178.93 51.95 178.9 51.5L184.39 51.93V53.9V53.89ZM191.7 53.33L187.55 53.63V52.14L191.7 52.47V53.33ZM168.83 47.08L164.05 48.78L162.73 43.82L167.71 42.91C168.16 44.25 168.54 45.67 168.82 47.08H168.83ZM175.66 44.68L170.68 46.45C170.41 45.11 170.04 43.82 169.65 42.55L174.84 41.56C175.17 42.57 175.45 43.61 175.67 44.67L175.66 44.68ZM183.1 42.05L177.91 43.87C177.68 42.96 177.45 42.05 177.18 41.14L182.6 40.12C182.78 40.76 182.95 41.38 183.1 42.05ZM190.01 39.62L186.11 40.98C185.99 40.5 185.85 40.02 185.7 39.54L189.77 38.78C189.84 39.05 189.92 39.34 190 39.61L190.01 39.62ZM166.3 39.49L162.13 42.37L159.55 37.92L164.13 35.75C164.94 36.94 165.68 38.21 166.3 39.5V39.49ZM172.27 35.42L167.92 38.41C167.31 37.2 166.63 36.03 165.9 34.92L170.65 32.64C171.23 33.52 171.76 34.46 172.27 35.42ZM178.77 30.94L174.24 34.05C173.78 33.22 173.3 32.41 172.83 31.59L177.79 29.21C178.14 29.77 178.47 30.35 178.78 30.93L178.77 30.94ZM184.82 26.79L181.41 29.14C181.15 28.71 180.91 28.28 180.65 27.85L184.4 26.06C184.55 26.32 184.67 26.56 184.83 26.79H184.82ZM161.9 32.84L158.61 36.68L154.97 33.07L158.81 29.78C159.92 30.72 160.93 31.75 161.89 32.84H161.9ZM166.6 27.35L163.16 31.34C162.28 30.32 161.31 29.39 160.31 28.5L164.33 25.06C165.12 25.77 165.87 26.53 166.61 27.34L166.6 27.35ZM171.71 21.33L168.15 25.53C167.5 24.82 166.83 24.16 166.15 23.51L170.32 19.94C170.8 20.4 171.26 20.88 171.71 21.33ZM176.5 15.76L173.8 18.92C173.45 18.57 173.12 18.21 172.74 17.86L175.9 15.18C176.1 15.38 176.31 15.56 176.51 15.76H176.5ZM155.9 27.53L153.73 32.11L149.3 29.56L152.16 25.36C153.48 26.01 154.71 26.72 155.91 27.53H155.9ZM159.04 20.99L156.76 25.77C155.62 25.01 154.46 24.36 153.27 23.75L156.26 19.38C157.2 19.88 158.13 20.41 159.04 21V20.99ZM162.43 13.86L160.05 18.84C159.26 18.34 158.43 17.85 157.59 17.43L160.7 12.9C161.28 13.23 161.87 13.55 162.42 13.86H162.43ZM165.6 7.28998L163.81 11.04C163.4 10.78 162.98 10.54 162.52 10.31L164.87 6.87C165.13 7.02 165.37 7.16999 165.6 7.29999V7.28998ZM148.77 23.95L147.83 28.93L142.87 27.59L144.57 22.84C146.01 23.1 147.4 23.48 148.77 23.95ZM150.09 16.82L149.13 22.03C147.87 21.6 146.55 21.24 145.23 21L146.98 16.02C148.04 16.25 149.07 16.52 150.09 16.83V16.82ZM151.53 9.10999L150.52 14.5C149.64 14.23 148.73 13.97 147.79 13.77L149.61 8.57996C150.26 8.75996 150.9 8.90999 151.54 9.10999H151.53ZM152.87 1.89996L152.11 5.96997C151.62 5.84997 151.15 5.70997 150.67 5.58997L152.06 1.66998C152.33 1.74998 152.59 1.81996 152.87 1.89996ZM118.69 29.78L122.56 33.07L118.92 36.68L115.63 32.84C116.59 31.75 117.6 30.71 118.7 29.78H118.69ZM113.2 25.07L117.22 28.51C116.21 29.39 115.25 30.33 114.37 31.35L110.93 27.36C111.66 26.55 112.42 25.8 113.21 25.08L113.2 25.07ZM107.2 19.93L111.37 23.5C110.69 24.15 110 24.82 109.37 25.52L105.78 21.32C106.26 20.86 106.72 20.38 107.19 19.93H107.2ZM101.66 15.18L104.77 17.86C104.42 18.21 104.06 18.57 103.74 18.92L101.06 15.76C101.26 15.56 101.47 15.38 101.67 15.18H101.66ZM125.37 25.35L128.22 29.55L123.79 32.1L121.62 27.52C122.81 26.71 124.05 26 125.37 25.35ZM121.27 19.38L124.26 23.75C123.07 24.36 121.88 25.01 120.77 25.77L118.49 20.99C119.4 20.41 120.31 19.88 121.27 19.37V19.38ZM116.79 12.9L119.93 17.43C119.09 17.86 118.26 18.34 117.45 18.84L115.1 13.86C115.66 13.56 116.24 13.22 116.8 12.9H116.79ZM112.67 6.84998L114.99 10.29C114.56 10.52 114.13 10.77 113.7 11.02L111.93 7.26996C112.16 7.14996 112.41 6.99997 112.66 6.83997L112.67 6.84998ZM132.96 22.84L134.63 27.59L129.7 28.93L128.76 23.95C130.13 23.47 131.52 23.09 132.96 22.84ZM130.53 16.02L132.3 21C130.96 21.26 129.67 21.61 128.4 22.03L127.44 16.82C128.45 16.52 129.49 16.24 130.52 16.01L130.53 16.02ZM127.9 8.57996L129.75 13.77C128.81 13.97 127.9 14.23 127.02 14.5L126 9.10999C126.64 8.90999 127.26 8.75996 127.9 8.57996ZM125.47 1.66998L126.86 5.58997C126.38 5.70997 125.9 5.84997 125.42 5.96997L124.66 1.89996C124.92 1.81996 125.19 1.74998 125.47 1.66998ZM140.93 22.36L141.34 27.4H136.21L136.62 22.36C137.33 22.31 138.06 22.28 138.77 22.28C139.48 22.28 140.24 22.31 140.94 22.36H140.93ZM140.37 15.15L140.78 20.41C140.13 20.36 139.44 20.33 138.76 20.33C138.08 20.33 137.42 20.36 136.76 20.41L137.17 15.15C137.7 15.12 138.23 15.1 138.76 15.1C139.29 15.1 139.85 15.13 140.38 15.15H140.37ZM139.76 7.28998L140.19 12.78C139.71 12.78 139.23 12.75 138.75 12.75C138.27 12.75 137.81 12.78 137.34 12.78L137.77 7.28998H139.77H139.76ZM139.18 0L139.51 4.13H138.02L138.35 0H139.19H139.18ZM158.82 76.02L154.98 72.73L158.62 69.12L161.91 72.96C160.95 74.05 159.94 75.08 158.83 76.02H158.82Z" fill="white"/>
<path fill-rule="evenodd" clip-rule="evenodd" d="M0 105.77H2.2002V102.4H5.32007C6.47007 102.4 7.55003 102.35 8.28003 101.46C8.61003 101.07 8.89014 100.49 8.89014 99.63C8.89014 98.95 8.71015 98.33 8.40015 97.88C7.69015 96.87 6.46002 96.83 5.52002 96.83H0.0100098V105.76L0 105.77ZM2.2002 98.4H4.71997C5.65997 98.4 5.98004 98.4 6.29004 98.66C6.50004 98.86 6.67017 99.16 6.67017 99.64C6.67017 100.82 5.67996 100.83 4.95996 100.83H2.2002V98.39V98.4ZM9.46997 105.77H11.6702V102.4H14.8C15.95 102.4 17.03 102.35 17.76 101.46C18.09 101.07 18.3701 100.49 18.3701 99.63C18.3701 98.95 18.1901 98.33 17.8801 97.88C17.1701 96.87 15.94 96.83 15 96.83H9.48999V105.76L9.46997 105.77ZM11.6702 98.4H14.1902C15.1302 98.4 15.45 98.4 15.75 98.66C15.96 98.86 16.1301 99.16 16.1301 99.64C16.1301 100.82 15.1402 100.83 14.4202 100.83H11.6602V98.39L11.6702 98.4ZM19.4502 105.77H26.6401V104.13H21.6802V96.85H19.4402V105.78L19.4502 105.77ZM32.21 105.77H40.78V104.18H34.4402V102.04H40.3301V100.46H34.4402V98.45H40.52V96.84H32.1902V105.77H32.21ZM41.8601 105.77H43.9402V96.84H41.8601V105.77ZM53.73 102.92C53.73 102.26 53.7001 101.24 52.8501 100.34C51.8801 99.3 50.39 99.11 49.53 99.11C47.25 99.11 45.24 100.15 45.24 102.5C45.24 103.41 45.5902 104.44 46.4402 105.12C47.2902 105.82 48.41 106.02 49.5 106.02C51.29 106.02 52.87 105.38 53.8 103.84L51.6301 103.63C51.4401 103.87 50.9501 104.51 49.6001 104.51C48.9201 104.51 48.21 104.31 47.76 103.78C47.53 103.52 47.4201 103.12 47.3701 102.92H53.72H53.73ZM47.4302 101.77C47.5502 101.47 47.69 101.19 48.05 100.95C48.43 100.69 48.99 100.58 49.48 100.58C50.04 100.58 50.5401 100.73 50.8501 100.91C51.2801 101.17 51.3802 101.53 51.4202 101.77H47.4302ZM60.5601 103.49C60.4701 103.66 60.38 103.85 59.98 104.1C59.6 104.33 59.1001 104.44 58.6501 104.44C57.1701 104.44 56.5601 103.38 56.5601 102.54C56.5601 101.46 57.4602 100.67 58.6702 100.67C59.7702 100.67 60.2001 101.17 60.3801 101.4L62.55 101.15C62.37 100.8 62.14 100.36 61.52 99.91C60.67 99.32 59.5502 99.1 58.6702 99.1C56.8802 99.1 54.4502 99.98 54.4502 102.56C54.4502 104.84 56.4501 106.04 58.5801 106.04C59.9101 106.04 61.8102 105.52 62.6902 103.79L60.5701 103.5L60.5601 103.49ZM63.51 99.37H62.48V100.61H63.51V104.04C63.51 104.52 63.51 105.21 64.27 105.6C64.62 105.78 65.07 105.83 65.51 105.83C66.01 105.83 66.52 105.78 67.03 105.72V104.23C66.82 104.26 66.6901 104.27 66.3901 104.27C65.8001 104.27 65.5801 104.13 65.5801 103.51V100.61H67.01V99.37H65.5801V97.66H63.5V99.37H63.51ZM70.01 99.37H67.9102V105.78H70.01V102.7C70.01 102.14 70.11 101.65 70.75 101.31C71.24 101.05 71.9601 101.03 72.1401 101.03C72.3501 101.03 72.5102 101.05 72.6902 101.06V99.18C70.8302 99.22 70.31 100.02 70.01 100.5V99.4V99.37ZM73.54 97.14V98.55H75.6201V97.14H73.54ZM73.54 99.37V105.78H75.6201V99.37H73.54ZM83.03 103.49C82.94 103.66 82.8502 103.85 82.4502 104.1C82.0702 104.33 81.5701 104.44 81.1201 104.44C79.6401 104.44 79.03 103.38 79.03 102.54C79.03 101.46 79.9301 100.67 81.1401 100.67C82.2401 100.67 82.6701 101.17 82.8501 101.4L85.02 101.15C84.84 100.8 84.61 100.36 83.99 99.91C83.14 99.32 82.0201 99.1 81.1401 99.1C79.3501 99.1 76.9202 99.98 76.9202 102.56C76.9202 104.84 78.9201 106.04 81.05 106.04C82.3801 106.04 84.2802 105.52 85.1602 103.79L83.03 103.5V103.49ZM90.4202 102.02C90.4202 103.08 90.4201 104.26 91.8301 105.21C92.3901 105.57 92.9401 105.76 93.3801 105.86C94.0001 106.01 94.63 106.08 95.26 106.08C96.61 106.08 98.34 105.74 99.25 104.71C100.01 103.88 100.01 102.98 100.02 102.03V96.84H97.79V102.11C97.82 103 97.6202 103.29 97.4102 103.55C97.0602 103.96 96.5102 104.19 95.6602 104.26C95.0102 104.29 94.3601 104.31 93.6401 103.97C92.7901 103.56 92.6301 102.89 92.6301 102.1V96.85H90.4001V102.04L90.4202 102.02ZM101.81 99.37H100.78V100.61H101.81V104.04C101.81 104.52 101.83 105.21 102.57 105.6C102.92 105.78 103.37 105.83 103.81 105.83C104.31 105.83 104.82 105.78 105.33 105.72V104.23C105.12 104.26 104.99 104.27 104.69 104.27C104.1 104.27 103.88 104.13 103.88 103.51V100.61H105.31V99.37H103.88V97.66H101.8V99.37H101.81ZM106.23 97.14V98.55H108.31V97.14H106.23ZM106.23 99.37V105.78H108.31V99.37H106.23ZM110.05 105.77H112.13V96.84H110.05V105.77ZM113.89 97.14V98.55H115.97V97.14H113.89ZM113.89 99.37V105.78H115.97V99.37H113.89ZM117.91 99.37H116.88V100.61H117.91V104.04C117.91 104.52 117.91 105.21 118.67 105.6C119.02 105.78 119.47 105.83 119.91 105.83C120.41 105.83 120.92 105.78 121.43 105.72V104.23C121.22 104.26 121.09 104.27 120.79 104.27C120.2 104.27 119.99 104.13 119.99 103.51V100.61H121.42V99.37H119.99V97.66H117.91V99.37ZM122.32 97.14V98.55H124.4V97.14H122.32ZM122.32 99.37V105.78H124.4V99.37H122.32ZM134.17 102.92C134.17 102.26 134.14 101.24 133.29 100.34C132.32 99.3 130.83 99.11 129.97 99.11C127.69 99.11 125.68 100.15 125.68 102.5C125.68 103.41 126.03 104.44 126.88 105.12C127.73 105.82 128.85 106.02 129.94 106.02C131.73 106.02 133.31 105.38 134.24 103.84L132.07 103.63C131.88 103.87 131.39 104.51 130.04 104.51C129.36 104.51 128.65 104.31 128.21 103.78C127.98 103.52 127.87 103.12 127.82 102.92H134.17ZM127.88 101.77C128 101.47 128.14 101.19 128.5 100.95C128.88 100.69 129.44 100.58 129.93 100.58C130.49 100.58 130.99 100.73 131.3 100.91C131.73 101.17 131.83 101.53 131.87 101.77H127.88ZM134.98 103.75C135.27 104.9 136.1 105.99 139.05 105.99C140.86 105.99 141.75 105.53 142.22 105.11C142.61 104.76 142.84 104.23 142.84 103.7C142.84 103.02 142.49 102.44 141.87 102.14C141.44 101.93 140.9 101.88 140.41 101.82C138.6 101.64 138.4 101.63 138.01 101.53C137.72 101.47 137.47 101.34 137.47 101.08C137.47 100.67 138.06 100.44 138.93 100.44C139.93 100.44 140.46 100.77 140.65 101.23L142.82 101.09C142.73 100.79 142.58 100.26 141.94 99.79C140.99 99.11 139.73 99.06 139.07 99.06C136.92 99.06 135.34 99.76 135.34 101.29C135.34 102.82 137.04 103.05 137.71 103.13C138.21 103.19 138.72 103.22 139.23 103.28C140.19 103.4 140.7 103.49 140.7 103.93C140.7 104.28 140.33 104.41 140.23 104.45C139.88 104.57 139.51 104.59 139.13 104.59C138.31 104.59 137.47 104.44 137.23 103.6L134.99 103.76L134.98 103.75Z" fill="white"/>
<path d="M175.78 83.29C175.78 82.99 175.82 82.7 175.89 82.42C175.96 82.14 176.07 81.89 176.2 81.65C176.33 81.41 176.49 81.2 176.68 81C176.87 80.8 177.07 80.65 177.3 80.51C177.53 80.37 177.77 80.27 178.02 80.19C178.27 80.11 178.55 80.08 178.82 80.08C179.09 80.08 179.37 80.12 179.62 80.19C179.87 80.26 180.12 80.37 180.34 80.51C180.56 80.65 180.77 80.81 180.96 81C181.15 81.19 181.3 81.41 181.44 81.65C181.58 81.89 181.67 82.14 181.75 82.42C181.83 82.7 181.86 82.99 181.86 83.29C181.86 83.59 181.82 83.88 181.75 84.16C181.68 84.44 181.57 84.69 181.44 84.93C181.31 85.17 181.15 85.38 180.96 85.58C180.77 85.78 180.57 85.93 180.34 86.07C180.11 86.21 179.87 86.32 179.62 86.39C179.37 86.46 179.09 86.5 178.82 86.5C178.55 86.5 178.27 86.46 178.02 86.39C177.77 86.32 177.52 86.21 177.3 86.07C177.08 85.93 176.87 85.77 176.68 85.58C176.49 85.39 176.34 85.17 176.2 84.93C176.06 84.69 175.97 84.44 175.89 84.16C175.81 83.88 175.78 83.59 175.78 83.29ZM176.14 83.29C176.14 83.55 176.18 83.81 176.24 84.05C176.3 84.29 176.39 84.52 176.51 84.73C176.63 84.94 176.77 85.13 176.93 85.3C177.09 85.47 177.27 85.62 177.47 85.74C177.67 85.86 177.88 85.95 178.11 86.02C178.34 86.09 178.57 86.12 178.82 86.12C179.07 86.12 179.3 86.08 179.53 86.02C179.76 85.96 179.97 85.86 180.17 85.74C180.37 85.62 180.55 85.48 180.71 85.3C180.87 85.12 181.01 84.94 181.13 84.73C181.25 84.52 181.33 84.29 181.39 84.05C181.45 83.81 181.49 83.56 181.49 83.29C181.49 83.02 181.45 82.77 181.39 82.53C181.33 82.29 181.24 82.06 181.13 81.85C181.02 81.64 180.87 81.45 180.71 81.28C180.55 81.11 180.37 80.96 180.17 80.85C179.97 80.74 179.76 80.64 179.53 80.57C179.3 80.5 179.07 80.47 178.82 80.47C178.45 80.47 178.1 80.54 177.79 80.69C177.48 80.84 177.18 81.03 176.94 81.28C176.7 81.53 176.51 81.83 176.37 82.17C176.23 82.51 176.16 82.89 176.16 83.28L176.14 83.29ZM178.12 83.56V85.04H177.7V81.45H178.8C179.22 81.45 179.54 81.54 179.76 81.71C179.98 81.88 180.1 82.15 180.1 82.51C180.1 82.7 180.05 82.87 179.94 83.01C179.83 83.15 179.68 83.27 179.49 83.35C179.69 83.42 179.83 83.54 179.91 83.69C179.99 83.84 180.03 84.03 180.03 84.23V84.42C180.03 84.53 180.03 84.63 180.05 84.72C180.07 84.81 180.08 84.9 180.1 84.96V85.03H179.67C179.67 85.03 179.64 84.94 179.63 84.89C179.62 84.84 179.61 84.78 179.61 84.71V84.23C179.61 83.99 179.56 83.82 179.45 83.72C179.34 83.62 179.16 83.56 178.9 83.56H178.1V83.54L178.12 83.56ZM178.12 83.17H178.9C179.01 83.17 179.1 83.15 179.2 83.13C179.3 83.11 179.39 83.06 179.46 83.01C179.53 82.96 179.59 82.89 179.64 82.81C179.69 82.73 179.7 82.63 179.7 82.53C179.7 82.41 179.68 82.31 179.66 82.22C179.64 82.13 179.58 82.06 179.51 82.01C179.44 81.96 179.35 81.91 179.24 81.89C179.13 81.87 178.98 81.85 178.82 81.85H178.14V83.18L178.12 83.17Z" fill="white"/>
</svg>
