<svg width="157" height="178" viewBox="0 0 157 178" fill="none" xmlns="http://www.w3.org/2000/svg">
<g clip-path="url(#clip0_3_394)">
<path d="M15.6101 42.14C17.3885 42.14 18.8301 40.6984 18.8301 38.92C18.8301 37.1417 17.3885 35.7 15.6101 35.7C13.8318 35.7 12.3901 37.1417 12.3901 38.92C12.3901 40.6984 13.8318 42.14 15.6101 42.14Z" stroke="#00557F" stroke-width="1.77" stroke-linecap="round" stroke-linejoin="round"/>
<path d="M18.4102 50.3C19.4706 50.3 20.3302 49.4404 20.3302 48.38C20.3302 47.3196 19.4706 46.46 18.4102 46.46C17.3498 46.46 16.4902 47.3196 16.4902 48.38C16.4902 49.4404 17.3498 50.3 18.4102 50.3Z" fill="#00557F"/>
<path d="M20.3399 86.88C21.4003 86.88 22.2599 86.0204 22.2599 84.96C22.2599 83.8997 21.4003 83.04 20.3399 83.04C19.2795 83.04 18.4199 83.8997 18.4199 84.96C18.4199 86.0204 19.2795 86.88 20.3399 86.88Z" fill="#00557F"/>
<path d="M4.58014 54.47C6.61807 54.47 8.27014 52.818 8.27014 50.78C8.27014 48.7421 6.61807 47.09 4.58014 47.09C2.54221 47.09 0.890137 48.7421 0.890137 50.78C0.890137 52.818 2.54221 54.47 4.58014 54.47Z" stroke="#00557F" stroke-width="1.77" stroke-miterlimit="8.84"/>
<path d="M16.7299 60.72C18.1327 60.72 19.2699 59.5828 19.2699 58.18C19.2699 56.7772 18.1327 55.64 16.7299 55.64C15.3271 55.64 14.1899 56.7772 14.1899 58.18C14.1899 59.5828 15.3271 60.72 16.7299 60.72Z" stroke="#00557F" stroke-width="1.77" stroke-miterlimit="8.84"/>
<path d="M6.8101 69.1001C8.58293 69.1001 10.0201 67.6629 10.0201 65.8901C10.0201 64.1172 8.58293 62.6801 6.8101 62.6801C5.03726 62.6801 3.6001 64.1172 3.6001 65.8901C3.6001 67.6629 5.03726 69.1001 6.8101 69.1001Z" stroke="#00557F" stroke-width="1.77" stroke-miterlimit="8.84"/>
<path d="M13.6801 80.38C15.0829 80.38 16.2201 79.2428 16.2201 77.84C16.2201 76.4372 15.0829 75.3 13.6801 75.3C12.2773 75.3 11.1401 76.4372 11.1401 77.84C11.1401 79.2428 12.2773 80.38 13.6801 80.38Z" stroke="#00557F" stroke-width="1.77" stroke-miterlimit="8.84"/>
<path d="M18.4102 70.56C19.2165 70.56 19.8702 69.9063 19.8702 69.1C19.8702 68.2937 19.2165 67.64 18.4102 67.64C17.6039 67.64 16.9502 68.2937 16.9502 69.1C16.9502 69.9063 17.6039 70.56 18.4102 70.56Z" fill="#00557F"/>
<path d="M6.8101 38.68C7.61643 38.68 8.2701 38.0263 8.2701 37.22C8.2701 36.4137 7.61643 35.76 6.8101 35.76C6.00376 35.76 5.3501 36.4137 5.3501 37.22C5.3501 38.0263 6.00376 38.68 6.8101 38.68Z" fill="#00557F"/>
<path d="M18.14 28.97C18.9187 28.97 19.55 28.3387 19.55 27.56C19.55 26.7813 18.9187 26.15 18.14 26.15C17.3613 26.15 16.73 26.7813 16.73 27.56C16.73 28.3387 17.3613 28.97 18.14 28.97Z" fill="#00557F"/>
<path d="M36.0601 1.77002L117.68 12.41V103.22L36.0601 113.87" stroke="#00557F" stroke-width="3.54" stroke-linecap="round" stroke-linejoin="round"/>
<path d="M36.0601 11.7L117.68 21.03" stroke="#00557F" stroke-width="3.54" stroke-linecap="round" stroke-linejoin="round"/>
<path d="M44.6201 91.37L111.84 86.02" stroke="#0078D3" stroke-width="4.42" stroke-linecap="round" stroke-linejoin="round"/>
<path d="M44.6201 80.18L111.84 76.61" stroke="#0078D3" stroke-width="4.42" stroke-linecap="round" stroke-linejoin="round"/>
<path d="M44.6201 68.9701L111.84 67.1901" stroke="#0078D3" stroke-width="4.42" stroke-linecap="round" stroke-linejoin="round"/>
<path d="M44.6201 57.77L111.84 57.78" stroke="#0078D3" stroke-width="4.42" stroke-linecap="round" stroke-linejoin="round"/>
<path d="M44.6201 46.5701L111.84 48.3701" stroke="#0078D3" stroke-width="4.42" stroke-linecap="round" stroke-linejoin="round"/>
<path d="M44.6201 35.3801L111.84 38.9601" stroke="#0078D3" stroke-width="4.42" stroke-linecap="round" stroke-linejoin="round"/>
<path d="M44.6201 24.17L111.84 29.54" stroke="#0078D3" stroke-width="4.42" stroke-linecap="round" stroke-linejoin="round"/>
<path d="M36.0601 103.93L117.68 94.6" stroke="#00557F" stroke-width="3.54" stroke-linecap="round" stroke-linejoin="round"/>
<path d="M36.0601 96.97V18.45" stroke="#00557F" stroke-width="3.54" stroke-linecap="round" stroke-linejoin="round"/>
<path d="M36.0599 1.77002L28.1899 5.31002V110.31L36.0599 113.87" stroke="#00557F" stroke-width="3.54" stroke-linecap="round" stroke-linejoin="round"/>
<path d="M36.0599 11.7L28.1899 13.94" stroke="#00557F" stroke-width="3.54" stroke-linecap="round" stroke-linejoin="round"/>
<path d="M36.0599 103.93L28.1899 101.7" stroke="#00557F" stroke-width="3.54" stroke-linecap="round" stroke-linejoin="round"/>
<path d="M90.4399 66.94C90.4399 66.94 100.06 59.85 113.33 66.94C126.6 74.03 136.22 66.94 136.22 66.94" stroke="#FCD1AC" stroke-width="7.95" stroke-miterlimit="8.84" stroke-linecap="round"/>
<path d="M131.81 64.11L137.37 66.7L134.87 72.47" stroke="#FCD1AC" stroke-width="7.95" stroke-miterlimit="8.84" stroke-linecap="round"/>
<path d="M90.4399 48.82C90.4399 48.82 100.06 41.73 113.33 48.82C126.6 55.91 136.22 48.82 136.22 48.82" stroke="#FCD1AC" stroke-width="7.95" stroke-miterlimit="8.84" stroke-linecap="round"/>
<path d="M131.81 45.99L137.37 48.58L134.87 54.35" stroke="#FCD1AC" stroke-width="7.95" stroke-miterlimit="8.84" stroke-linecap="round"/>
<path d="M90.4399 30.7C90.4399 30.7 100.06 23.61 113.33 30.7C126.6 37.79 136.22 30.7 136.22 30.7" stroke="#FCD1AC" stroke-width="7.95" stroke-miterlimit="8.84" stroke-linecap="round"/>
<path d="M131.81 27.87L137.37 30.46L134.87 36.23" stroke="#FCD1AC" stroke-width="7.95" stroke-miterlimit="8.84" stroke-linecap="round"/>
<path d="M90.4399 66.94C90.4399 66.94 100.06 59.85 113.33 66.94C126.6 74.03 136.22 66.94 136.22 66.94" stroke="#00557F" stroke-width="3.54" stroke-linecap="round" stroke-linejoin="round"/>
<path d="M131.81 64.11L137.37 66.7L134.87 72.47" stroke="#00557F" stroke-width="3.54" stroke-linecap="round" stroke-linejoin="round"/>
<path d="M90.4399 48.82C90.4399 48.82 100.06 41.73 113.33 48.82C126.6 55.91 136.22 48.82 136.22 48.82" stroke="#00557F" stroke-width="3.54" stroke-linecap="round" stroke-linejoin="round"/>
<path d="M131.81 45.99L137.37 48.58L134.87 54.35" stroke="#00557F" stroke-width="3.54" stroke-linecap="round" stroke-linejoin="round"/>
<path d="M90.4399 30.7C90.4399 30.7 100.06 23.61 113.33 30.7C126.6 37.79 136.22 30.7 136.22 30.7" stroke="#00557F" stroke-width="3.54" stroke-linecap="round" stroke-linejoin="round"/>
<path d="M131.81 27.87L137.37 30.46L134.87 36.23" stroke="#00557F" stroke-width="3.54" stroke-linecap="round" stroke-linejoin="round"/>
<path d="M108.13 175.67C133.811 175.67 154.63 154.851 154.63 129.17C154.63 103.489 133.811 82.67 108.13 82.67C82.4486 82.67 61.6299 103.489 61.6299 129.17C61.6299 154.851 82.4486 175.67 108.13 175.67Z" fill="#FCD1AC" stroke="#00557F" stroke-width="3.54" stroke-linecap="round" stroke-linejoin="round"/>
<path d="M77.8797 148.54C74.2997 142.95 72.2197 136.31 72.2197 129.18C72.2197 109.35 88.2997 93.27 108.13 93.27C116.11 93.27 123.49 95.88 129.45 100.28" stroke="#0078D3" stroke-width="4.42" stroke-linecap="round" stroke-linejoin="round"/>
<path d="M140.06 112.73C142.6 117.65 144.04 123.25 144.04 129.17C144.04 149 127.96 165.08 108.13 165.08C103.17 165.08 98.4497 164.07 94.1597 162.26" stroke="#0078D3" stroke-width="4.42" stroke-linecap="round" stroke-linejoin="round"/>
<path d="M126.321 129.202C125.169 129.202 124.176 128.944 123.342 128.427C122.507 127.911 121.872 127.226 121.435 126.372C120.998 125.518 120.779 124.604 120.779 123.631C120.779 122.638 120.998 121.724 121.435 120.89C121.872 120.036 122.507 119.35 123.342 118.834C124.176 118.318 125.169 118.059 126.321 118.059C127.473 118.059 128.456 118.318 129.27 118.834C130.105 119.35 130.74 120.036 131.177 120.89C131.634 121.724 131.862 122.638 131.862 123.631C131.862 124.604 131.644 125.518 131.207 126.372C130.77 127.226 130.134 127.911 129.3 128.427C128.466 128.944 127.473 129.202 126.321 129.202ZM123.729 123.661C123.729 124.237 123.838 124.763 124.057 125.24C124.295 125.696 124.603 126.054 124.98 126.312C125.377 126.57 125.824 126.699 126.321 126.699C126.798 126.699 127.225 126.57 127.602 126.312C127.999 126.034 128.307 125.667 128.526 125.21C128.764 124.733 128.883 124.207 128.883 123.631C128.883 123.015 128.764 122.489 128.526 122.052C128.307 121.595 127.999 121.237 127.602 120.979C127.225 120.721 126.798 120.592 126.321 120.592C125.844 120.592 125.407 120.721 125.01 120.979C124.613 121.237 124.295 121.605 124.057 122.082C123.838 122.538 123.729 123.065 123.729 123.661Z" fill="#00557F"/>
<path d="M118.411 133.045C118.411 134.356 118.053 135.498 117.338 136.472C116.643 137.445 115.71 138.21 114.538 138.766C113.366 139.302 112.085 139.57 110.694 139.57C109.284 139.57 107.993 139.282 106.821 138.706C105.669 138.13 104.746 137.346 104.051 136.352C103.375 135.339 103.038 134.187 103.038 132.896C103.038 132.102 103.206 131.387 103.544 130.751C103.882 130.096 104.299 129.54 104.795 129.083C105.312 128.606 105.828 128.239 106.345 127.981C105.868 127.742 105.421 127.424 105.004 127.027C104.607 126.63 104.289 126.173 104.051 125.657C103.812 125.14 103.693 124.594 103.693 124.018C103.693 123.085 103.902 122.25 104.319 121.515C104.736 120.781 105.292 120.165 105.987 119.668C106.682 119.152 107.437 118.774 108.251 118.536C109.086 118.278 109.91 118.149 110.724 118.149C111.519 118.149 112.333 118.278 113.167 118.536C114.001 118.774 114.766 119.142 115.461 119.638C116.157 120.135 116.713 120.751 117.13 121.486C117.567 122.201 117.785 123.035 117.785 123.988C117.785 124.544 117.656 125.091 117.398 125.627C117.16 126.143 116.832 126.61 116.415 127.027C116.017 127.424 115.561 127.742 115.044 127.981C115.62 128.278 116.166 128.666 116.683 129.142C117.199 129.619 117.616 130.185 117.934 130.841C118.252 131.496 118.411 132.231 118.411 133.045ZM114.359 132.807C114.359 132.291 114.26 131.844 114.061 131.466C113.862 131.069 113.584 130.741 113.227 130.483C112.869 130.205 112.472 129.997 112.035 129.858C111.598 129.718 111.151 129.649 110.694 129.649C110.059 129.649 109.463 129.778 108.907 130.036C108.371 130.294 107.934 130.662 107.596 131.139C107.258 131.615 107.089 132.171 107.089 132.807C107.089 133.284 107.189 133.721 107.387 134.118C107.606 134.495 107.884 134.823 108.222 135.101C108.579 135.379 108.966 135.598 109.384 135.757C109.821 135.896 110.267 135.965 110.724 135.965C111.36 135.965 111.956 135.826 112.512 135.548C113.068 135.27 113.515 134.893 113.853 134.416C114.19 133.939 114.359 133.403 114.359 132.807ZM107.745 124.137C107.745 124.674 107.894 125.13 108.192 125.508C108.49 125.885 108.867 126.173 109.324 126.372C109.801 126.55 110.267 126.64 110.724 126.64C111.201 126.64 111.658 126.541 112.095 126.342C112.552 126.143 112.929 125.865 113.227 125.508C113.545 125.13 113.704 124.664 113.704 124.107C113.704 123.611 113.565 123.184 113.286 122.826C113.008 122.469 112.641 122.191 112.184 121.992C111.747 121.793 111.251 121.694 110.694 121.694C110.178 121.694 109.691 121.793 109.235 121.992C108.778 122.191 108.41 122.479 108.132 122.856C107.874 123.214 107.745 123.641 107.745 124.137Z" fill="#00557F"/>
<path d="M100.522 132.241C100.522 133.612 100.175 134.853 99.4795 135.965C98.8042 137.078 97.8806 137.961 96.7087 138.617C95.5567 139.272 94.2458 139.6 92.776 139.6C91.187 139.6 89.8066 139.213 88.6348 138.438C87.4828 137.663 86.589 136.551 85.9534 135.101C85.3178 133.651 85 131.913 85 129.887C85 127.325 85.3277 125.16 85.9832 123.393C86.6585 121.605 87.6119 120.264 88.8433 119.37C90.0748 118.457 91.5247 118 93.1931 118C94.5239 118 95.7454 118.288 96.8577 118.864C97.9898 119.44 98.9432 120.264 99.7178 121.337L97.4237 123.839C96.947 123.105 96.3313 122.529 95.5766 122.111C94.8218 121.674 94.0075 121.456 93.1335 121.456C92.2397 121.456 91.4651 121.694 90.8097 122.171C90.1542 122.648 89.6477 123.343 89.2902 124.257C88.9327 125.15 88.7341 126.233 88.6943 127.504C88.9724 127.027 89.3299 126.62 89.7669 126.282C90.2039 125.925 90.7104 125.657 91.2864 125.478C91.8624 125.279 92.4781 125.18 93.1335 125.18C94.5437 125.18 95.805 125.498 96.9173 126.134C98.0295 126.749 98.9035 127.593 99.5391 128.666C100.195 129.719 100.522 130.91 100.522 132.241ZM92.776 136.233C93.491 136.233 94.1465 136.055 94.7424 135.697C95.3382 135.32 95.8149 134.833 96.1724 134.237C96.5299 133.622 96.7087 132.956 96.7087 132.241C96.7087 131.526 96.5299 130.881 96.1724 130.305C95.8149 129.709 95.3382 129.242 94.7424 128.904C94.1664 128.547 93.5208 128.368 92.8058 128.368C92.0908 128.368 91.4353 128.547 90.8395 128.904C90.2436 129.242 89.7669 129.709 89.4094 130.305C89.0717 130.881 88.9029 131.526 88.9029 132.241C88.9029 132.956 89.0817 133.622 89.4392 134.237C89.7967 134.833 90.2734 135.32 90.8692 135.697C91.4651 136.055 92.1007 136.233 92.776 136.233Z" fill="#00557F"/>
</g>
<defs>
<clipPath id="clip0_3_394">
<rect width="156.39" height="177.44" fill="white"/>
</clipPath>
</defs>
</svg>
