<?xml version="1.0" encoding="UTF-8"?>
<svg xmlns="http://www.w3.org/2000/svg" version="1.1" viewBox="0 0 104 175">
  <!-- Generator: Adobe Illustrator 29.3.1, SVG Export Plug-In . SVG Version: 2.1.0 Build 151)  -->
  <defs>
    <style>
      .st0, .st1, .st2, .st3, .st4, .st5, .st6 {
        stroke-linejoin: round;
      }

      .st0, .st1, .st2, .st3, .st4, .st6 {
        fill: none;
      }

      .st0, .st1, .st2, .st3, .st5 {
        stroke-width: 3.5px;
      }

      .st0, .st1, .st3, .st5 {
        stroke: #00557f;
      }

      .st0, .st1, .st4, .st5, .st6 {
        stroke-linecap: round;
      }

      .st1, .st4, .st5 {
        display: none;
      }

      .st2 {
        stroke: #c9b8a2;
      }

      .st4, .st6 {
        stroke: #0078d3;
        stroke-width: 4.4px;
      }

      .st7, .st5 {
        fill: #fcd1ac;
      }
    </style>
  </defs>
  <g id="Layer_2">
    <rect class="st7" x="31.9" y="1.8" width="70.3" height="138.7" rx="2" ry="2"/>
  </g>
  <g id="Layer_1">
    <path class="st2" d="M84,140.5V18.9H31.9"/>
    <path class="st0" d="M31.9,53.6H13.8"/>
    <path class="st0" d="M13.8,88.3h18.1"/>
    <path class="st0" d="M31.9,10.5H5.2v147.1h87.5v-17.1"/>
    <path class="st2" d="M92.7,140.5V10.5H31.9"/>
    <path class="st0" d="M96.1,157.6H1.8v14.7h94.3v-14.7Z"/>
    <path class="st0" d="M31.9,18.9H13.8v138.7h70.3v-17.1"/>
    <path class="st0" d="M31.9,122.9H13.8"/>
    <path class="st2" d="M31.9,53.6h52.1"/>
    <path class="st2" d="M84,88.3H31.9"/>
    <path class="st2" d="M31.9,122.9h52.1"/>
    <path class="st3" d="M48.9,140.5v17.1"/>
    <path class="st2" d="M48.9,140.5V18.9"/>
    <path class="st5" d="M102.1,1.8H31.9v138.7h70.3V1.8Z"/>
    <path class="st1" d="M31.9,71.1h70.3"/>
    <path class="st4" d="M77.7,47l7.3,7.3"/>
    <path class="st4" d="M48.8,17.9l21.5,21.5"/>
    <path class="st4" d="M64.4,12.3l15.7,15.8"/>
    <path class="st4" d="M55.8,45.6l14.8,14.9"/>
    <path class="st4" d="M46.6,36.4l2.5,2.7"/>
    <path class="st4" d="M56.3,93.5l-7.2-7.3"/>
    <path class="st4" d="M85.3,122.6l-21.5-21.5"/>
    <path class="st4" d="M69.6,128.2l-15.7-15.8"/>
    <path class="st4" d="M78.2,94.9l-14.8-14.9"/>
    <path class="st4" d="M87.4,104.1l-2.5-2.6"/>
    <path class="st0" d="M102.1,1.8H31.9v138.7h70.3V1.8Z"/>
    <line class="st3" x1="31.9" y1="74.3" x2="102.1" y2="74.3"/>
    <g>
      <path class="st6" d="M80,47l7.3,7.3"/>
      <path class="st6" d="M51,17.9l21.5,21.5"/>
      <path class="st6" d="M66.7,12.3l15.7,15.8"/>
      <path class="st6" d="M58.1,45.6l14.8,14.9"/>
      <path class="st6" d="M48.9,36.4l2.5,2.7"/>
      <path class="st6" d="M58.6,93.5l-7.2-7.3"/>
      <path class="st6" d="M87.6,122.6l-21.5-21.5"/>
      <path class="st6" d="M71.9,128.2l-15.7-15.8"/>
      <path class="st6" d="M80.5,94.9l-14.8-14.9"/>
      <path class="st6" d="M89.7,104.1l-2.5-2.6"/>
    </g>
  </g>
</svg>