<svg width="104" height="175" viewBox="0 0 104 175" fill="none" xmlns="http://www.w3.org/2000/svg">
<g clip-path="url(#clip0_3_258)">
<path d="M84.04 53.59H13.79" stroke="#00557F" stroke-width="3.54" stroke-linecap="round" stroke-linejoin="round"/>
<path d="M48.9199 18.91V88.27" stroke="#00557F" stroke-width="3.54" stroke-linecap="round" stroke-linejoin="round"/>
<path d="M84.0398 18.92H13.7798V88.28H84.0398V18.92Z" stroke="#00557F" stroke-width="3.54" stroke-linecap="round" stroke-linejoin="round"/>
<path d="M92.6599 10.54H5.18994V157.63H92.6599V10.54Z" stroke="#00557F" stroke-width="3.54" stroke-linecap="round" stroke-linejoin="round"/>
<path d="M96.07 157.63H1.77002V172.34H96.07V157.63Z" stroke="#00557F" stroke-width="3.54" stroke-linecap="round" stroke-linejoin="round"/>
<path d="M84.0398 18.92H13.7798V88.28H84.0398V18.92Z" stroke="#00557F" stroke-width="3.54" stroke-linecap="round" stroke-linejoin="round"/>
<path d="M84.04 122.95H13.79" stroke="#00557F" stroke-width="3.54" stroke-linecap="round" stroke-linejoin="round"/>
<path d="M48.9199 88.27V157.63" stroke="#00557F" stroke-width="3.54" stroke-linecap="round" stroke-linejoin="round"/>
<path d="M84.05 88.28H13.79V157.64H84.05V88.28Z" stroke="#00557F" stroke-width="3.54" stroke-linecap="round" stroke-linejoin="round"/>
<path d="M84.05 88.28H13.79V157.64H84.05V88.28Z" stroke="#00557F" stroke-width="3.54" stroke-linecap="round" stroke-linejoin="round"/>
<path d="M102.14 1.77002H31.8799V140.49H102.14V1.77002Z" fill="black" stroke="#00557F" stroke-width="3.54" stroke-linecap="round" stroke-linejoin="round"/>
<path d="M31.8799 71.13H102.14" stroke="#00557F" stroke-width="3.54" stroke-linecap="round" stroke-linejoin="round"/>
<path d="M77.6899 46.96L84.9499 54.23" stroke="#0078D3" stroke-width="4.42" stroke-linecap="round" stroke-linejoin="round"/>
<path d="M48.75 17.91L70.22 39.46" stroke="#0078D3" stroke-width="4.42" stroke-linecap="round" stroke-linejoin="round"/>
<path d="M64.3799 12.29L80.0799 28.1" stroke="#0078D3" stroke-width="4.42" stroke-linecap="round" stroke-linejoin="round"/>
<path d="M55.79 45.57L70.57 60.47" stroke="#0078D3" stroke-width="4.42" stroke-linecap="round" stroke-linejoin="round"/>
<path d="M46.6201 36.39L49.1401 39.04" stroke="#0078D3" stroke-width="4.42" stroke-linecap="round" stroke-linejoin="round"/>
<path d="M56.3201 93.52L49.0801 86.24" stroke="#0078D3" stroke-width="4.42" stroke-linecap="round" stroke-linejoin="round"/>
<path d="M85.28 122.56L63.79 101.02" stroke="#0078D3" stroke-width="4.42" stroke-linecap="round" stroke-linejoin="round"/>
<path d="M69.6299 128.17L53.9399 112.37" stroke="#0078D3" stroke-width="4.42" stroke-linecap="round" stroke-linejoin="round"/>
<path d="M78.2202 94.9L63.4502 80.01" stroke="#0078D3" stroke-width="4.42" stroke-linecap="round" stroke-linejoin="round"/>
<path d="M87.4104 104.08L84.8804 101.44" stroke="#0078D3" stroke-width="4.42" stroke-linecap="round" stroke-linejoin="round"/>
</g>
<defs>
<clipPath id="clip0_3_258">
<rect width="103.91" height="174.11" fill="white"/>
</clipPath>
</defs>
</svg>
