<?xml version="1.0" encoding="UTF-8"?>
<svg id="Layer_2" data-name="Layer 2" xmlns="http://www.w3.org/2000/svg" viewBox="0 0 101.88 141.55">
  <defs>
    <style>
      .cls-1, .cls-2, .cls-3 {
        fill: #f0851c;
        stroke: #fff;
        stroke-linecap: round;
        stroke-linejoin: round;
      }

      .cls-2 {
        stroke-width: 1.5px;
      }

      .cls-3 {
        stroke-width: .75px;
      }
    </style>
  </defs>
  <g id="Dishwasher_Filled" data-name="Dishwasher Filled">
    <g>
      <line class="cls-1" x1="52.85" y1="139.7" x2="50.94" y2="140.8"/>
      <polyline class="cls-2" points="50.94 58.7 50.94 140.8 .75 111.83 .75 42.8"/>
      <polygon class="cls-1" points="50.94 63.66 50.94 71.64 .75 42.66 .75 29.73 50.94 58.7 50.94 63.66"/>
      <polygon class="cls-2" points="50.94 58.7 .75 29.73 50.94 .75 101.13 29.73 50.94 58.7"/>
      <polyline class="cls-1" points="8.56 55.18 8.56 54.4 36.37 70.45"/>
      <polygon class="cls-3" points="36.36 76.19 1.79 56.23 1.79 54.3 36.36 74.26 36.36 76.19"/>
      <polygon class="cls-3" points="43.13 72.28 36.36 76.19 36.36 74.26 43.13 70.35 43.13 72.28"/>
      <polyline class="cls-3" points="10.23 51.36 10.23 53.29 7.67 54.76"/>
      <polygon class="cls-3" points="43.13 70.35 41.46 69.39 36.36 72.33 5.13 54.3 10.23 51.36 8.56 50.39 1.79 54.3 36.36 74.26 43.13 70.35"/>
      <polygon class="cls-3" points="32.12 57.57 19.57 50.33 19.57 44.04 32.12 51.29 32.12 57.57"/>
      <path class="cls-3" d="M7.51,40.31c.46,1.19.19,2.21-.61,2.29s-1.82-.84-2.29-2.03c-.46-1.19-.19-2.21.61-2.29.8-.07,1.82.84,2.29,2.03Z"/>
      <path class="cls-3" d="M5.23,38.28h1.93c.8-.07,1.82.84,2.29,2.03s.19,2.21-.61,2.29h-1.93"/>
      <path class="cls-3" d="M14.25,44.2c.46,1.19.19,2.21-.61,2.29-.8.07-1.82-.84-2.29-2.03-.46-1.19-.19-2.21.61-2.29.8-.07,1.82.84,2.29,2.03Z"/>
      <path class="cls-3" d="M11.97,42.17h1.93c.8-.07,1.82.84,2.29,2.03.46,1.19.19,2.21-.61,2.29h-1.93"/>
      <path class="cls-3" d="M36.74,57.18c.46,1.19.19,2.21-.61,2.29-.8.07-1.82-.84-2.29-2.03-.46-1.19-.19-2.21.61-2.29.8-.07,1.82.84,2.29,2.03Z"/>
      <path class="cls-3" d="M34.45,55.16h1.93c.8-.07,1.82.84,2.29,2.03.46,1.19.19,2.21-.61,2.29h-1.93"/>
      <path class="cls-3" d="M43.48,61.08c.46,1.19.19,2.21-.61,2.29-.8.07-1.82-.84-2.29-2.03-.46-1.19-.19-2.21.61-2.29.8-.07,1.82.84,2.29,2.03Z"/>
      <path class="cls-3" d="M41.2,59.05h1.93c.8-.07,1.82.84,2.29,2.03.46,1.19.19,2.21-.61,2.29h-1.93"/>
    </g>
  </g>
</svg>