<?xml version="1.0" encoding="UTF-8"?>
<svg id="Layer_2" data-name="Layer 2" xmlns="http://www.w3.org/2000/svg" viewBox="0 0 525.9 517.99">
  <defs>
    <style>
      .cls-1, .cls-2, .cls-3, .cls-4, .cls-5, .cls-6, .cls-7, .cls-8 {
        stroke: #fff;
      }

      .cls-1, .cls-2, .cls-4, .cls-5, .cls-6 {
        stroke-linecap: round;
        stroke-linejoin: round;
      }

      .cls-1, .cls-2, .cls-8 {
        fill: #001689;
      }

      .cls-1, .cls-3, .cls-4, .cls-5, .cls-7, .cls-8 {
        stroke-width: .78px;
      }

      .cls-2 {
        stroke-width: .43px;
      }

      .cls-3 {
        fill: #767676;
      }

      .cls-3, .cls-7, .cls-8 {
        stroke-miterlimit: 10;
      }

      .cls-4 {
        fill: #f0851c;
      }

      .cls-5, .cls-6, .cls-7 {
        fill: none;
      }

      .cls-6 {
        stroke-width: 1.56px;
      }
    </style>
  </defs>
  <g id="Mobile_Rooms" data-name="Mobile Rooms">
    <g id="Fridge">
      <g>
        <g>
          <line class="cls-6" x1="266.87" y1="20.41" x2="268.25" y2="236.26"/>
          <polygon class="cls-6" points="525.11 148.26 525.11 362.25 505.22 374.32 505.57 158.89 525.11 148.26"/>
          <polygon class="cls-6" points=".81 155.72 .78 368.25 14.5 377.2 14.5 164.83 .81 155.72"/>
          <polygon class="cls-6" points="505.22 373.96 252.03 517.21 14.5 377.2 268.25 236.26 505.22 373.96"/>
          <polygon class="cls-6" points="272.3 .78 .78 155.15 13.53 164.24 266.2 20.41 505.57 158.9 525.11 148.26 272.3 .78"/>
        </g>
        <g>
          <line class="cls-5" x1="227.76" y1="287.16" x2="440.93" y2="410.35"/>
          <line class="cls-5" x1="234.61" y1="253.53" x2="474.8" y2="392.12"/>
          <line class="cls-5" x1="202.83" y1="272.8" x2="227.76" y2="287.16"/>
          <line class="cls-5" x1="227.61" y1="327.73" x2="230.94" y2="329.65"/>
          <line class="cls-5" x1="192.05" y1="307.2" x2="406.03" y2="430.67"/>
          <line class="cls-5" x1="163.41" y1="290.66" x2="192.05" y2="307.2"/>
          <line class="cls-5" x1="154.48" y1="326.15" x2="369.55" y2="450.47"/>
          <line class="cls-5" x1="129.74" y1="311.87" x2="154.48" y2="326.15"/>
          <line class="cls-5" x1="89.5" y1="329.29" x2="334.13" y2="470.79"/>
          <line class="cls-5" x1="53.55" y1="349.61" x2="298.17" y2="491.11"/>
          <line class="cls-5" x1="153.51" y1="331.99" x2="124.2" y2="348.92"/>
          <line class="cls-5" x1="168.57" y1="323.3" x2="158.26" y2="329.25"/>
          <line class="cls-5" x1="192.07" y1="309.73" x2="171.94" y2="321.35"/>
          <line class="cls-5" x1="242.42" y1="280.66" x2="148.17" y2="335.08"/>
          <line class="cls-5" x1="293.49" y1="250.92" x2="242.42" y2="280.66"/>
          <line class="cls-5" x1="219.83" y1="334.36" x2="79.34" y2="415.56"/>
          <line class="cls-5" x1="272.58" y1="303.9" x2="219.83" y2="334.36"/>
          <line class="cls-5" x1="328.91" y1="271.24" x2="272.58" y2="303.9"/>
          <line class="cls-5" x1="114.25" y1="435.88" x2="364.34" y2="291.56"/>
          <polyline class="cls-5" points="363.49 332.88 325.6 354.75 149.16 456.73"/>
          <line class="cls-5" x1="396.49" y1="354.31" x2="184.59" y2="476.52"/>
          <line class="cls-5" x1="469.07" y1="353.04" x2="218.98" y2="497.37"/>
          <line class="cls-5" x1="447.19" y1="406.34" x2="428.96" y2="416.87"/>
        </g>
      </g>
      <g>
        <path class="cls-5" d="M207.02,127.87c0-1.43-.16-2.71-.47-3.85-.32-1.18-.78-2.2-1.38-3.04-.61-.86-1.35-1.54-2.2-2.03-.85-.49-1.81-.79-2.86-.89-1.03-.09-2.15,0-3.33.32-1.14.31-2.34.81-3.57,1.52-1.23.71-2.43,1.59-3.57,2.6-1.18,1.05-2.3,2.23-3.33,3.52-1.05,1.3-2.01,2.71-2.86,4.19-.85,1.47-1.59,3.01-2.2,4.57-.6,1.54-1.07,3.1-1.38,4.64-.31,1.49-.47,2.97-.47,4.4,0,1.43.16,2.71.47,3.85.32,1.18.78,2.2,1.38,3.04.61.86,1.35,1.54,2.2,2.03.85.49,1.81.79,2.86.89,1.03.09,2.15,0,3.33-.32,1.14-.31,2.34-.81,3.57-1.52,1.23-.71,2.43-1.59,3.57-2.6,1.18-1.05,2.3-2.23,3.33-3.52,1.05-1.3,2.01-2.71,2.86-4.19.85-1.47,1.59-3.01,2.2-4.57.6-1.54,1.07-3.1,1.38-4.64.31-1.49.47-2.97.47-4.4Z"/>
        <path class="cls-5" d="M183.45,152.74c-.85-.49-1.59-1.17-2.2-2.03-.6-.85-1.07-1.87-1.38-3.04-.31-1.14-.47-2.43-.47-3.85,0-1.43.16-2.9.47-4.4.32-1.54.78-3.1,1.38-4.64.61-1.56,1.35-3.09,2.2-4.57.85-1.47,1.81-2.88,2.86-4.19,1.03-1.29,2.15-2.47,3.33-3.52,1.14-1.01,2.34-1.89,3.57-2.6,1.23-.71,2.43-1.22,3.57-1.52,1.18-.32,2.3-.42,3.33-.32,1.05.1,2.01.4,2.86.89l-2.31-1.33c-.85-.49-1.81-.79-2.86-.89-1.03-.09-2.15,0-3.33.32-1.14.31-2.34.81-3.57,1.52-1.23.71-2.43,1.59-3.57,2.6-1.18,1.05-2.3,2.23-3.33,3.52-1.05,1.3-2.01,2.71-2.86,4.19-.85,1.47-1.59,3.01-2.2,4.57-.6,1.54-1.07,3.1-1.38,4.64-.31,1.49-.47,2.97-.47,4.4,0,1.43.16,2.71.47,3.85.32,1.18.78,2.2,1.38,3.04.61.86,1.35,1.54,2.2,2.03l2.31,1.33Z"/>
        <path class="cls-7" d="M193.21,149.79c1.08-.62,2.13-1.39,3.13-2.28,1.03-.91,2.01-1.95,2.91-3.08.92-1.14,1.76-2.37,2.5-3.66.74-1.29,1.39-2.63,1.92-4,.52-1.35.93-2.71,1.21-4.06.27-1.31.41-2.6.41-3.85,0-1.25-.14-2.38-.41-3.38-.28-1.03-.68-1.93-1.21-2.67-.53-.75-1.18-1.35-1.92-1.78-.74-.43-1.58-.69-2.5-.77-.9-.08-1.88.01-2.91.29-1,.27-2.05.71-3.13,1.33-1.08.62-2.13,1.39-3.13,2.28-1.03.91-2.01,1.95-2.91,3.08-.92,1.14-1.76,2.37-2.5,3.66-.74,1.29-1.39,2.63-1.92,4-.52,1.35-.93,2.71-1.21,4.06-.27,1.31-.41,2.6-.41,3.85,0,1.25.14,2.38.41,3.38.28,1.03.68,1.92,1.21,2.67.53.75,1.18,1.35,1.92,1.78.74.43,1.58.69,2.5.77.9.08,1.88-.01,2.91-.29,1-.27,2.05-.71,3.13-1.33Z"/>
        <path class="cls-5" d="M186,150.74c.9.08,1.88-.01,2.91-.29,1-.27,2.05-.71,3.13-1.33,1.08-.62,2.13-1.39,3.13-2.28,1.03-.91,2.01-1.95,2.91-3.08.92-1.14,1.76-2.37,2.5-3.66.74-1.29,1.39-2.63,1.92-4,.52-1.35.93-2.71,1.21-4.06.27-1.31.41-2.6.41-3.85,0-1.25-.14-2.38-.41-3.38-.28-1.03-.68-1.92-1.21-2.67"/>
        <line class="cls-5" x1="197.55" y1="120.63" x2="196.46" y2="123.42"/>
        <line class="cls-5" x1="201.73" y1="122.91" x2="199.85" y2="125.25"/>
        <line class="cls-5" x1="203.27" y1="128.47" x2="199.81" y2="130.47"/>
        <line class="cls-5" x1="191.86" y1="122.76" x2="191.86" y2="126.31"/>
        <line class="cls-5" x1="201.86" y1="135.74" x2="200.1" y2="135.58"/>
        <line class="cls-5" x1="197.84" y1="142.89" x2="196.83" y2="141.45"/>
        <line class="cls-5" x1="192.23" y1="148.03" x2="192.23" y2="144.02"/>
        <line class="cls-5" x1="186.54" y1="149.7" x2="187.63" y2="146.91"/>
        <line class="cls-5" x1="182.36" y1="147.42" x2="184.24" y2="145.08"/>
        <line class="cls-5" x1="181.17" y1="141.66" x2="184.28" y2="139.86"/>
        <line class="cls-5" x1="182.85" y1="134.64" x2="183.99" y2="134.75"/>
        <line class="cls-5" x1="186.61" y1="127.96" x2="187.26" y2="128.88"/>
        <path class="cls-5" d="M193.21,149.79c1.08-.62,2.13-1.39,3.13-2.28,1.03-.91,2.01-1.95,2.91-3.08.92-1.14,1.76-2.37,2.5-3.66.74-1.29,1.39-2.63,1.92-4,.52-1.35.93-2.71,1.21-4.06.27-1.31.41-2.6.41-3.85,0-1.25-.14-2.38-.41-3.38-.28-1.03-.68-1.93-1.21-2.67-.53-.75-1.18-1.35-1.92-1.78-.74-.43-1.58-.69-2.5-.77-.9-.08-1.88.01-2.91.29-1,.27-2.05.71-3.13,1.33-1.08.62-2.13,1.39-3.13,2.28-1.03.91-2.01,1.95-2.91,3.08-.92,1.14-1.76,2.37-2.5,3.66-.74,1.29-1.39,2.63-1.92,4-.52,1.35-.93,2.71-1.21,4.06-.27,1.31-.41,2.6-.41,3.85,0,1.25.14,2.38.41,3.38.28,1.03.68,1.92,1.21,2.67.53.75,1.18,1.35,1.92,1.78.74.43,1.58.69,2.5.77.9.08,1.88-.01,2.91-.29,1-.27,2.05-.71,3.13-1.33Z"/>
        <line class="cls-5" x1="192.74" y1="135.73" x2="185.91" y2="130.09"/>
        <line class="cls-5" x1="192.51" y1="133.7" x2="188.73" y2="146.12"/>
      </g>
      <g>
        <polygon class="cls-3" points="305.3 101.5 329.46 115.44 329.81 115.24 305.65 101.3 305.3 101.5"/>
        <line class="cls-5" x1="329.81" y1="160.28" x2="334.43" y2="157.61"/>
        <line class="cls-5" x1="347.95" y1="170.75" x2="330.29" y2="160.56"/>
        <path class="cls-5" d="M335.81,151.15v9.05c0,.88.58,1.75,1.74,2.42,1.16.67,2.68,1,4.2,1s3.04-.33,4.2-1c1.16-.67,1.74-1.55,1.74-2.42v-3.11"/>
        <path class="cls-5" d="M343.17,154.48c-.47.07-.95.1-1.42.1-1.52,0-3.04-.33-4.2-1-1.16-.67-1.74-1.55-1.74-2.42,0-.26.05-.52.15-.77"/>
        <path class="cls-5" d="M335.81,152.65c0,.88.58,1.75,1.74,2.42,1.16.67,2.68,1,4.2,1,1.06,0,2.12-.16,3.06-.49"/>
        <line class="cls-5" x1="329.81" y1="145.27" x2="331.43" y2="144.33"/>
        <line class="cls-5" x1="347.95" y1="155.74" x2="330.29" y2="145.55"/>
        <line class="cls-5" x1="329.81" y1="130.26" x2="331.47" y2="129.3"/>
        <line class="cls-5" x1="347.95" y1="140.73" x2="330.29" y2="130.54"/>
        <polyline class="cls-5" points="341.9 126.75 341.9 135.3 332.65 129.96 332.65 121.41"/>
        <line class="cls-5" x1="348.52" y1="131.48" x2="341.9" y2="135.3"/>
        <polyline class="cls-5" points="344.76 125.1 341.9 126.75 332.65 121.41 335.51 119.76"/>
        <polyline class="cls-5" points="332.65 121.41 334.64 127.7 339.62 130.42 341.9 126.75"/>
        <line class="cls-5" x1="431.42" y1="209.22" x2="422.95" y2="214.11"/>
        <line class="cls-5" x1="461.24" y1="214.66" x2="448.43" y2="207.26"/>
        <path class="cls-5" d="M423.75,214.9c10.52,6.08,27.36,6.25,38.28.55"/>
        <path class="cls-5" d="M432.76,204.99v8.1c0,1.08.71,2.16,2.14,2.99,1.43.83,3.3,1.24,5.18,1.24s3.75-.41,5.18-1.24c1.43-.83,2.14-1.91,2.14-2.99v-7.2"/>
        <path class="cls-5" d="M442.88,205.84c-.9.21-1.85.32-2.8.32-1.63,0-3.25-.31-4.59-.93-.2-.09-.4-.2-.59-.31"/>
        <path class="cls-5" d="M433,204.88c.32.7.95,1.35,1.9,1.9,1.43.83,3.3,1.24,5.18,1.24s3.75-.41,5.18-1.24c.46-.27.85-.56,1.16-.87"/>
        <line class="cls-5" x1="431.53" y1="194.14" x2="422.95" y2="199.09"/>
        <line class="cls-5" x1="461.24" y1="199.65" x2="457.35" y2="197.4"/>
        <path class="cls-5" d="M423.75,199.89c10.52,6.08,27.36,6.25,38.28.55"/>
        <line class="cls-5" x1="454.11" y1="191.32" x2="454.11" y2="189.82"/>
        <line class="cls-5" x1="454.11" y1="196.57" x2="454.11" y2="194.28"/>
        <path class="cls-5" d="M443.93,198.76c0,.26.06.51.17.76.11.25.28.48.51.71.22.22.49.42.81.61.32.19.68.34,1.05.47.39.13.8.23,1.23.29.43.07.87.1,1.32.1s.89-.03,1.32-.1c.43-.07.84-.16,1.23-.29.38-.13.73-.28,1.05-.47.32-.19.59-.39.81-.61.23-.23.39-.46.51-.71.12-.25.17-.51.17-.76"/>
        <line class="cls-5" x1="443.93" y1="190.99" x2="443.93" y2="192.66"/>
        <path class="cls-5" d="M453.23,197.58c.33.12.63.18.91.18.39,0,1.64-.14,1.64-1.99,0-.92-1-2.89-2.37-3.74"/>
        <path class="cls-5" d="M444.98,190.76c.14.1.28.2.44.29.32.19.68.34,1.05.47.39.13.8.23,1.23.29.43.07.87.1,1.32.1s.89-.03,1.32-.1c.43-.07.84-.16,1.23-.29.38-.13.73-.28,1.05-.47.32-.19.59-.39.81-.61.23-.23.39-.46.51-.71"/>
        <path class="cls-5" d="M432.77,189.83v9.32c0,.26.06.51.17.76.11.25.28.48.51.71.22.22.49.42.81.61.32.19.68.34,1.05.47.39.13.8.23,1.23.29.43.07.87.1,1.32.1s.89-.03,1.32-.1c.43-.07.84-.16,1.23-.29.38-.13.73-.28,1.05-.47.32-.19.59-.39.81-.61.23-.23.39-.46.51-.71.12-.25.17-.51.17-.76v-8.13"/>
        <path class="cls-5" d="M442.07,197.97c.33.12.63.18.91.18.39,0,1.64-.14,1.64-1.99,0-.92-1-2.89-2.37-3.74"/>
        <path class="cls-5" d="M432.94,190.13c.11.25.28.48.51.71.22.22.49.42.81.61.32.19.68.34,1.05.47.39.13.8.23,1.23.29.43.07.87.1,1.32.1s.89-.03,1.32-.1c.43-.07.84-.16,1.23-.29.38-.13.73-.28,1.05-.47.32-.19.59-.39.81-.61"/>
        <line class="cls-5" x1="433.17" y1="178.19" x2="422.95" y2="184.08"/>
        <line class="cls-5" x1="438.1" y1="175.34" x2="437.24" y2="175.83"/>
        <line class="cls-5" x1="446.14" y1="175.92" x2="445.13" y2="175.34"/>
        <line class="cls-5" x1="461.24" y1="184.64" x2="453.43" y2="180.13"/>
        <path class="cls-5" d="M423.75,184.88c10.52,6.08,27.36,6.25,38.28.55"/>
        <path class="cls-5" d="M422.95,169.07c10.87,6.27,28.48,6.27,39.35,0"/>
        <line class="cls-5" x1="462.3" y1="215.3" x2="462.3" y2="169.47"/>
        <g>
          <path class="cls-5" d="M439.1,177.99v3.99c0,.36-.24.72-.71,1-.48.28-1.1.41-1.73.41s-1.25-.14-1.73-.41c-.48-.28-.71-.64-.71-1v-3.99"/>
          <path class="cls-5" d="M438.38,176.99c-.48-.28-1.1-.41-1.73-.41s-1.25.14-1.73.41c-.48.28-.71.64-.71,1s.24.72.71,1c.48.28,1.1.41,1.73.41s1.25-.14,1.73-.41.71-.64.71-1-.24-.72-.71-1Z"/>
        </g>
        <g>
          <path class="cls-5" d="M444.43,178.63v3.99c0,.36-.24.72-.71,1-.48.28-1.1.41-1.73.41s-1.25-.14-1.73-.41c-.48-.28-.71-.64-.71-1v-3.99"/>
          <path class="cls-5" d="M443.71,177.64c-.48-.28-1.1-.41-1.73-.41s-1.25.14-1.73.41c-.48.28-.71.64-.71,1s.24.72.71,1c.48.28,1.1.41,1.73.41s1.25-.14,1.73-.41c.48-.28.71-.64.71-1s-.24-.72-.71-1Z"/>
        </g>
        <g>
          <path class="cls-5" d="M449.85,178.11v3.99c0,.36-.24.72-.71,1-.48.28-1.1.41-1.73.41s-1.25-.14-1.73-.41c-.48-.28-.71-.64-.71-1v-3.99"/>
          <path class="cls-5" d="M449.13,177.12c-.48-.28-1.1-.41-1.73-.41s-1.25.14-1.73.41c-.48.28-.71.64-.71,1s.24.72.71,1c.48.28,1.1.41,1.73.41s1.25-.14,1.73-.41c.48-.28.71-.64.71-1s-.24-.72-.71-1Z"/>
        </g>
        <line class="cls-5" x1="462.3" y1="169.07" x2="325.28" y2="89.96"/>
        <line class="cls-5" x1="305.65" y1="101.3" x2="325.28" y2="89.96"/>
        <line class="cls-5" x1="305.65" y1="101.3" x2="423" y2="169.05"/>
        <polygon class="cls-5" points="328.73 115.87 304.57 101.92 304.57 148.15 328.73 162.1 328.73 115.87"/>
        <polygon class="cls-5" points="373.6 141.77 349.44 127.82 349.44 174.05 373.6 188 373.6 141.77"/>
        <polyline class="cls-5" points="397.76 155.72 373.6 141.77 373.6 188 397.76 201.95"/>
        <polyline class="cls-5" points="397.76 200.71 397.76 201.95 421.92 215.9 421.92 169.67 397.76 155.72 397.76 182.08"/>
        <line class="cls-5" x1="329.81" y1="161.47" x2="329.81" y2="115.24"/>
        <line class="cls-5" x1="423" y1="215.28" x2="423" y2="169.05"/>
        <g>
          <line class="cls-5" x1="326.91" y1="155.57" x2="325.8" y2="154.92"/>
          <polyline class="cls-5" points="325.98 156.1 326.91 155.57 326.91 157.86 326.85 157.89 326.5 158.09 326.25 158.24"/>
          <polyline class="cls-5" points="326.85 140.36 326.91 140.33 326.91 142.62 326.11 143.03"/>
          <path class="cls-5" d="M326.25,140.7c-.97,2.27-1.82,6.29-1.82,9.62s.85,6.76,1.82,7.92l-1.34-.78c-.97-1.15-1.82-4.59-1.82-7.92s.85-7.34,1.82-9.62l1.34.78Z"/>
          <line class="cls-5" x1="326.25" y1="140.7" x2="326.91" y2="140.33"/>
          <line class="cls-5" x1="325.56" y1="139.55" x2="324.91" y2="139.93"/>
        </g>
        <g>
          <line class="cls-5" x1="371.77" y1="181.47" x2="370.66" y2="180.83"/>
          <polyline class="cls-5" points="370.85 182 371.77 181.47 371.77 183.77 371.72 183.8 371.37 184 371.12 184.14"/>
          <polyline class="cls-5" points="371.72 166.26 371.77 166.23 371.77 168.53 370.97 168.93"/>
          <path class="cls-5" d="M371.12,166.61c-.97,2.27-1.82,6.29-1.82,9.62s.85,6.76,1.82,7.92l-1.34-.78c-.97-1.15-1.82-4.59-1.82-7.92s.85-7.34,1.82-9.62l1.34.78Z"/>
          <line class="cls-5" x1="371.12" y1="166.61" x2="371.77" y2="166.23"/>
          <line class="cls-5" x1="370.43" y1="165.45" x2="369.78" y2="165.83"/>
        </g>
        <g>
          <line class="cls-5" x1="395.93" y1="195.42" x2="394.82" y2="194.78"/>
          <polyline class="cls-5" points="395.01 195.95 395.93 195.42 395.93 197.71 395.88 197.75 395.53 197.95 395.28 198.09"/>
          <polyline class="cls-5" points="395.88 180.21 395.93 180.18 395.93 182.47 395.13 182.88"/>
          <path class="cls-5" d="M395.28,180.56c-.97,2.27-1.82,6.29-1.82,9.62s.85,6.76,1.82,7.92l-1.34-.78c-.97-1.15-1.82-4.59-1.82-7.92s.85-7.34,1.82-9.62l1.34.78Z"/>
          <line class="cls-5" x1="395.28" y1="180.56" x2="395.93" y2="180.18"/>
          <line class="cls-5" x1="394.59" y1="179.4" x2="393.94" y2="179.78"/>
        </g>
        <g>
          <line class="cls-5" x1="400.91" y1="198.29" x2="399.8" y2="197.65"/>
          <polyline class="cls-5" points="399.99 198.82 400.91 198.29 400.91 200.59 400.85 200.62 400.51 200.82 400.26 200.96"/>
          <polyline class="cls-5" points="400.85 183.09 400.91 183.05 400.91 185.35 400.11 185.76"/>
          <path class="cls-5" d="M400.26,183.43c-.97,2.27-1.82,6.29-1.82,9.62s.85,6.76,1.82,7.92l-1.34-.78c-.97-1.15-1.82-4.59-1.82-7.92s.85-7.34,1.82-9.62l1.34.78Z"/>
          <line class="cls-5" x1="400.26" y1="183.43" x2="400.91" y2="183.05"/>
          <line class="cls-5" x1="399.57" y1="182.28" x2="398.91" y2="182.65"/>
        </g>
        <polyline class="cls-5" points="338.59 136.86 332.78 140.21 336.23 142.21 341.79 139"/>
        <polyline class="cls-5" points="342.83 139.51 337.69 142.47 341.15 144.46 346.22 141.54"/>
        <polyline class="cls-5" points="332.78 140.21 332.78 144.2 336.23 146.19 336.23 142.21"/>
        <polyline class="cls-5" points="337.69 142.47 337.69 146.46 341.15 148.45 341.15 144.46"/>
        <line class="cls-5" x1="337.19" y1="145.63" x2="336.23" y2="146.19"/>
        <polyline class="cls-5" points="348.05 142.21 348.05 144.46 341.15 148.45"/>
        <g>
          <path class="cls-1" d="M436.41,181.33v3.99c0,.36-.24.72-.71,1-.48.28-1.1.41-1.73.41s-1.25-.14-1.73-.41-.71-.64-.71-1v-3.99"/>
          <path class="cls-1" d="M435.69,180.33c-.48-.28-1.1-.41-1.73-.41s-1.25.14-1.73.41c-.48.28-.71.64-.71,1s.24.72.71,1c.48.28,1.1.41,1.73.41s1.25-.14,1.73-.41c.48-.28.71-.64.71-1s-.24-.72-.71-1Z"/>
        </g>
        <g>
          <path class="cls-1" d="M441.74,181.98v3.99c0,.36-.24.72-.71,1-.48.28-1.1.41-1.73.41s-1.25-.14-1.73-.41-.71-.64-.71-1v-3.99"/>
          <path class="cls-1" d="M441.02,180.98c-.48-.28-1.1-.41-1.73-.41s-1.25.14-1.73.41c-.48.28-.71.64-.71,1s.24.72.71,1c.48.28,1.1.41,1.73.41s1.25-.14,1.73-.41c.48-.28.71-.64.71-1s-.24-.72-.71-1Z"/>
        </g>
        <g>
          <path class="cls-1" d="M447.16,181.45v3.99c0,.36-.24.72-.71,1-.48.28-1.1.41-1.73.41s-1.25-.14-1.73-.41c-.48-.28-.71-.64-.71-1v-3.99"/>
          <path class="cls-1" d="M446.44,180.46c-.48-.28-1.1-.41-1.73-.41s-1.25.14-1.73.41c-.48.28-.71.64-.71,1s.24.72.71,1c.48.28,1.1.41,1.73.41s1.25-.14,1.73-.41c.48-.28.71-.64.71-1s-.24-.72-.71-1Z"/>
        </g>
        <g>
          <path class="cls-1" d="M452.38,180.74v3.99c0,.36-.24.72-.71,1-.48.28-1.1.41-1.73.41-.62,0-1.25-.14-1.73-.41-.48-.28-.71-.64-.71-1v-3.99"/>
          <path class="cls-1" d="M451.67,179.74c-.48-.28-1.1-.41-1.73-.41s-1.25.14-1.73.41c-.48.28-.71.64-.71,1s.24.72.71,1c.48.28,1.1.41,1.73.41s1.25-.14,1.73-.41c.48-.28.71-.64.71-1s-.24-.72-.71-1Z"/>
        </g>
      </g>
      <g>
        <g>
          <polyline class="cls-1" points="202.42 236.46 202.42 304.21 243.84 280.3 243.84 223.33"/>
          <polygon class="cls-1" points="202.42 240.54 202.42 247.13 243.84 223.22 243.84 212.55 202.42 236.46 202.42 240.54"/>
          <polygon class="cls-1" points="202.42 236.46 243.84 212.55 202.42 188.63 161.01 212.55 202.42 236.46"/>
          <polyline class="cls-1" points="237.4 233.55 237.4 232.9 214.45 246.15"/>
          <polygon class="cls-1" points="214.45 250.89 242.98 234.42 242.98 232.82 214.45 249.3 214.45 250.89"/>
          <polygon class="cls-1" points="208.87 247.66 214.45 250.89 214.45 249.3 208.87 246.07 208.87 247.66"/>
          <polyline class="cls-1" points="236.02 230.39 236.02 231.99 238.13 233.21"/>
          <polygon class="cls-1" points="208.87 246.07 210.25 245.27 214.45 247.7 240.22 232.82 236.02 230.39 237.4 229.6 242.98 232.82 214.45 249.3 208.87 246.07"/>
          <polygon class="cls-1" points="217.96 235.53 228.31 229.55 228.31 224.36 217.96 230.34 217.96 235.53"/>
          <path class="cls-1" d="M238.26,221.28c-.38.98-.15,1.83.51,1.89.66.06,1.5-.69,1.89-1.67.38-.98.16-1.83-.51-1.89-.66-.06-1.5.69-1.89,1.67Z"/>
          <path class="cls-1" d="M240.15,219.61h-1.59c-.66-.06-1.5.69-1.89,1.67-.38.98-.15,1.83.51,1.89h1.59"/>
          <path class="cls-1" d="M232.7,224.49c-.38.98-.15,1.83.51,1.89.66.06,1.5-.69,1.89-1.67.38-.98.16-1.83-.51-1.89-.66-.06-1.5.69-1.89,1.67Z"/>
          <path class="cls-1" d="M234.58,222.82h-1.59c-.66-.06-1.5.69-1.89,1.67-.38.98-.15,1.83.51,1.89h1.59"/>
          <path class="cls-1" d="M214.14,235.2c-.38.98-.15,1.83.51,1.89.66.06,1.5-.69,1.89-1.67.38-.98.16-1.83-.51-1.89-.66-.06-1.5.69-1.89,1.67Z"/>
          <path class="cls-1" d="M216.03,233.53h-1.59c-.66-.06-1.5.69-1.89,1.67-.38.98-.15,1.83.51,1.89h1.59"/>
          <path class="cls-1" d="M208.58,238.42c-.38.98-.15,1.83.51,1.89.66.06,1.5-.69,1.89-1.67.38-.98.16-1.83-.51-1.89-.66-.06-1.5.69-1.89,1.67Z"/>
          <path class="cls-1" d="M210.46,236.74h-1.59c-.66-.06-1.5.69-1.89,1.67-.38.98-.15,1.83.51,1.89h1.59"/>
        </g>
        <g>
          <path class="cls-1" d="M175.01,318.59l-41.26-24.96-.16-64.88,41.42,26.53v63.31l27.26-14.28v-64.09l-26.74,14.99h.37c-.19.11-.45.09-.73-.07"/>
          <polygon class="cls-1" points="175.37 312.01 202.27 298.06 202.27 240.23 175.01 255.28 175.37 312.01"/>
          <path class="cls-1" d="M161.21,212.81l41.56,24c.57.33,1.04,1.13,1.04,1.79,0,.33-.12.56-.3.67l-28.59,15.8c.19-.11-41.32-26.32-41.32-26.32l27.61-15.94Z"/>
          <g>
            <line class="cls-5" x1="196.9" y1="260.29" x2="198.01" y2="259.65"/>
            <polyline class="cls-5" points="197.82 260.83 196.9 260.29 196.9 262.59 196.96 262.62 197.3 262.82 197.55 262.97"/>
            <polyline class="cls-5" points="196.96 245.09 196.9 245.05 196.9 247.35 197.7 247.76"/>
            <path class="cls-5" d="M197.55,245.43c.97,2.27,1.82,6.29,1.82,9.62,0,3.33-.85,6.76-1.82,7.92l1.34-.78c.97-1.15,1.82-4.59,1.82-7.92,0-3.33-.85-7.34-1.82-9.62l-1.34.78Z"/>
            <line class="cls-5" x1="197.55" y1="245.43" x2="196.9" y2="245.05"/>
            <line class="cls-5" x1="198.25" y1="244.28" x2="198.9" y2="244.65"/>
          </g>
        </g>
      </g>
      <g>
        <g>
          <g>
            <line class="cls-1" x1="320.21" y1="317.38" x2="318.63" y2="318.29"/>
            <polyline class="cls-1" points="318.63 297.09 318.63 318.29 277.21 294.38 277.21 273.17"/>
            <polyline class="cls-1" points="318.63 254.63 318.63 261.22 277.21 237.31 277.21 226.63 318.63 250.54"/>
            <polygon class="cls-1" points="318.63 297.09 277.21 273.17 277.21 237.31 318.63 261.22 318.63 297.09"/>
            <polygon class="cls-1" points="318.63 250.54 277.21 226.63 318.63 202.72 360.05 226.63 318.63 250.54"/>
            <path class="cls-1" d="M311.15,226.65c0-3.37-4.75-6.12-10.59-6.12-5.84,0-10.59,2.74-10.59,6.12,0,3.37,4.75,6.12,10.59,6.12s10.59-2.74,10.59-6.12Z"/>
            <ellipse class="cls-1" cx="316.25" cy="237.46" rx="8.27" ry="4.78"/>
            <path class="cls-1" d="M317.43,221.74c5.84,0,10.59-2.74,10.59-6.12s-4.75-6.12-10.59-6.12-10.59,2.74-10.59,6.12c0,3.37,4.75,6.12,10.59,6.12Z"/>
            <path class="cls-1" d="M333.81,219.62c-7.35,0-13.34,3.45-13.34,7.7,0,4.25,5.98,7.7,13.34,7.7,7.35,0,13.34-3.45,13.34-7.7,0-4.25-5.98-7.7-13.34-7.7Z"/>
            <path class="cls-1" d="M316.25,241.13c-3.59,0-6.51-1.65-6.51-3.68s2.92-3.68,6.51-3.68,6.51,1.65,6.51,3.68-2.92,3.68-6.51,3.68ZM316.25,234.51c-2.73,0-4.96,1.32-4.96,2.95s2.22,2.95,4.96,2.95,4.96-1.32,4.96-2.95-2.22-2.95-4.96-2.95ZM333.81,233.92c-6.38,0-11.58-2.96-11.58-6.6s5.19-6.6,11.58-6.6,11.58,2.96,11.58,6.6-5.19,6.6-11.58,6.6ZM333.81,221.45c-5.53,0-10.02,2.63-10.02,5.87s4.5,5.87,10.02,5.87,10.02-2.63,10.02-5.87-4.5-5.87-10.02-5.87ZM300.56,231.66c-2.38,0-4.61-.53-6.29-1.5-1.64-.95-2.54-2.2-2.54-3.51,0-2.76,3.96-5.01,8.83-5.01s8.83,2.25,8.83,5.01-3.96,5.01-8.83,5.01ZM300.56,222.36c-4.01,0-7.28,1.92-7.28,4.29s3.26,4.29,7.28,4.29,7.28-1.92,7.28-4.29-3.26-4.29-7.28-4.29ZM317.43,220.64c-4.87,0-8.83-2.25-8.83-5.01s3.96-5.01,8.83-5.01,8.83,2.25,8.83,5.01-3.96,5.01-8.83,5.01ZM317.43,211.34c-4.01,0-7.28,1.92-7.28,4.29s3.26,4.29,7.28,4.29,7.28-1.92,7.28-4.29-3.26-4.29-7.28-4.29Z"/>
            <polyline class="cls-1" points="283.66 247.64 283.66 246.99 306.61 260.24"/>
            <polyline class="cls-1" points="311.57 263.1 312.19 263.46 312.19 286.72 283.66 270.25 283.66 252.89"/>
            <polygon class="cls-1" points="306.6 264.97 278.07 248.5 278.07 246.91 306.6 263.38 306.6 264.97"/>
            <polygon class="cls-1" points="312.19 261.75 306.6 264.97 306.6 263.38 312.19 260.15 312.19 261.75"/>
            <polyline class="cls-1" points="285.04 244.48 285.04 246.07 282.93 247.29"/>
            <polygon class="cls-1" points="312.19 260.15 310.81 259.36 306.6 261.79 280.83 246.91 285.04 244.48 283.66 243.68 278.07 246.91 306.6 263.38 312.19 260.15"/>
            <polygon class="cls-1" points="303.1 249.61 292.74 243.63 292.74 238.44 303.1 244.42 303.1 249.61"/>
            <path class="cls-1" d="M282.79,235.36c.38.98.15,1.83-.51,1.89-.66.06-1.5-.69-1.89-1.67-.38-.98-.16-1.83.51-1.89.66-.06,1.5.69,1.89,1.67Z"/>
            <path class="cls-1" d="M280.91,233.69h1.59c.66-.06,1.5.69,1.89,1.67s.15,1.83-.51,1.89h-1.59"/>
            <path class="cls-1" d="M288.36,238.57c.38.98.15,1.83-.51,1.89-.66.06-1.5-.69-1.89-1.67-.38-.98-.16-1.83.51-1.89.66-.06,1.5.69,1.89,1.67Z"/>
            <path class="cls-1" d="M286.47,236.9h1.59c.66-.06,1.5.69,1.89,1.67.38.98.15,1.83-.51,1.89h-1.59"/>
            <path class="cls-1" d="M306.91,249.29c.38.98.15,1.83-.51,1.89-.66.06-1.5-.69-1.89-1.67-.38-.98-.16-1.83.51-1.89.66-.06,1.5.69,1.89,1.67Z"/>
            <path class="cls-1" d="M305.03,247.62h1.59c.66-.06,1.5.69,1.89,1.67.38.98.15,1.83-.51,1.89h-1.59"/>
            <path class="cls-1" d="M312.48,252.5c.38.98.15,1.83-.51,1.89s-1.5-.69-1.89-1.67c-.38-.98-.16-1.83.51-1.89.66-.06,1.5.69,1.89,1.67Z"/>
            <path class="cls-1" d="M310.59,250.83h1.59c.66-.06,1.5.69,1.89,1.67.38.98.15,1.83-.51,1.89h-1.59"/>
          </g>
          <g>
            <polyline class="cls-1" points="380.21 352.02 361.63 341.29 361.63 335.53"/>
            <polygon class="cls-1" points="409.58 306.13 360.25 277.64 360.25 334.12 383.07 347.3 409.58 361.58 409.58 306.13"/>
            <polygon class="cls-1" points="447.19 277.49 401.46 250.54 360.18 277.49 409.67 306.15 447.19 277.49"/>
            <path class="cls-1" d="M392.27,285.55l10.62-6.13c2.28-1.32,6-1.32,8.28,0l6.27,3.62"/>
            <line class="cls-1" x1="360.05" y1="274.45" x2="401.46" y2="250.54"/>
            <path class="cls-5" d="M424.38,273.94l-19.55-11.52c-1.51-.89-3.4-.85-4.87.11l-16.53,10.79c-2.88,1.88-2.77,6.14.21,7.87l21.07,12.2c1.62.94,3.64.81,5.12-.33l15.01-11.47c2.61-1.99,2.37-5.99-.46-7.65Z"/>
          </g>
          <g>
            <line class="cls-1" x1="385.8" y1="321.19" x2="384.69" y2="320.55"/>
            <polyline class="cls-1" points="384.88 321.72 385.8 321.19 385.8 323.49 385.74 323.52 385.4 323.72 385.15 323.86"/>
            <polyline class="cls-1" points="385.74 305.98 385.8 305.95 385.8 308.25 385 308.65"/>
            <path class="cls-1" d="M385.15,306.33c-.97,2.27-1.82,6.29-1.82,9.62s.85,6.76,1.82,7.92l-1.34-.78c-.97-1.15-1.82-4.59-1.82-7.92s.85-7.34,1.82-9.62l1.34.78Z"/>
            <line class="cls-1" x1="385.15" y1="306.33" x2="385.8" y2="305.95"/>
            <line class="cls-1" x1="384.46" y1="305.18" x2="383.8" y2="305.55"/>
          </g>
          <g>
            <line class="cls-1" x1="391.38" y1="324.41" x2="390.27" y2="323.77"/>
            <polyline class="cls-1" points="390.46 324.95 391.38 324.41 391.38 326.71 391.32 326.74 390.98 326.94 390.73 327.09"/>
            <polyline class="cls-1" points="391.32 309.21 391.38 309.17 391.38 311.47 390.58 311.88"/>
            <path class="cls-1" d="M390.73,309.55c-.97,2.27-1.82,6.29-1.82,9.62s.85,6.76,1.82,7.92l-1.34-.78c-.97-1.15-1.82-4.59-1.82-7.92s.85-7.34,1.82-9.62l1.34.78Z"/>
            <line class="cls-1" x1="390.73" y1="309.55" x2="391.38" y2="309.17"/>
            <line class="cls-1" x1="390.04" y1="308.4" x2="389.39" y2="308.77"/>
          </g>
          <g>
            <path class="cls-8" d="M318.83,253.53v56.68l41.35,22.58-.28-55.86c-.29.17-.54.18-.73.07"/>
            <path class="cls-1" d="M360.05,226.63l-41.56,24c-.57.33-1.04,1.13-1.04,1.79,0,.33.12.56.3.67l42.42,24.4,41.29-26.95-41.42-23.91Z"/>
            <line class="cls-1" x1="324.89" y1="254.32" x2="354.99" y2="271.7"/>
            <g>
              <polyline class="cls-1" points="332.25 266.99 333.33 266.37 332.44 265.85 331.52 265.32"/>
              <polyline class="cls-1" points="348.09 274.28 347.18 273.75 346.29 273.23 345.22 273.85"/>
              <path class="cls-1" d="M347.02,274.89c-3.68-.17-7.6-1.2-10.78-3.04-3.18-1.84-4.96-4.1-5.26-6.22v1.59c.3,2.13,2.08,4.39,5.26,6.22,3.18,1.84,7.1,2.87,10.78,3.04v-1.59Z"/>
              <line class="cls-1" x1="333.33" y1="266.37" x2="333.33" y2="267.96"/>
              <line class="cls-1" x1="331.52" y1="265.32" x2="330.98" y2="265.63"/>
              <line class="cls-1" x1="348.09" y1="274.28" x2="347.02" y2="274.89"/>
              <line class="cls-1" x1="348.09" y1="275.87" x2="347.02" y2="276.49"/>
            </g>
            <g>
              <polyline class="cls-1" points="332.25 279.17 333.33 278.55 332.44 278.04 331.52 277.51"/>
              <polyline class="cls-1" points="348.09 286.46 347.18 285.93 346.29 285.42 345.22 286.04"/>
              <path class="cls-1" d="M347.02,287.08c-3.68-.17-7.6-1.2-10.78-3.04-3.18-1.84-4.96-4.1-5.26-6.22v1.59c.3,2.13,2.08,4.39,5.26,6.22,3.18,1.84,7.1,2.87,10.78,3.04v-1.59Z"/>
              <line class="cls-1" x1="333.33" y1="278.55" x2="333.33" y2="280.15"/>
              <line class="cls-1" x1="331.52" y1="277.51" x2="330.98" y2="277.82"/>
              <line class="cls-1" x1="348.09" y1="286.46" x2="347.02" y2="287.08"/>
              <line class="cls-1" x1="348.09" y1="288.06" x2="347.02" y2="288.67"/>
            </g>
            <g>
              <polyline class="cls-1" points="332.25 291.36 333.33 290.74 332.44 290.23 331.52 289.7"/>
              <polyline class="cls-1" points="348.09 298.65 347.18 298.12 346.29 297.6 345.22 298.22"/>
              <path class="cls-1" d="M347.02,299.27c-3.68-.17-7.6-1.2-10.78-3.04-3.18-1.84-4.96-4.1-5.26-6.22v1.59c.3,2.13,2.08,4.39,5.26,6.22,3.18,1.84,7.1,2.87,10.78,3.04v-1.59Z"/>
              <line class="cls-1" x1="333.33" y1="290.74" x2="333.33" y2="292.33"/>
              <line class="cls-1" x1="331.52" y1="289.7" x2="330.98" y2="290.01"/>
              <line class="cls-1" x1="348.09" y1="298.65" x2="347.02" y2="299.27"/>
              <line class="cls-1" x1="348.09" y1="300.24" x2="347.02" y2="300.86"/>
            </g>
            <g>
              <polyline class="cls-1" points="332.25 303.54 333.33 302.93 332.44 302.41 331.52 301.88"/>
              <polyline class="cls-1" points="348.09 310.83 347.18 310.3 346.29 309.79 345.22 310.41"/>
              <path class="cls-1" d="M347.02,311.45c-3.68-.17-7.6-1.2-10.78-3.04-3.18-1.84-4.96-4.1-5.26-6.22v1.59c.3,2.13,2.08,4.39,5.26,6.22,3.18,1.84,7.1,2.87,10.78,3.04v-1.59Z"/>
              <line class="cls-1" x1="333.33" y1="302.93" x2="333.33" y2="304.52"/>
              <line class="cls-1" x1="331.52" y1="301.88" x2="330.98" y2="302.19"/>
              <line class="cls-1" x1="348.09" y1="310.83" x2="347.02" y2="311.45"/>
              <line class="cls-1" x1="348.09" y1="312.43" x2="347.02" y2="313.05"/>
            </g>
            <line class="cls-1" x1="318.83" y1="265" x2="360.25" y2="288.92"/>
            <line class="cls-1" x1="318.83" y1="277.19" x2="359.98" y2="300.95"/>
            <line class="cls-1" x1="318.83" y1="289.38" x2="359.98" y2="313.14"/>
            <polygon class="cls-1" points="318.83 310.21 318.63 318.29 409.58 367.73 409.67 359.82 318.83 310.21"/>
          </g>
          <line class="cls-1" x1="360.25" y1="288.92" x2="404.48" y2="314.45"/>
          <line class="cls-1" x1="387.87" y1="324.97" x2="387.87" y2="341.11"/>
          <line class="cls-1" x1="387.87" y1="304.86" x2="387.87" y2="310.72"/>
          <line class="cls-1" x1="380.38" y1="238.37" x2="388.27" y2="242.92"/>
          <g>
            <path class="cls-1" d="M385.25,219.1c0-.06-.01-.13-.04-.19-.03-.06-.07-.12-.13-.18-.05-.05-.12-.11-.2-.15-.08-.05-.17-.09-.26-.12-.1-.03-.2-.06-.31-.07-.11-.02-.22-.02-.33-.02s-.22,0-.33.02c-.11.02-.21.04-.31.07-.09.03-.18.07-.26.12-.08.05-.15.1-.2.15-.06.06-.1.12-.13.18-.03.06-.04.13-.04.19"/>
            <path class="cls-1" d="M385.25,224.58v-5.48h0c0,.06-.01.13-.04.19-.03.06-.07.12-.13.18-.05.05-.12.11-.2.15-.08.05-.17.09-.26.12-.1.03-.2.06-.31.07-.11.02-.22.02-.33.02s-.22,0-.33-.02c-.11-.02-.21-.04-.31-.07-.09-.03-.18-.07-.26-.12-.08-.05-.15-.1-.2-.15-.06-.06-.1-.12-.13-.18-.03-.06-.04-.13-.04-.19v5.48c0,1.73-3.82,4.08-3.82,7.61v18.43c0,.26.06.51.17.76.11.25.28.48.51.71.22.22.49.42.81.61.32.19.68.34,1.06.47.39.13.8.23,1.23.29.43.07.88.1,1.32.1s.89-.03,1.32-.1c.43-.07.84-.16,1.23-.29.38-.13.73-.28,1.06-.47.32-.19.59-.39.81-.61.23-.23.4-.46.51-.71.12-.25.17-.51.17-.76v-18.43c0-3.53-3.82-5.87-3.82-7.61Z"/>
            <path class="cls-1" d="M379.36,238.69c0-.19.04-.37.13-.56.09-.2.23-.39.41-.57.19-.19.43-.37.71-.53.29-.17.61-.31.97-.43.36-.12.75-.21,1.15-.27.41-.06.82-.09,1.25-.09s.84.03,1.25.09c.4.06.79.15,1.15.27.35.12.68.26.97.43.28.16.52.34.71.53.18.18.32.37.41.57.09.18.13.37.13.56"/>
            <path class="cls-1" d="M388.59,238.69c0,.19-.04.37-.13.56-.09.2-.23.39-.41.57-.19.19-.43.37-.71.53-.29.17-.61.31-.97.43-.36.12-.75.21-1.15.28-.41.06-.82.09-1.25.09s-.84-.03-1.25-.09c-.4-.06-.79-.16-1.15-.28-.35-.12-.68-.26-.97-.43-.28-.16-.52-.34-.71-.53-.18-.18-.32-.37-.41-.57-.09-.19-.13-.37-.13-.56"/>
            <path class="cls-1" d="M379.9,249.56c.19-.19.43-.37.71-.53.29-.17.61-.31.97-.43.36-.12.75-.21,1.15-.28.41-.06.82-.09,1.25-.09s.84.03,1.25.09c.4.06.79.16,1.15.28.35.12.68.26.97.43.28.16.52.34.71.53"/>
          </g>
        </g>
        <polygon class="cls-1" points="447.19 277.49 447.19 340.54 409.58 367.73 409.58 306.13 447.19 277.49"/>
        <path class="cls-2" d="M420.88,266.75s-.01.14-.12.2c-2.11,1.17-8.74,5.11-9.64,5.66-.93.58-1.52,1.97-1.57,3.7-.49.21-2.34.85-3.62-.9.55-2.68,2.28-4.61,5.94-6.63,2.3-1.27,4.11-2.4,5.18-3.08.45-.28.77-.48.95-.58.03-.02.07-.03.11-.03s.08,0,.11.03l2.54,1.43c.1.06.11.16.11.2Z"/>
      </g>
      <g>
        <polygon class="cls-4" points="107.27 200.44 150.44 175.52 106.48 150.13 63.31 175.06 107.27 200.44"/>
        <polygon class="cls-4" points="63.31 333.04 107.27 354.96 107.27 200.44 63.31 175.06 63.31 305.81 63.31 333.04"/>
        <polyline class="cls-4" points="150.53 184.61 150.53 175.5 107.36 200.43 107.36 294.95 150.53 270.03 150.53 255.26"/>
        <polygon class="cls-4" points="107.36 354.95 150.53 330.02 150.53 270.86 107.36 295.78 107.36 354.95"/>
        <polyline class="cls-4" points="150.13 192.12 147.19 190.43 147.19 195.41 150.13 197.11"/>
        <polyline class="cls-4" points="150.13 242.26 147.19 240.56 147.19 245.55 150.13 247.24"/>
        <path class="cls-4" d="M152.16,187.31c0-.32-.46-.59-1.02-.59-.56,0-1.02.26-1.02.59"/>
        <path class="cls-4" d="M152.16,252.4c0,.32-.46.59-1.02.59-.56,0-1.02-.26-1.02-.59v-65.09c0,.32.46.59,1.02.59.56,0,1.02-.26,1.02-.59v65.09Z"/>
      </g>
    </g>
  </g>
</svg>