<?xml version="1.0" encoding="UTF-8"?>
<svg id="Layer_2" xmlns="http://www.w3.org/2000/svg" version="1.1" viewBox="0 0 135 103.7">
  <!-- Generator: Adobe Illustrator 29.8.2, SVG Export Plug-In . SVG Version: 2.1.1 Build 3)  -->
  <defs>
    <style>
      .st0 {
        stroke-width: 1.5px;
      }

      .st0, .st1 {
        fill: #f0851c;
        stroke: #fff;
        stroke-linecap: round;
        stroke-linejoin: round;
      }

      .st1 {
        stroke-width: 1.5px;
      }
    </style>
  </defs>
  <g id="LED_Filled">
    <g>
      <g>
        <ellipse class="st1" cx="7.9" cy="93.8" rx="10.1" ry="5.8" transform="translate(-77.3 53.7) rotate(-60)"/>
        <g>
          <polyline class="st0" points="8.7 93.2 19.7 99.2 19.7 91.8"/>
          <path class="st0" d="M8.2,66.3v20c0,3,5,5.5,11.3,5.5s11.2-2.5,11.2-5.5v-20H8.2Z"/>
          <ellipse class="st0" cx="19.5" cy="67" rx="11.4" ry="6.2"/>
        </g>
      </g>
      <g>
        <ellipse class="st1" cx="104.7" cy="38.4" rx="10.1" ry="5.8" transform="translate(19.1 109.9) rotate(-60)"/>
        <g>
          <polyline class="st0" points="105.6 37.8 116.6 43.8 116.6 36.4"/>
          <path class="st0" d="M105.1,10.9v20c0,3,5,5.5,11.2,5.5s11.3-2.5,11.3-5.5V10.9h-22.5Z"/>
          <ellipse class="st0" cx="116.3" cy="11.6" rx="11.4" ry="6.2"/>
        </g>
      </g>
    </g>
  </g>
</svg>