<?xml version="1.0" encoding="UTF-8"?>
<svg id="Layer_2" data-name="Layer 2" xmlns="http://www.w3.org/2000/svg" viewBox="0 0 467.74 476.89">
  <defs>
    <style>
      .cls-1 {
        stroke-width: 1.74px;
      }

      .cls-1, .cls-2, .cls-3, .cls-4, .cls-5, .cls-6, .cls-7, .cls-8, .cls-9, .cls-10, .cls-11, .cls-12 {
        stroke: #fff;
        stroke-linecap: round;
        stroke-linejoin: round;
      }

      .cls-1, .cls-13 {
        fill: #001689;
      }

      .cls-2 {
        fill: #f0851c;
        stroke-width: 1.2px;
      }

      .cls-3 {
        stroke-width: .5px;
      }

      .cls-3, .cls-4, .cls-5, .cls-6, .cls-7, .cls-8, .cls-9, .cls-10, .cls-11, .cls-12 {
        fill: none;
      }

      .cls-4 {
        stroke-width: .74px;
      }

      .cls-5 {
        stroke-width: .65px;
      }

      .cls-6 {
        stroke-width: .86px;
      }

      .cls-7 {
        stroke-width: .99px;
      }

      .cls-8 {
        stroke-width: 1.48px;
      }

      .cls-9 {
        stroke-width: 1.56px;
      }

      .cls-10 {
        stroke-width: 1.32px;
      }

      .cls-11 {
        stroke-width: 1.72px;
      }

      .cls-12 {
        stroke-width: .56px;
      }
    </style>
  </defs>
  <g id="Mobile_Rooms" data-name="Mobile Rooms">
    <g id="LED_lighting" data-name="LED lighting">
      <polygon class="cls-9" points=".94 117.52 .91 320.16 16.86 329.38 17.75 128.97 .94 117.52"/>
      <polygon class="cls-9" points="466.29 357.08 272.14 476.1 .91 320.06 229.9 222.57 466.29 357.08"/>
      <polyline class="cls-9" points="213.98 .87 .78 117.78 17.61 129.79 209.98 20.2"/>
      <g>
        <line class="cls-3" x1="253.5" y1="245.5" x2="414.25" y2="337.33"/>
        <line class="cls-3" x1="255.13" y1="250.92" x2="415.88" y2="342.74"/>
        <line class="cls-3" x1="245.84" y1="249.6" x2="414.27" y2="345.82"/>
        <line class="cls-3" x1="259.09" y1="248.73" x2="251.8" y2="252.94"/>
        <line class="cls-3" x1="331.79" y1="294.79" x2="338.85" y2="298.87"/>
      </g>
      <line class="cls-3" x1="314.39" y1="338.68" x2="356.99" y2="313.54"/>
      <g>
        <polyline class="cls-3" points="41.68 306.9 31.7 301.14 30.87 301.62 30.04 302.1 279.4 446.07 280.23 445.59 281.06 445.11 267.76 437.43"/>
        <line class="cls-3" x1="115.93" y1="349.77" x2="45" y2="308.82"/>
        <line class="cls-3" x1="190.19" y1="392.64" x2="119.26" y2="351.69"/>
        <line class="cls-3" x1="264.44" y1="435.51" x2="193.51" y2="394.56"/>
        <polygon class="cls-7" points="43.34 270.11 43.34 309.78 41.68 308.82 41.68 269.15 43.34 270.11"/>
        <polygon class="cls-3" points="45 271.07 45 308.82 43.34 309.78 43.34 270.11 45 271.07"/>
        <polygon class="cls-7" points="43.34 312.34 43.34 318.74 41.68 317.78 41.68 311.38 43.34 312.34"/>
        <polygon class="cls-3" points="45 313.3 45 317.78 43.34 318.74 43.34 312.34 45 313.3"/>
        <polygon class="cls-7" points="117.59 355.21 117.59 361.61 115.93 360.65 115.93 354.25 117.59 355.21"/>
        <polygon class="cls-3" points="119.26 356.17 119.26 360.65 117.59 361.61 117.59 355.21 119.26 356.17"/>
        <polygon class="cls-7" points="191.85 398.08 191.85 404.48 190.19 403.52 190.19 397.12 191.85 398.08"/>
        <polygon class="cls-3" points="193.51 399.04 193.51 403.52 191.85 404.48 191.85 398.08 193.51 399.04"/>
        <polygon class="cls-7" points="266.1 440.95 266.1 447.35 264.44 446.39 264.44 439.99 266.1 440.95"/>
        <polygon class="cls-3" points="267.76 441.91 267.76 446.39 266.1 447.35 266.1 440.95 267.76 441.91"/>
        <polygon class="cls-7" points="117.59 312.98 117.59 352.65 115.93 351.69 115.93 312.02 117.59 312.98"/>
        <polygon class="cls-3" points="119.26 313.94 119.26 351.69 117.59 352.65 117.59 312.98 119.26 313.94"/>
        <polygon class="cls-7" points="191.85 355.85 191.85 395.52 190.19 394.56 190.19 354.89 191.85 355.85"/>
        <polygon class="cls-3" points="193.51 356.81 193.51 394.56 191.85 395.52 191.85 355.85 193.51 356.81"/>
        <polygon class="cls-7" points="266.1 398.72 266.1 438.39 264.44 437.43 264.44 397.76 266.1 398.72"/>
        <polygon class="cls-3" points="267.76 399.68 267.76 437.43 266.1 438.39 266.1 398.72 267.76 399.68"/>
        <polygon class="cls-3" points="281.06 447.67 280.23 448.15 279.4 448.63 279.4 447.35 279.4 446.07 280.23 445.59 281.06 445.11 281.06 446.39 281.06 447.67"/>
        <polygon class="cls-7" points="279.4 448.63 279.4 447.35 279.4 446.07 30.04 302.1 30.04 303.38 30.04 304.66 279.4 448.63"/>
        <polyline class="cls-3" points="41.68 264.67 31.7 258.91 30.87 259.39 30.04 259.87 279.4 403.84 280.23 403.36 281.06 402.88 267.76 395.2"/>
        <line class="cls-3" x1="115.93" y1="307.54" x2="45" y2="266.59"/>
        <line class="cls-3" x1="190.19" y1="350.41" x2="119.26" y2="309.46"/>
        <line class="cls-3" x1="264.44" y1="393.28" x2="193.51" y2="352.33"/>
        <polygon class="cls-3" points="281.06 405.44 280.23 405.92 279.4 406.4 279.4 405.12 279.4 403.84 280.23 403.36 281.06 402.88 281.06 404.16 281.06 405.44"/>
        <polygon class="cls-7" points="279.4 406.4 279.4 405.12 279.4 403.84 30.04 259.87 30.04 261.15 30.04 262.43 279.4 406.4"/>
        <polygon class="cls-7" points="43.34 261.15 43.34 267.55 41.68 266.59 41.68 260.19 43.34 261.15"/>
        <polygon class="cls-3" points="45 262.11 45 266.59 43.34 267.55 43.34 261.15 45 262.11"/>
        <polygon class="cls-7" points="117.59 304.02 117.59 310.42 115.93 309.46 115.93 303.06 117.59 304.02"/>
        <polygon class="cls-3" points="119.26 304.98 119.26 309.46 117.59 310.42 117.59 304.02 119.26 304.98"/>
        <polygon class="cls-7" points="191.85 346.89 191.85 353.29 190.19 352.33 190.19 345.93 191.85 346.89"/>
        <polygon class="cls-3" points="193.51 347.85 193.51 352.33 191.85 353.29 191.85 346.89 193.51 347.85"/>
        <polygon class="cls-7" points="266.1 389.76 266.1 396.16 264.44 395.2 264.44 388.8 266.1 389.76"/>
        <polygon class="cls-3" points="267.76 390.72 267.76 395.2 266.1 396.16 266.1 389.76 267.76 390.72"/>
        <polygon class="cls-3" points="279.4 391.04 280.23 390.56 281.06 390.08 31.7 246.11 30.87 246.59 30.04 247.07 279.4 391.04"/>
        <polygon class="cls-3" points="281.06 390.08 281.06 395.2 281.06 396.48 280.23 396.96 279.4 397.44 279.4 396.16 279.4 391.04 281.06 390.08"/>
        <polygon class="cls-7" points="279.4 397.44 279.4 396.16 279.4 391.04 30.04 247.07 30.04 252.19 30.04 253.47 279.4 397.44"/>
        <path class="cls-10" d="M36.31,266.69v37.43M49.81,274.48v37.43M56.56,278.38v37.43M63.32,282.28v37.43M70.07,286.18v37.43M76.82,290.07v37.43M83.57,293.97v37.43M90.32,297.87v37.43M97.07,301.77v37.43M103.82,305.66v37.43M110.57,309.56v37.43M124.07,317.35v37.43M130.82,321.25v37.43M137.57,325.15v37.43M144.32,329.05v37.43M151.07,332.94v37.43M157.82,336.84v37.43M164.57,340.74v37.43M171.32,344.64v37.43M178.07,348.53v37.43M184.82,352.43v37.43M198.32,360.22v37.43M205.07,364.12v37.43M211.82,368.02v37.43M218.57,371.92v37.43M225.32,375.81v37.43M232.07,379.71v37.43M238.82,383.61v37.43M245.57,387.51v37.43M252.32,391.4v37.43M259.07,395.3v37.43M272.58,403.1v37.43M279.33,406.99v37.43"/>
        <line class="cls-3" x1="194.34" y1="350.64" x2="263.21" y2="390.4"/>
        <line class="cls-3" x1="120.15" y1="307.81" x2="188.66" y2="347.36"/>
        <line class="cls-3" x1="77.91" y1="283.42" x2="114.7" y2="304.66"/>
        <line class="cls-3" x1="157.29" y1="380.35" x2="152.09" y2="383.35"/>
      </g>
      <g>
        <polyline class="cls-1" points="261.58 125.93 261.58 28.48 232.24 11.54 213.98 .87"/>
        <polygon class="cls-1" points="261.58 28.48 261.58 241.16 239.41 253.95 239.41 181.11 239.41 41.28 261.58 28.48"/>
        <polygon class="cls-1" points="209.98 20.2 208.93 235.1 239.41 253.95 239.41 40.86 209.98 20.2"/>
      </g>
      <g>
        <g>
          <ellipse class="cls-2" cx="62.57" cy="172.95" rx="8.04" ry="4.68" transform="translate(-118.49 140.66) rotate(-60)"/>
          <g>
            <polyline class="cls-2" points="63.23 172.43 72.03 177.23 72.03 171.33"/>
            <path class="cls-2" d="M62.83,150.93v16c0,2.43,4.03,4.4,9,4.4s9-1.97,9-4.4v-16h-18Z"/>
            <ellipse class="cls-2" cx="71.84" cy="151.49" rx="9.13" ry="4.96"/>
          </g>
        </g>
        <g>
          <ellipse class="cls-2" cx="164.95" cy="125.4" rx="8.04" ry="4.68" transform="translate(-26.12 205.55) rotate(-60)"/>
          <g>
            <polyline class="cls-2" points="165.61 124.88 174.41 129.68 174.41 123.78"/>
            <path class="cls-2" d="M165.21,103.38v16c0,2.43,4.03,4.4,9,4.4s9-1.97,9-4.4v-16h-18Z"/>
            <ellipse class="cls-2" cx="174.22" cy="103.94" rx="9.13" ry="4.96"/>
          </g>
        </g>
      </g>
      <g>
        <path class="cls-13" d="M129,240.6s-5.11,1.89-3.72,7.77c1.39,5.88,1.99,19.33,1.99,19.33,0,0,6.13,4.5,11.6,3.87s10.44-2.37,10.44-2.37l3.95-20.84s-1.46-6.7-3.18-7.77-21.08,0-21.08,0Z"/>
        <g>
          <path class="cls-11" d="M124.46,263.26c0,4.59,6.44,8.31,14.39,8.31,7.95,0,14.39-3.72,14.39-8.31v4.47c0,4.59-6.44,8.31-14.39,8.31-7.95,0-14.39-3.72-14.39-8.31v-4.47Z"/>
          <path class="cls-11" d="M125.02,260.97c-.36.73-.56,1.5-.56,2.29,0,4.59,6.44,8.31,14.39,8.31,7.95,0,14.39-3.72,14.39-8.31,0-.8-.2-1.57-.56-2.31"/>
          <path class="cls-11" d="M150.46,267.7c.17-.39.3-1.81.35-2.22h.01l1.66-14.08"/>
          <path class="cls-11" d="M127.26,267.7c-.17-.39-.3-1.81-.35-2.22h-.01l-1.63-13.81"/>
          <path class="cls-6" d="M151.27,242.51c.87,1.05,1.33,2.21,1.33,3.41,0,1.06-.36,2.09-1.04,3.04"/>
          <path class="cls-6" d="M126.16,248.96c-.68-.95-1.04-1.98-1.04-3.04,0-1.52.73-2.97,2.1-4.22"/>
          <path class="cls-11" d="M125.04,240.51c-.93,1.14-1.44,2.41-1.44,3.74,0,4.87,6.83,8.81,15.26,8.81s15.26-3.95,15.26-8.81c0-1.12-.36-2.19-1.02-3.18"/>
          <path class="cls-6" d="M154.12,244.26v2.49c0,4.87-6.83,8.81-15.26,8.81s-15.26-3.95-15.26-8.81v-2.49"/>
          <path class="cls-6" d="M138.37,248.52c-1.92-8.55-.67-18.41,2.03-29.11,2.7-10.7,6.26-20.62,4.85-26.51,0,0,6.49,16.82,4.2,30.13-2.29,13.31-7.79,24.63-7.79,24.63"/>
          <path class="cls-5" d="M139.66,248.48c2.03-4.36,5.49-7.54,6.59-38.49"/>
          <path class="cls-6" d="M149.92,220.4c1.59-2.25,2.57-2.81,2.57-2.81,0,0,4.15,8.19.83,16.01-3.32,7.82-3.81,9.14-6.99,12.88"/>
          <path class="cls-5" d="M143.27,247.59c3.46-4.36,9.49-13.78,8.86-25.34"/>
          <path class="cls-6" d="M137.84,247.61c-2.94-7.91-4.4-19.13-2.74-34.22,1.66-15.09,4.59-26.65,4.47-30.36,0,0,3.9,16.85,4.39,23.15"/>
          <path class="cls-5" d="M140.71,218.16c-.83-7.34-.83-22.78-.83-22.78"/>
          <path class="cls-6" d="M133.03,247.51c-5.06-6.71-10.84-15.65-9.4-29.25,0,0,7.88,11.88,11.34,18.25"/>
          <path class="cls-5" d="M136.56,248.37c-4.57-5.97-9.35-16.15-10.53-20.79"/>
          <path class="cls-6" d="M127,223.42c-.62-8.03,2.08-16.53,4.85-24.15,0,0,1.31,8.78,3.25,13.49"/>
          <path class="cls-5" d="M133.06,232.79c-1.34-5.49-2.38-14.77-1.55-23.01"/>
          <polyline class="cls-5" points="129.81 246.41 131.68 247.76 134.17 247.14 134.33 248.43 137.03 247.91 137.44 249.47 139.15 247.5 140.4 248.9 141.8 248.59 142.53 247.34 143.31 248.9 144.71 246.72 145.54 247.08 147.62 246.88 148.35 245.11"/>
        </g>
      </g>
      <g>
        <polygon class="cls-1" points="414.25 139.4 414.25 353.01 441.62 371.12 443.68 160.34 414.25 139.4"/>
        <polygon class="cls-1" points="466.29 144.11 466.29 357.08 441.62 371.12 444.13 159.89 466.29 144.11"/>
        <polygon class="cls-1" points="414.25 139.4 437.44 122.34 466.87 143.29 443.68 160.34 414.25 139.4"/>
      </g>
      <g>
        <g>
          <polygon class="cls-13" points="366.14 301.74 366.14 342.51 364.28 343.58 364.28 325.7 364.28 323.56 364.28 302.81 366.14 301.74"/>
          <path class="cls-13" d="M358.19,306.32l-5.78,3.34-23.13,13.36c-2.56,1.48-4.64,5.09-4.64,8.05v35.4l-1.87,1.07v-35.4c0-4.15,2.92-9.2,6.51-11.27l36.85-21.28v2.15l-1.86,1.07-6.09,3.51Z"/>
          <path class="cls-13" d="M320.92,344.84v-13.77c0-4.15,2.92-9.2,6.51-11.27l25.41-14.68,5.82-3.35,5.62-3.25,1.86,1.07-36.85,21.28c-3.59,2.07-6.51,7.12-6.51,11.27v35.4l-1.86-1.07v-21.63Z"/>
          <polygon class="cls-13" points="364.28 323.56 364.28 325.7 324.64 348.58 324.64 346.44 364.28 323.56"/>
          <polygon class="cls-13" points="356.31 326.01 356.67 322.34 358.19 306.32 364.28 302.81 364.28 323.56 324.64 346.44 324.64 344.29 356.31 326.01"/>
          <path class="cls-13" d="M359.46,284.64c.46.4.69,1.13.6,2.09l-1.43,15,.02.03-5.82,3.35,1.52-15.86c.09-.96.49-1.97,1.07-2.83.57-.86,1.32-1.58,2.11-1.92.65-.29,1.23-.28,1.67-.04.1.04.18.11.26.18Z"/>
          <path class="cls-13" d="M286.85,327.9l-1.45-.84c-.11-.06-.2-.12-.29-.2-.46-.4-.69-1.13-.6-2.09s.49-1.98,1.07-2.84c.32-.49.7-.93,1.12-1.27.31-.27.66-.49.99-.64l2.96-1.32,28.09-12.44,1.67-17.46.44-4.54,1.3-13.59c.19-1.93,1.61-4.06,3.19-4.75.66-.29,1.23-.29,1.67-.06l32.22,18.6c-.44-.23-1.02-.25-1.67.04-.79.35-1.54,1.06-2.11,1.92-.58.86-.98,1.87-1.07,2.83l-1.52,15.86-25.41,14.68c-3.59,2.07-6.51,7.12-6.51,11.27v6.77c-.53.38-2.74,2.09-3.14,2.69-.57.86-.97,1.87-1.07,2.83-.09.97.15,1.7.6,2.1.09.08.19.15.29.2l-26.38-15.24-4.37-2.53Z"/>
          <polygon class="cls-13" points="352.41 309.66 358.19 306.32 356.67 322.34 350.96 324.86 352.41 309.66"/>
          <polygon class="cls-13" points="356.67 322.34 356.31 326.01 324.64 344.29 324.64 336.51 350.96 324.86 356.67 322.34"/>
          <path class="cls-13" d="M350.96,324.86l-26.31,11.65v-5.44c0-2.96,2.08-6.57,4.64-8.05l23.13-13.36-1.45,15.2Z"/>
          <path class="cls-13" d="M320.92,337.84v7l-1.69.76h0c-.64.28-1.2.28-1.63.07-.1-.06-.2-.12-.29-.2-.46-.4-.69-1.13-.6-2.1.1-.96.5-1.97,1.07-2.83.4-.6,2.62-2.31,3.14-2.69Z"/>
          <path class="cls-13" d="M320.84,284.26l-.44,4.54-25.18,14.54c-2.57,1.49-4.65,5.09-4.65,8.05v7.13l.08.18-2.96,1.32c-.34.15-.68.37-.99.64l.03-2.14.12-7.13c0-3.33,1.89-7.25,4.5-9.75h.01c.63-.6,1.3-1.12,1.99-1.52l27.49-15.86Z"/>
          <path class="cls-13" d="M264.36,251.05c1.02-.47,2.07-.88,3.16-1.25,2.01-.67,4.15-1.17,6.35-1.51,2.22-.35,4.52-.51,6.8-.51s4.58.17,6.81.51c2.19.34,4.33.84,6.34,1.51s3.78,1.45,5.44,2.41c1.65.96,3.05,2.02,4.18,3.14,1.16,1.16,2.03,2.39,2.62,3.67.6,1.29.89,2.6.89,3.92,0,.17,0,.34-.01.49-.07,1.15-.36,2.3-.88,3.43-.58,1.27-1.45,2.5-2.62,3.67-1.13,1.12-2.53,2.18-4.18,3.14-1.67.96-3.5,1.77-5.44,2.41-2.01.67-4.15,1.17-6.34,1.51-2.22.35-4.52.51-6.81.51s-4.57-.17-6.8-.51c-2.2-.34-4.34-.84-6.34-1.51-1.95-.65-3.78-1.45-5.44-2.41-1.67-.96-3.06-2.02-4.18-3.14-1.16-1.16-2.05-2.39-2.63-3.67-.45-.97-.73-1.97-.84-2.96-.03-.31-.06-.64-.06-.96,0-1.32.3-2.64.89-3.92.58-1.27,1.46-2.5,2.63-3.67s2.52-2.18,4.18-3.14c.73-.41,1.49-.8,2.27-1.16ZM278.51,267.05l.2-.11.44-.25c.13.08.28.15.45.2.16.06.34.09.51.12.19.02.37.04.56.04s.38-.02.56-.04c.18-.03.36-.07.53-.12.16-.06.31-.12.45-.2l.4.23.23.13v-1.25c0,.11-.03.21-.08.32-.04.1-.12.2-.21.3-.1.09-.21.18-.35.26l-1.05-.61-.47-.27-.96.55-.57.34c-.15-.08-.26-.17-.35-.26-.1-.1-.17-.2-.22-.3-.04-.11-.07-.21-.07-.32v1.24Z"/>
          <path class="cls-13" d="M255.9,270.87c-.23-.38-.44-.76-.61-1.14-.27-.56-.47-1.51-.61-2.5l.61-.36c.58,1.27,1.46,2.5,2.63,3.67,1.12,1.12,2.52,2.18,4.18,3.14,1.67.96,3.5,1.77,5.44,2.41,2,.67,4.14,1.17,6.34,1.51,2.22.35,4.52.51,6.8.51s4.58-.17,6.81-.51c2.19-.34,4.33-.84,6.34-1.51,1.95-.65,3.78-1.45,5.44-2.41,1.65-.96,3.05-2.02,4.18-3.14,1.16-1.16,2.03-2.39,2.62-3.67.53-1.13.82-2.28.88-3.43-.06,1.65-.35,5.14-.88,6.29-.58,1.27-1.45,2.5-2.62,3.67-1.13,1.12-2.53,2.18-4.18,3.14-1.67.96-3.5,1.77-5.44,2.41-2.01.67-4.15,1.17-6.34,1.51-1.52.23-3.07.39-4.64.46-.73.04-1.44.06-2.17.06s-1.44-.01-2.16-.06c-1.56-.07-3.12-.22-4.64-.46-2.2-.34-4.34-.84-6.34-1.51-1.95-.65-3.78-1.45-5.44-2.41-1.67-.96-3.06-2.02-4.18-3.14-.82-.82-1.49-1.65-2.01-2.53Z"/>
          <path class="cls-13" d="M297.59,306.11c.4.85.6,1.73.6,2.62s-.2,1.77-.6,2.62c-.39.85-.97,1.67-1.74,2.45-.75.75-1.68,1.45-2.78,2.09-.34.19-2.15.64-2.49.82v-5.3c0-2.96,2.08-6.56,4.65-8.05.51.6,2.08,2.11,2.37,2.76Z"/>
          <polygon class="cls-13" points="288.72 347.87 286.85 346.79 286.85 327.9 291.22 330.43 291.22 330.44 290.57 346.79 288.72 347.87"/>
          <path class="cls-13" d="M291.35,301.65c-2.62,2.49-4.5,6.42-4.5,9.75l-.12,7.13h-.03c-1.49.22-4.49.31-6.03.31s-3.05-.11-4.54-.35c-1.45-.22-2.88-.56-4.23-1.01-1.3-.44-2.52-.97-3.62-1.61s-2.03-1.34-2.78-2.09-1.36-1.6-1.75-2.45-.59-1.73-.59-2.62.2-1.77.59-2.62.97-1.67,1.75-2.44c.75-.75,1.68-1.45,2.78-2.1,1.11-.64,2.33-1.17,3.62-1.61,1.34-.45,2.77-.78,4.23-1.01.22-.03,2.16-.4,2.38-.44v9.35c0,.1.02.21.07.32.06.1.12.2.22.3.09.09.2.18.35.26.13.08.28.15.45.19.16.06.34.1.51.13.19.02.37.03.56.03s.38-.01.56-.03c.18-.03.36-.08.53-.13.16-.04.31-.11.45-.19s.25-.17.35-.26c.09-.1.17-.2.21-.3.04-.11.08-.22.08-.32v-9.35c.28.04,2.09.39,2.37.44,1.46.22,5.15,1.98,6.15,2.69Z"/>
          <path class="cls-13" d="M282.84,298.52v9.35c0,.1-.03.21-.08.32-.04.1-.12.2-.21.3-.1.09-.21.18-.35.26s-.29.15-.45.19c-.17.06-.35.1-.53.13-.18.02-.37.03-.56.03s-.37-.01-.56-.03c-.18-.03-.36-.08-.51-.13-.17-.04-.31-.11-.45-.19-.15-.08-.26-.17-.35-.26-.1-.1-.17-.2-.22-.3-.04-.11-.07-.22-.07-.32v-26.94c.72.04,1.44.06,2.16.06s1.44-.01,2.17-.06v17.59Z"/>
          <path class="cls-13" d="M282.84,265.81v1.25l-.23-.13-.4-.23c.13-.08.25-.17.35-.26.09-.1.17-.2.21-.3.04-.11.08-.21.08-.32Z"/>
          <path class="cls-13" d="M281.15,266.08l1.05.61c-.13.08-.29.15-.45.2-.17.06-.35.09-.53.12-.18.02-.37.04-.56.04s-.37-.02-.56-.04c-.18-.03-.36-.07-.51-.12-.17-.06-.31-.12-.45-.2l.57-.34.96-.55.47.27Z"/>
          <path class="cls-13" d="M279.15,266.69l-.44.25-.2.11v-1.24c0,.11.02.21.07.32.06.1.12.2.22.3.09.09.2.18.35.26Z"/>
          <path class="cls-13" d="M222.86,277.74v30.08l-1.87,1.07v-35.4c0-4.15,2.92-9.2,6.51-11.27l36.85-21.27v10.11c-.78.36-1.54.75-2.27,1.16-1.67.96-3.06,2.02-4.18,3.14s-2.05,2.39-2.63,3.67c-.59,1.29-.89,2.6-.89,3.92,0,.32.02.65.06.96h-.06l-5.21,2.3-26.01,11.52h-.3Z"/>
          <path class="cls-13" d="M256.96,243.08l5.54-3.21,1.86,1.07-36.85,21.27c-3.59,2.07-6.51,7.12-6.51,11.27v35.4l-1.86-1.07v-35.4c0-4.15,2.92-9.2,6.51-11.27l25.56-14.76,5.75-3.31Z"/>
          <path class="cls-13" d="M257.68,225.99c.46.4.69,1.13.6,2.09l-1.33,15-5.75,3.31-.12-.21,1.49-15.56c.09-.96.49-1.98,1.07-2.84.57-.86,1.33-1.56,2.11-1.92.65-.29,1.22-.28,1.67-.04.09.04.18.11.26.18Z"/>
          <path class="cls-13" d="M185.07,269.25l-1.45-.84c-.11-.04-.2-.11-.29-.19-.46-.4-.69-1.14-.6-2.1s.49-1.98,1.07-2.84c.38-.58.85-1.08,1.35-1.46.25-.18.5-.34.76-.45l2.92-1.3,28.14-12.45,1.65-17.37.45-4.64,1.3-13.59c.19-1.92,1.61-4.06,3.19-4.75.66-.29,1.23-.29,1.67-.06l32.22,18.6c-.45-.23-1.02-.25-1.67.04-.78.36-1.54,1.06-2.11,1.92-.58.86-.98,1.88-1.07,2.84l-1.49,15.56.12.21-25.56,14.76c-3.59,2.07-6.51,7.12-6.51,11.27v7.11c-.53.38-2.74,1.75-3.14,2.36-.57.86-.97,1.87-1.07,2.84-.09.96.15,1.69.6,2.09.09.08.19.15.29.2l-26.94-15.56-3.81-2.2Z"/>
          <path class="cls-13" d="M222.86,287.8v-2.15l31.8-18.42c.15.99.35,1.95.61,2.5.18.38.38.76.61,1.14l-33.03,19.07v-2.15Z"/>
          <path class="cls-13" d="M255.28,266.87l-.61.36c-.19-1.26-.28-2.58-.28-3.32h.06c.11.99.39,1.99.84,2.96Z"/>
          <path class="cls-13" d="M254.39,263.91c0,.74.09,2.06.28,3.32l-31.8,18.42v-7.91h.3l26.01-11.52,5.21-2.3Z"/>
          <path class="cls-13" d="M219.14,279.52v6.67l-1.26.56-.42.19c-.64.28-1.2.28-1.63.07-.1-.06-.2-.12-.29-.2-.46-.4-.69-1.13-.6-2.09.1-.97.5-1.98,1.07-2.84.4-.6,2.62-1.98,3.14-2.36Z"/>
          <path class="cls-13" d="M219.06,225.61l-.45,4.64h-.13s-25.04,14.45-25.04,14.45c-2.57,1.48-4.65,5.07-4.65,8.04v7.25l.03.08-2.92,1.3c-.26.11-.51.27-.76.45l-.07-.09v-8.99c0-4.14,2.92-9.19,6.49-11.26l27.49-15.87Z"/>
          <polygon class="cls-13" points="186.94 289.23 185.07 288.15 185.07 269.25 188.88 271.45 188.79 271.62 188.79 288.15 186.94 289.23"/>
        </g>
        <g>
          <path class="cls-8" d="M188.79,260v-7.25c0-2.96,2.08-6.56,4.65-8.04l25.04-14.46"/>
          <polyline class="cls-8" points="186.94 289.23 188.79 288.15 188.79 271.62"/>
          <path class="cls-12" d="M186.94,258.93v-5.12c0-4.14,2.92-9.19,6.51-11.26l23.72-13.7"/>
          <line class="cls-12" x1="186.94" y1="289.23" x2="186.94" y2="272.53"/>
          <polyline class="cls-8" points="185.07 268.84 185.07 269.25 185.07 288.15 186.94 289.23"/>
          <path class="cls-8" d="M219.14,225.57l-.08.04-27.49,15.87c-3.58,2.07-6.49,7.12-6.49,11.26v8.99"/>
          <line class="cls-8" x1="223.17" y1="277.74" x2="249.18" y2="266.21"/>
          <path class="cls-8" d="M219.14,286.2l-1.26.56-.42.19c-.64.28-1.2.28-1.63.07-.1-.06-.2-.12-.29-.2-.46-.4-.69-1.13-.6-2.09.1-.97.5-1.98,1.07-2.84.4-.6,2.62-1.98,3.14-2.36"/>
          <path class="cls-8" d="M216.96,247.62l-28.14,12.45-2.92,1.3c-.26.11-.51.27-.76.45-.5.38-.97.88-1.35,1.46-.58.86-.98,1.88-1.07,2.84s.15,1.7.6,2.1c.09.08.18.15.29.19l1.45.84,3.81,2.2,26.94,15.56"/>
          <path class="cls-8" d="M251.09,246.18l1.49-15.56c.09-.96.49-1.98,1.07-2.84.57-.86,1.33-1.56,2.11-1.92.65-.29,1.22-.28,1.67-.04.09.04.18.11.26.18.46.4.69,1.13.6,2.09l-1.33,15-.03.31"/>
          <polyline class="cls-8" points="254.39 263.91 249.18 266.21 250.44 252.95"/>
          <line class="cls-8" x1="256.22" y1="249.68" x2="255.75" y2="254.65"/>
          <line class="cls-8" x1="238.12" y1="259.83" x2="249.18" y2="266.21"/>
          <path class="cls-8" d="M257.43,225.81l-32.22-18.6c-.44-.23-1.01-.23-1.67.06-1.58.69-3,2.83-3.19,4.75l-1.3,13.59-.45,4.64-1.65,17.37,14.67,8.46"/>
          <line class="cls-8" x1="260.65" y1="246.1" x2="260.65" y2="252.95"/>
          <line class="cls-4" x1="262.5" y1="250.48" x2="262.5" y2="244.17"/>
          <line class="cls-12" x1="262.5" y1="284.93" x2="262.5" y2="278.44"/>
          <polyline class="cls-8" points="260.65 276.43 260.65 283.86 262.5 284.93"/>
          <line class="cls-8" x1="264.36" y1="251.05" x2="264.36" y2="240.95"/>
          <polyline class="cls-8" points="262.5 284.93 264.36 283.86 264.36 278.22"/>
          <path class="cls-8" d="M221,308.89l1.87-1.07v-35.4c0-2.96,2.08-6.56,4.64-8.05l35-20.2,1.45-.84"/>
          <polyline class="cls-8" points="256.04 270.78 255.9 270.87 222.86 289.94"/>
          <polyline class="cls-8" points="222.86 285.65 254.67 267.23 255.28 266.87"/>
          <line class="cls-12" x1="253.21" y1="270.27" x2="222.86" y2="287.8"/>
          <path class="cls-12" d="M221,308.89v-35.4c0-4.15,2.92-9.2,6.51-11.27l36.85-21.27"/>
          <path class="cls-8" d="M264.36,240.95l-1.86-1.07-5.54,3.21-5.75,3.31-25.56,14.76c-3.59,2.07-6.51,7.12-6.51,11.27v35.4l1.86,1.07"/>
          <line class="cls-12" x1="188.1" y1="265.06" x2="212.28" y2="279.02"/>
          <line class="cls-12" x1="224.55" y1="211.67" x2="248.73" y2="225.63"/>
          <path class="cls-8" d="M290.57,318.52v-7.13c0-2.96,2.08-6.56,4.65-8.05l25.18-14.54.15-.08"/>
          <polyline class="cls-8" points="288.72 347.87 290.57 346.79 291.22 330.44"/>
          <path class="cls-12" d="M288.72,317.59v-5.12c0-4.14,2.92-9.19,6.51-11.27l23.72-13.69"/>
          <line class="cls-12" x1="288.72" y1="347.87" x2="288.72" y2="331.17"/>
          <polyline class="cls-8" points="286.85 327.8 286.85 327.9 286.85 346.79 288.72 347.87"/>
          <path class="cls-8" d="M291.35,301.65c-2.62,2.49-4.5,6.42-4.5,9.75l-.12,7.13-.03,2.14"/>
          <path class="cls-8" d="M320.92,284.22l-.08.04-27.49,15.86c-.69.4-1.36.92-1.99,1.52"/>
          <polyline class="cls-8" points="356.67 322.34 356.31 326.01 356.29 326.24"/>
          <line class="cls-8" x1="324.64" y1="336.51" x2="350.96" y2="324.86"/>
          <path class="cls-8" d="M321.13,344.75l-.21.09-1.69.76h0c-.64.28-1.2.28-1.63.07-.1-.06-.2-.12-.29-.2-.46-.4-.69-1.13-.6-2.1.1-.96.5-1.97,1.07-2.83.4-.6,2.62-2.31,3.14-2.69"/>
          <path class="cls-8" d="M318.74,306.26l-28.09,12.44-2.96,1.32c-.34.15-.68.37-.99.64-.41.35-.79.78-1.12,1.27-.58.86-.98,1.88-1.07,2.84s.15,1.69.6,2.09c.09.08.18.15.29.2l1.45.84,4.37,2.53,26.38,15.24"/>
          <path class="cls-8" d="M352.83,305.16v-.03l1.52-15.86c.09-.96.49-1.97,1.07-2.83.57-.86,1.32-1.58,2.11-1.92.65-.29,1.23-.28,1.67-.04.1.04.18.11.26.18.46.4.69,1.13.6,2.09l-1.43,15"/>
          <polyline class="cls-8" points="358.2 306.26 358.19 306.32 356.67 322.34 350.96 324.86 352.41 309.66 352.42 309.52"/>
          <line class="cls-8" x1="339.9" y1="318.48" x2="350.96" y2="324.86"/>
          <path class="cls-8" d="M359.21,284.46l-32.22-18.6c-.44-.23-1.01-.23-1.67.06-1.58.69-3,2.82-3.19,4.75l-1.3,13.59-.44,4.54-1.67,17.46,14.67,8.47"/>
          <line class="cls-8" x1="362.43" y1="304.75" x2="362.43" y2="322.48"/>
          <polyline class="cls-12" points="364.28 343.58 364.28 325.7 364.28 323.56 364.28 302.81"/>
          <polyline class="cls-8" points="362.43 327.74 362.43 342.51 364.28 343.58"/>
          <polyline class="cls-8" points="364.28 343.58 366.14 342.51 366.14 301.74 366.14 299.59"/>
          <path class="cls-8" d="M322.78,367.54l1.87-1.07v-35.4c0-2.96,2.08-6.57,4.64-8.05l23.13-13.36,5.78-3.34,6.09-3.51,1.86-1.07"/>
          <line class="cls-8" x1="364.28" y1="325.7" x2="324.64" y2="348.58"/>
          <line class="cls-12" x1="364.28" y1="323.56" x2="324.64" y2="346.44"/>
          <polyline class="cls-8" points="324.64 344.29 356.31 326.01 362.43 322.48"/>
          <path class="cls-8" d="M366.14,299.59l-1.86-1.07-5.62,3.25-5.82,3.35-25.41,14.68c-3.59,2.07-6.51,7.12-6.51,11.27v35.4l1.86,1.07"/>
          <path class="cls-12" d="M322.78,367.54v-35.4c0-4.15,2.92-9.2,6.51-11.27l36.85-21.28"/>
          <line class="cls-12" x1="289.88" y1="323.71" x2="314.06" y2="337.67"/>
          <line class="cls-12" x1="326.33" y1="270.31" x2="350.51" y2="284.27"/>
          <path class="cls-8" d="M286.69,318.52c-1.49.22-4.49.31-6.03.31s-3.05-.11-4.54-.35c-1.45-.22-2.88-.56-4.23-1.01-1.3-.44-2.52-.97-3.62-1.61s-2.03-1.34-2.78-2.09-1.36-1.6-1.75-2.45-.59-1.73-.59-2.62.2-1.77.59-2.62.97-1.67,1.75-2.44c.75-.75,1.68-1.45,2.78-2.1,1.11-.64,2.33-1.17,3.62-1.61,1.34-.45,2.77-.78,4.23-1.01.22-.03,2.16-.4,2.38-.44"/>
          <path class="cls-8" d="M295.22,303.34c.51.6,2.08,2.11,2.37,2.76.4.85.6,1.73.6,2.62s-.2,1.77-.6,2.62c-.39.85-.97,1.67-1.74,2.45-.75.75-1.68,1.45-2.78,2.09-.34.19-2.15.64-2.49.82"/>
          <path class="cls-8" d="M282.84,298.52c.28.04,2.09.39,2.37.44,1.46.22,5.15,1.98,6.15,2.69h.01"/>
          <path class="cls-12" d="M263.15,310.15c0,.88.2,1.77.59,2.62s.97,1.67,1.75,2.45,1.68,1.45,2.78,2.09,2.33,1.17,3.62,1.61c1.34.45,2.77.78,4.23,1.01,1.49.23,3.02.35,4.54.35s3.63-.23,5.12-.46"/>
          <path class="cls-8" d="M282.84,280.88v26.98c0,.1-.03.21-.08.32-.04.1-.12.2-.21.3-.1.09-.21.18-.35.26s-.29.15-.45.19c-.17.06-.35.1-.53.13-.18.02-.37.03-.56.03s-.37-.01-.56-.03c-.18-.03-.36-.08-.51-.13-.17-.04-.31-.11-.45-.19-.15-.08-.26-.17-.35-.26-.1-.1-.17-.2-.22-.3-.04-.11-.07-.22-.07-.32v-26.88"/>
          <path class="cls-8" d="M306.94,263.44c-.06,1.65-.35,5.14-.88,6.29-.58,1.27-1.45,2.5-2.62,3.67-1.13,1.12-2.53,2.18-4.18,3.14-1.67.96-3.5,1.77-5.44,2.41-2.01.67-4.15,1.17-6.34,1.51-1.52.23-3.07.39-4.64.46-.73.04-1.44.06-2.17.06s-1.44-.01-2.16-.06c-1.56-.07-3.12-.22-4.64-.46-2.2-.34-4.34-.84-6.34-1.51-1.95-.65-3.78-1.45-5.44-2.41-1.67-.96-3.06-2.02-4.18-3.14-.82-.82-1.49-1.65-2.01-2.53-.23-.38-.44-.76-.61-1.14-.27-.56-.47-1.51-.61-2.5-.19-1.26-.28-2.58-.28-3.32"/>
          <path class="cls-8" d="M264.36,251.05c1.02-.47,2.07-.88,3.16-1.25,2.01-.67,4.15-1.17,6.35-1.51,2.22-.35,4.52-.51,6.8-.51s4.58.17,6.81.51c2.19.34,4.33.84,6.34,1.51s3.78,1.45,5.44,2.41c1.65.96,3.05,2.02,4.18,3.14,1.16,1.16,2.03,2.39,2.62,3.67.6,1.29.89,2.6.89,3.92,0,.17,0,.34-.01.49-.07,1.15-.36,2.3-.88,3.43-.58,1.27-1.45,2.5-2.62,3.67-1.13,1.12-2.53,2.18-4.18,3.14-1.67.96-3.5,1.77-5.44,2.41-2.01.67-4.15,1.17-6.34,1.51-2.22.35-4.52.51-6.81.51s-4.57-.17-6.8-.51c-2.2-.34-4.34-.84-6.34-1.51-1.95-.65-3.78-1.45-5.44-2.41-1.67-.96-3.06-2.02-4.18-3.14-1.16-1.16-2.05-2.39-2.63-3.67-.45-.97-.73-1.97-.84-2.96-.03-.31-.06-.64-.06-.96,0-1.32.3-2.64.89-3.92.58-1.27,1.46-2.5,2.63-3.67s2.52-2.18,4.18-3.14c.73-.41,1.49-.8,2.27-1.16Z"/>
          <line class="cls-12" x1="294.35" y1="273.7" x2="295.31" y2="274.26"/>
          <line class="cls-12" x1="292.11" y1="272.41" x2="293.53" y2="273.23"/>
          <line class="cls-12" x1="290.74" y1="271.62" x2="291.22" y2="271.9"/>
          <line class="cls-12" x1="288.73" y1="270.46" x2="289.34" y2="270.82"/>
          <line class="cls-12" x1="286.69" y1="269.28" x2="287.84" y2="269.94"/>
          <polyline class="cls-12" points="276.17 263.21 277.58 264.02 278.3 264.44 279.54 265.15 280.68 265.81 281.15 266.08 282.2 266.69 282.6 266.93 282.84 267.06 283.85 267.65 285.17 268.4"/>
          <line class="cls-12" x1="273.6" y1="261.73" x2="274.95" y2="262.51"/>
          <line class="cls-12" x1="271.5" y1="260.51" x2="272.57" y2="261.14"/>
          <line class="cls-12" x1="268.47" y1="258.77" x2="269.82" y2="259.55"/>
          <line class="cls-12" x1="266.2" y1="257.46" x2="267.31" y2="258.09"/>
          <line class="cls-12" x1="263.96" y1="256.16" x2="265.03" y2="256.78"/>
          <line class="cls-12" x1="267.03" y1="273.69" x2="266.05" y2="274.25"/>
          <line class="cls-12" x1="268.75" y1="272.69" x2="268.06" y2="273.1"/>
          <line class="cls-12" x1="270.49" y1="271.68" x2="269.63" y2="272.18"/>
          <line class="cls-12" x1="272.67" y1="270.42" x2="271.55" y2="271.07"/>
          <line class="cls-12" x1="274.32" y1="269.47" x2="273.54" y2="269.92"/>
          <polyline class="cls-12" points="284.69 263.48 284 263.89 283.13 264.39 281.57 265.29 281.08 265.57 280.68 265.81 279.72 266.36 279.15 266.69 278.71 266.94 278.51 267.05 277.67 267.54 276.79 268.05 275.54 268.77"/>
          <polyline class="cls-12" points="286.99 262.15 285.94 262.77 285.41 263.07"/>
          <line class="cls-12" x1="288.61" y1="261.22" x2="288.02" y2="261.56"/>
          <line class="cls-12" x1="290.73" y1="260" x2="289.55" y2="260.68"/>
          <line class="cls-12" x1="293.11" y1="258.63" x2="291.97" y2="259.28"/>
          <line class="cls-12" x1="294.62" y1="257.76" x2="293.88" y2="258.18"/>
          <line class="cls-12" x1="296.27" y1="256.8" x2="295.29" y2="257.37"/>
          <line class="cls-12" x1="297.98" y1="255.81" x2="297.17" y2="256.28"/>
        </g>
      </g>
    </g>
  </g>
</svg>