<?xml version="1.0" encoding="UTF-8"?>
<svg id="Layer_2" data-name="Layer 2" xmlns="http://www.w3.org/2000/svg" viewBox="0 0 216.91 120.02">
  <defs>
    <style>
      .cls-1 {
        fill-rule: evenodd;
      }

      .cls-1, .cls-2 {
        fill: #fff;
      }
    </style>
  </defs>
  <g id="Header_Footer" data-name="Header/Footer">
    <g>
      <path class="cls-1" d="M128.37,53.99h-8.76v38.47h9.22v-12.74c.89.83,3.23,3.15,7.59,3.15,6.3,0,11.42-5.07,11.42-14.94,0-5.07-1.4-8.42-3.01-10.48-1.89-2.41-4.87-4.12-8.47-4.12-4.52,0-7.1,2.37-7.99,3.21v-2.55h0ZM138.65,67.87c.06,1.43.06,4.47-1.35,6.5-.4.52-1.4,1.89-3.64,1.89-3.83,0-4.89-3.92-4.89-7.93s1.06-8.1,4.89-8.1c4.75,0,4.92,6.01,4.98,7.64h0ZM95.83,53.99h-8.76v38.47h9.22v-12.74c.89.83,3.23,3.15,7.59,3.15,6.3,0,11.42-5.07,11.42-14.94,0-5.07-1.37-8.42-3.01-10.48-1.89-2.41-4.84-4.12-8.47-4.12-4.52,0-7.1,2.37-7.99,3.21v-2.55h0ZM106.1,67.87c.06,1.43.06,4.47-1.35,6.5-.4.52-1.4,1.89-3.63,1.89-3.84,0-4.9-3.92-4.9-7.93s1.06-8.1,4.9-8.1c4.75,0,4.92,6.01,4.98,7.64h0ZM152.39,42.19v40.11h9.25v-45.43l-9.25,5.32h0Z"/>
      <path class="cls-1" d="M185.94,91.34l-4.55-3.89c1.14-1,2.23-2.09,3.23-3.21l3.89,4.52c-.83.92-1.69,1.78-2.58,2.58h0ZM192.72,97.15l-4.72-4.04c.77-.74,1.52-1.51,2.26-2.29l4.03,4.72c-.51.54-1.03,1.09-1.57,1.6h0ZM199.02,102.54l-3.58-3.04c.43-.4.8-.8,1.2-1.2l3.06,3.55c-.23.23-.46.46-.69.69h0ZM185.71,79.26l-5.18-2.49,2.92-5.01,4.72,3.24c-.72,1.49-1.54,2.92-2.46,4.26h0ZM193.09,82.78l-5.38-2.58c.83-1.26,1.6-2.58,2.29-3.95l4.92,3.38c-.57,1.09-1.17,2.15-1.83,3.15h0ZM201.17,86.65l-5.61-2.69c.54-.92,1.09-1.83,1.6-2.78l5.12,3.52c-.34.66-.72,1.32-1.12,1.95h0ZM208.64,90.23l-4.24-2.03c.29-.49.57-.97.86-1.46l3.86,2.66c-.17.26-.32.54-.49.83h0ZM189.77,71.16l-5.64-1.03,1.49-5.61,5.41,1.92c-.31,1.6-.74,3.21-1.26,4.72h0ZM197.82,72.68l-5.87-1.12c.46-1.43.86-2.89,1.17-4.41l5.64,2c-.26,1.2-.57,2.35-.94,3.52h0ZM206.6,74.31l-6.13-1.15c.31-1.03.57-2.06.83-3.12l5.87,2.09c-.17.72-.37,1.46-.57,2.18h0ZM214.74,75.83l-4.61-.86c.17-.54.32-1.09.46-1.63l4.41,1.55c-.09.31-.17.63-.26.94h0ZM191.58,62.32l-5.73.43v-5.78l5.73.43c.06.83.09,1.63.09,2.46s-.03,1.63-.09,2.46h0ZM199.74,61.66l-5.96.49c.03-.77.06-1.52.06-2.29s-.03-1.52-.06-2.29l5.96.46c.03.63.03,1.23.03,1.83s0,1.2-.03,1.8h0ZM208.64,60.97l-6.21.49c.03-.54.03-1.06.03-1.6s0-1.09-.03-1.6l6.21.49v2.23h0ZM216.91,60.34l-4.7.34v-1.69l4.7.37v.97h0ZM191.03,53.27l-5.41,1.92-1.49-5.61,5.64-1.03c.51,1.52.94,3.12,1.26,4.72h0ZM198.76,50.55l-5.64,2c-.31-1.52-.72-2.98-1.17-4.41l5.87-1.12c.37,1.14.69,2.32.94,3.52h0ZM207.18,47.57l-5.87,2.06c-.26-1.03-.52-2.06-.83-3.09l6.13-1.15c.2.72.4,1.43.57,2.18h0ZM214.99,44.83l-4.41,1.54c-.14-.54-.29-1.09-.46-1.63l4.61-.86c.08.31.17.63.26.94h0ZM188.17,44.68l-4.72,3.26-2.92-5.04,5.18-2.46c.92,1.35,1.75,2.78,2.46,4.24h0ZM194.93,40.08l-4.92,3.38c-.69-1.37-1.46-2.69-2.29-3.95l5.38-2.58c.66,1,1.26,2.06,1.83,3.15h0ZM202.28,35.01l-5.12,3.52c-.52-.94-1.06-1.86-1.6-2.78l5.61-2.69c.4.63.77,1.29,1.12,1.95h0ZM209.12,30.31l-3.86,2.66c-.29-.49-.57-.97-.86-1.46l4.24-2.03c.17.29.31.57.49.83h0ZM183.19,37.16l-3.72,4.35-4.12-4.09,4.35-3.72c1.26,1.06,2.4,2.23,3.49,3.46h0ZM188.52,30.94l-3.89,4.52c-1-1.15-2.09-2.21-3.23-3.21l4.55-3.89c.89.8,1.74,1.66,2.58,2.58h0ZM194.29,24.13l-4.03,4.75c-.74-.8-1.49-1.55-2.26-2.29l4.72-4.04c.54.52,1.06,1.06,1.57,1.57h0ZM199.71,17.83l-3.06,3.58c-.4-.4-.77-.8-1.2-1.2l3.58-3.03c.23.23.46.43.69.66h0ZM176.4,31.14l-2.46,5.18-5.01-2.89,3.24-4.75c1.49.74,2.89,1.54,4.24,2.46h0ZM179.95,23.76l-2.58,5.41c-1.29-.86-2.6-1.6-3.95-2.29l3.38-4.95c1.06.57,2.12,1.17,3.15,1.83h0ZM183.79,15.69l-2.69,5.64c-.89-.57-1.83-1.12-2.78-1.6l3.52-5.12c.66.37,1.32.74,1.95,1.09h0ZM187.37,8.24l-2.03,4.24c-.46-.29-.94-.57-1.46-.83l2.66-3.89c.29.17.57.34.83.49h0ZM168.33,27.11l-1.06,5.64-5.61-1.52,1.92-5.38c1.63.29,3.2.72,4.75,1.26h0ZM169.82,19.04l-1.09,5.9c-1.43-.49-2.92-.89-4.41-1.17l1.98-5.64c1.2.26,2.37.57,3.52.92h0ZM171.45,10.31l-1.14,6.1c-1-.31-2.03-.6-3.09-.83l2.06-5.87c.74.2,1.46.37,2.18.6h0ZM172.97,2.15l-.86,4.61c-.55-.14-1.09-.29-1.63-.43l1.57-4.44c.31.09.6.17.92.26h0ZM134.3,33.69l4.38,3.72-4.12,4.09-3.72-4.35c1.09-1.23,2.23-2.41,3.47-3.46h0ZM128.09,28.37l4.55,3.89c-1.14,1-2.23,2.06-3.23,3.21l-3.89-4.52c.83-.92,1.69-1.77,2.58-2.58h0ZM121.3,22.56l4.72,4.04c-.77.74-1.55,1.49-2.26,2.29l-4.06-4.75c.54-.52,1.06-1.06,1.6-1.57h0ZM115.03,17.17l3.52,3.03c-.4.4-.8.8-1.17,1.2l-3.03-3.58c.23-.23.46-.43.69-.66h0ZM141.85,28.68l3.23,4.75-5.01,2.89-2.46-5.18c1.35-.92,2.75-1.72,4.24-2.46h0ZM137.22,21.93l3.38,4.95c-1.35.69-2.69,1.43-3.95,2.29l-2.58-5.41c1.03-.66,2.06-1.26,3.15-1.83h0ZM132.15,14.6l3.55,5.12c-.95.49-1.89,1.03-2.81,1.6l-2.66-5.64c.63-.34,1.29-.72,1.92-1.09h0ZM127.48,7.76l2.63,3.89c-.49.26-.97.54-1.46.83l-2-4.24c.26-.14.54-.31.83-.49h0ZM150.44,25.85l1.89,5.38-5.58,1.52-1.06-5.64c1.55-.54,3.12-.97,4.75-1.26h0ZM147.69,18.12l2,5.64c-1.52.29-2.98.69-4.41,1.17l-1.09-5.9c1.14-.34,2.32-.66,3.49-.92h0ZM144.72,9.7l2.09,5.87c-1.06.23-2.09.52-3.09.83l-1.15-6.1c.72-.23,1.43-.4,2.15-.6h0ZM141.97,1.89l1.57,4.44c-.54.14-1.09.29-1.63.43l-.86-4.61c.29-.09.6-.17.92-.26h0ZM159.46,25.3l.46,5.7h-5.81l.46-5.7c.8-.06,1.63-.09,2.43-.09s1.66.03,2.46.09h0ZM158.83,17.15l.46,5.95c-.74-.06-1.52-.09-2.29-.09s-1.52.03-2.26.09l.46-5.95c.6-.03,1.2-.06,1.8-.06s1.23.03,1.83.06h0ZM158.14,8.24l.49,6.21c-.54,0-1.09-.03-1.63-.03s-1.06.03-1.6.03l.49-6.21h2.26ZM157.48,0l.37,4.67h-1.69l.37-4.67h.94ZM179.7,86.02l-4.35-3.72,4.12-4.09,3.72,4.35c-1.09,1.23-2.23,2.4-3.49,3.46h0Z"/>
      <path class="cls-1" d="M0,119.68h2.49v-3.81h3.53c1.3,0,2.52-.06,3.35-1.06.37-.44.69-1.1.69-2.07,0-.77-.2-1.47-.56-1.98-.8-1.14-2.19-1.19-3.26-1.19H0v10.11h0ZM2.49,111.33h2.85c1.06,0,1.43,0,1.78.3.24.23.43.57.43,1.11,0,1.34-1.12,1.35-1.93,1.35h-3.12v-2.76h0ZM10.71,119.68h2.49v-3.81h3.54c1.3,0,2.52-.06,3.35-1.06.37-.44.69-1.1.69-2.07,0-.77-.2-1.47-.56-1.98-.8-1.14-2.19-1.19-3.26-1.19h-6.24v10.11h0ZM13.2,111.33h2.85c1.06,0,1.43,0,1.77.3.24.23.43.57.43,1.11,0,1.34-1.12,1.35-1.93,1.35h-3.12v-2.76h0ZM22.01,119.67h8.14v-1.86h-5.61v-8.24h-2.53v10.1h0ZM36.44,119.67h9.7v-1.8h-7.17v-2.42h6.66v-1.79h-6.66v-2.28h6.88v-1.82h-9.42v10.1h0ZM47.36,119.68h2.35v-10.11h-2.35v10.11h0ZM60.79,116.45c-.01-.75-.03-1.9-.99-2.92-1.1-1.18-2.78-1.39-3.76-1.39-2.58,0-4.85,1.18-4.85,3.84,0,1.03.4,2.19,1.36,2.96.96.79,2.23,1.02,3.46,1.02,2.03,0,3.81-.72,4.87-2.47l-2.45-.24c-.21.27-.77,1-2.3,1-.77,0-1.57-.23-2.08-.83-.26-.3-.39-.75-.44-.97h7.19ZM53.67,115.15c.14-.34.29-.66.7-.93.43-.29,1.06-.42,1.62-.42.63,0,1.2.17,1.55.37.49.29.6.7.64.97h-4.51ZM68.52,117.1c-.1.19-.2.41-.66.69-.43.26-.99.39-1.5.39-1.67,0-2.36-1.2-2.36-2.15,0-1.22,1.02-2.12,2.39-2.12,1.25,0,1.73.57,1.93.83l2.46-.28c-.2-.4-.46-.89-1.17-1.4-.96-.67-2.23-.92-3.22-.92-2.03,0-4.78.99-4.78,3.91,0,2.58,2.26,3.94,4.67,3.94,1.5,0,3.65-.59,4.65-2.55l-2.4-.33h0ZM71.86,112.43h-1.17v1.4h1.17v3.88c0,.54.01,1.32.86,1.76.4.2.9.26,1.4.26.57,0,1.14-.06,1.72-.12v-1.69c-.24.03-.39.04-.72.04-.67,0-.92-.16-.92-.86v-3.28h1.62v-1.4h-1.62v-1.93h-2.35v1.93h0ZM79.22,112.43h-2.38v7.25h2.38v-3.49c0-.63.11-1.19.84-1.57.56-.3,1.37-.32,1.57-.32.24,0,.42.02.62.03v-2.13c-2.1.04-2.69.95-3.03,1.49v-1.25h0ZM83.22,109.91v1.6h2.35v-1.6h-2.35ZM83.22,112.43v7.25h2.35v-7.25h-2.35ZM93.95,117.1c-.1.19-.2.41-.66.69-.43.26-.99.39-1.5.39-1.68,0-2.36-1.2-2.36-2.15,0-1.22,1.02-2.12,2.39-2.12,1.25,0,1.73.57,1.93.83l2.46-.28c-.2-.4-.46-.89-1.17-1.4-.96-.67-2.23-.92-3.22-.92-2.03,0-4.78.99-4.78,3.91,0,2.58,2.26,3.94,4.67,3.94,1.5,0,3.65-.59,4.65-2.55l-2.41-.33h0ZM102.31,115.44c0,1.2.01,2.53,1.6,3.61.63.41,1.26.62,1.75.73.7.17,1.42.25,2.13.25,1.53,0,3.48-.39,4.52-1.55.86-.94.86-1.96.87-3.03v-5.87h-2.52v5.96c.03,1.01-.19,1.34-.43,1.63-.4.46-1.02.72-1.98.8-.74.03-1.47.06-2.29-.33-.96-.46-1.14-1.22-1.14-2.12v-5.94h-2.52v5.87h0ZM115.2,112.43h-1.17v1.4h1.17v3.88c0,.54.02,1.32.86,1.76.4.2.9.26,1.4.26.57,0,1.14-.06,1.72-.12v-1.69c-.24.03-.39.04-.72.04-.67,0-.92-.16-.92-.86v-3.28h1.62v-1.4h-1.62v-1.93h-2.35v1.93h0ZM120.2,109.91v1.6h2.35v-1.6h-2.35ZM120.2,112.43v7.25h2.35v-7.25h-2.35ZM124.52,119.68h2.35v-10.11h-2.35v10.11h0ZM128.87,109.91v1.6h2.35v-1.6h-2.35ZM128.87,112.43v7.25h2.35v-7.25h-2.35ZM133.41,112.43h-1.17v1.4h1.17v3.88c0,.54.01,1.32.86,1.76.4.2.9.26,1.4.26.57,0,1.14-.06,1.72-.12v-1.69c-.24.03-.39.04-.72.04-.67,0-.91-.16-.91-.86v-3.28h1.62v-1.4h-1.62v-1.93h-2.35v1.93h0ZM138.4,109.91v1.6h2.35v-1.6h-2.35ZM138.4,112.43v7.25h2.35v-7.25h-2.35ZM151.82,116.45c-.01-.75-.03-1.9-.99-2.92-1.1-1.18-2.78-1.39-3.76-1.39-2.58,0-4.85,1.18-4.85,3.84,0,1.03.4,2.19,1.36,2.96.96.79,2.23,1.02,3.46,1.02,2.03,0,3.81-.72,4.87-2.47l-2.45-.24c-.21.27-.77,1-2.3,1-.77,0-1.57-.23-2.07-.83-.26-.3-.39-.75-.44-.97h7.18ZM144.7,115.15c.14-.34.29-.66.7-.93.43-.29,1.06-.42,1.62-.42.63,0,1.2.17,1.55.37.49.29.6.7.65.97h-4.51ZM152.73,117.4c.33,1.3,1.27,2.54,4.61,2.54,2.05,0,3.06-.52,3.59-1,.44-.4.7-.99.7-1.6,0-.77-.4-1.43-1.1-1.76-.49-.24-1.1-.3-1.65-.36-2.05-.2-2.28-.21-2.71-.33-.33-.07-.61-.21-.61-.51,0-.46.67-.72,1.65-.72,1.13,0,1.73.37,1.95.89l2.45-.16c-.1-.34-.27-.94-1-1.47-1.07-.77-2.5-.83-3.25-.83-2.43,0-4.22.79-4.22,2.52s1.92,1.99,2.68,2.08c.57.07,1.14.1,1.72.17,1.09.14,1.66.24,1.66.74,0,.4-.42.54-.53.59-.4.14-.82.16-1.25.16-.93,0-1.88-.17-2.15-1.12l-2.53.18h0Z"/>
      <path class="cls-2" d="M198.89,94.24c0-.34.04-.67.12-.98s.2-.6.35-.87.33-.51.54-.73.44-.4.7-.56.53-.27.82-.36.6-.13.91-.13.62.04.91.13.57.2.82.36.49.34.7.56.39.46.54.73.26.56.35.87.12.64.12.98-.04.67-.12.98-.2.6-.35.87-.33.51-.54.73-.44.4-.7.56-.53.28-.82.36-.6.13-.91.13-.62-.04-.91-.13-.57-.2-.82-.36-.49-.34-.7-.56-.39-.46-.54-.73-.26-.56-.35-.87-.12-.64-.12-.98ZM199.3,94.24c0,.3.04.59.11.86s.17.53.31.77.29.45.47.65.39.36.61.5.46.24.72.32.52.11.8.11.54-.04.8-.11.5-.18.72-.32.43-.3.61-.5.34-.41.47-.65.23-.5.3-.77.11-.56.11-.86-.04-.59-.11-.86-.17-.53-.3-.77-.29-.45-.47-.64-.39-.36-.61-.49-.46-.24-.72-.32-.52-.11-.8-.11c-.42,0-.81.08-1.17.25s-.69.39-.96.67-.49.62-.65,1.01-.24.81-.24,1.26ZM201.54,94.55v1.67h-.47v-4.06h1.25c.47,0,.84.1,1.09.3s.38.5.38.9c0,.22-.06.41-.18.57s-.29.29-.51.39c.23.08.39.21.48.39s.14.38.14.61v.22c0,.12,0,.24.02.34s.03.2.06.27v.08h-.49s-.03-.1-.04-.16-.02-.13-.02-.2,0-.13,0-.19v-.35c0-.27-.06-.46-.18-.58s-.33-.18-.62-.18h-.91ZM201.54,94.11h.88c.12,0,.23-.02.34-.05s.21-.08.29-.14.15-.14.2-.23.07-.2.07-.32c0-.14-.02-.25-.05-.35s-.09-.18-.17-.24-.18-.11-.31-.14-.29-.04-.47-.04h-.77v1.51Z"/>
    </g>
  </g>
</svg>