<?xml version="1.0" encoding="UTF-8"?>
<svg id="Layer_2" data-name="Layer 2" xmlns="http://www.w3.org/2000/svg" viewBox="0 0 525.9 517.99">
  <defs>
    <style>
      .cls-1 {
        stroke-dasharray: 7.35 7.35;
      }

      .cls-1, .cls-2, .cls-3, .cls-4, .cls-5, .cls-6, .cls-7, .cls-8, .cls-9, .cls-10, .cls-11, .cls-12, .cls-13, .cls-14 {
        stroke-linejoin: round;
      }

      .cls-1, .cls-2, .cls-5, .cls-6, .cls-7, .cls-8, .cls-9, .cls-10, .cls-11, .cls-13 {
        fill: none;
      }

      .cls-1, .cls-2, .cls-5, .cls-7, .cls-9, .cls-10, .cls-11, .cls-13 {
        stroke-linecap: round;
      }

      .cls-1, .cls-2, .cls-5, .cls-7, .cls-9, .cls-13 {
        stroke: #0078da;
        stroke-width: .91px;
      }

      .cls-2 {
        stroke-dasharray: 7.48 7.48;
      }

      .cls-3 {
        stroke-width: 1.52px;
      }

      .cls-3, .cls-4, .cls-6, .cls-8, .cls-10, .cls-11, .cls-12, .cls-14 {
        stroke: #fff;
      }

      .cls-3, .cls-4, .cls-15, .cls-12 {
        fill: #001689;
      }

      .cls-4, .cls-6, .cls-14 {
        stroke-width: 1.41px;
      }

      .cls-16 {
        opacity: .15;
      }

      .cls-16, .cls-17 {
        fill: #fff;
      }

      .cls-7 {
        stroke-dasharray: 6.81;
      }

      .cls-8, .cls-10, .cls-12 {
        stroke-width: .78px;
      }

      .cls-9 {
        stroke-dasharray: 7.44 7.44;
      }

      .cls-11 {
        stroke-width: 1.56px;
      }

      .cls-13 {
        stroke-dasharray: 7.03 7.03;
      }

      .cls-14 {
        fill: #f0851c;
      }
    </style>
  </defs>
  <g id="Mobile_Rooms" data-name="Mobile Rooms">
    <g id="Showerhead">
      <g>
        <g>
          <line class="cls-11" x1="266.87" y1="20.41" x2="268.25" y2="236.26"/>
          <polygon class="cls-11" points="525.11 148.26 525.11 362.25 505.22 374.32 505.57 158.89 525.11 148.26"/>
          <polygon class="cls-11" points=".81 155.72 .78 368.25 14.5 377.2 14.5 164.83 .81 155.72"/>
          <polygon class="cls-11" points="505.22 373.96 252.03 517.21 14.5 377.2 268.25 236.26 505.22 373.96"/>
          <polygon class="cls-11" points="272.3 .78 .78 155.15 13.53 164.24 266.2 20.41 505.57 158.9 525.11 148.26 272.3 .78"/>
        </g>
        <g>
          <line class="cls-10" x1="227.76" y1="287.16" x2="440.93" y2="410.35"/>
          <line class="cls-10" x1="235.91" y1="254.31" x2="474.8" y2="392.12"/>
          <line class="cls-10" x1="202.83" y1="272.8" x2="227.76" y2="287.16"/>
          <line class="cls-10" x1="227.61" y1="327.73" x2="230.94" y2="329.65"/>
          <line class="cls-10" x1="192.05" y1="307.2" x2="406.03" y2="430.67"/>
          <line class="cls-10" x1="166.62" y1="292.86" x2="192.05" y2="307.2"/>
          <line class="cls-10" x1="154.48" y1="326.15" x2="369.55" y2="450.47"/>
          <line class="cls-10" x1="130.67" y1="312.66" x2="154.48" y2="326.15"/>
          <line class="cls-10" x1="96.28" y1="332.98" x2="334.13" y2="470.79"/>
          <line class="cls-10" x1="58.76" y1="352.78" x2="298.17" y2="491.11"/>
          <line class="cls-10" x1="153.51" y1="331.99" x2="44.7" y2="394.98"/>
          <line class="cls-10" x1="168.57" y1="323.3" x2="158.26" y2="329.25"/>
          <line class="cls-10" x1="192.07" y1="309.73" x2="171.94" y2="321.35"/>
          <line class="cls-10" x1="242.42" y1="280.66" x2="148.17" y2="335.08"/>
          <line class="cls-10" x1="293.49" y1="250.92" x2="242.42" y2="280.66"/>
          <line class="cls-10" x1="219.83" y1="334.36" x2="79.34" y2="415.56"/>
          <line class="cls-10" x1="272.58" y1="303.9" x2="219.83" y2="334.36"/>
          <line class="cls-10" x1="328.91" y1="271.24" x2="272.58" y2="303.9"/>
          <line class="cls-10" x1="114.25" y1="435.88" x2="364.34" y2="291.56"/>
          <polyline class="cls-10" points="398.99 312.14 325.6 354.75 149.16 456.73"/>
          <line class="cls-10" x1="396.49" y1="354.31" x2="184.59" y2="476.52"/>
          <line class="cls-10" x1="469.07" y1="353.04" x2="218.98" y2="497.37"/>
          <line class="cls-10" x1="447.19" y1="406.34" x2="428.96" y2="416.87"/>
        </g>
      </g>
      <g>
        <polygon class="cls-6" points="295.72 149.33 294.9 172.98 319.89 187.97 320.88 163.55 295.72 149.33"/>
        <polyline class="cls-6" points="319.54 180.58 300.78 169.7 300.78 152.19"/>
        <line class="cls-6" x1="300.78" y1="169.7" x2="294.9" y2="172.98"/>
      </g>
      <g>
        <line class="cls-5" x1="244.19" y1="85.56" x2="244" y2="89.99"/>
        <line class="cls-13" x1="243.69" y1="97.01" x2="242.6" y2="121.6"/>
        <line class="cls-5" x1="242.45" y1="125.11" x2="242.26" y2="129.53"/>
      </g>
      <g>
        <line class="cls-5" x1="251.92" y1="89.95" x2="251.73" y2="94.38"/>
        <line class="cls-1" x1="251.42" y1="101.73" x2="250.32" y2="127.44"/>
        <line class="cls-5" x1="250.17" y1="131.11" x2="249.98" y2="135.55"/>
      </g>
      <g>
        <line class="cls-5" x1="258.56" y1="94.33" x2="258.37" y2="98.75"/>
        <line class="cls-9" x1="258.06" y1="106.18" x2="256.96" y2="132.21"/>
        <line class="cls-5" x1="256.81" y1="135.93" x2="256.62" y2="140.35"/>
      </g>
      <g>
        <line class="cls-5" x1="265.48" y1="97.96" x2="265.48" y2="102.43"/>
        <line class="cls-2" x1="265.48" y1="109.9" x2="265.48" y2="136.06"/>
        <line class="cls-5" x1="265.48" y1="139.8" x2="265.48" y2="144.27"/>
      </g>
      <line class="cls-7" x1="273.2" y1="93.85" x2="273.2" y2="148.97"/>
      <line class="cls-7" x1="280.66" y1="89.09" x2="280.66" y2="146.16"/>
      <line class="cls-7" x1="288.03" y1="85.44" x2="288.03" y2="143.01"/>
      <polyline class="cls-6" points="339.34 277.49 274.86 315.41 201.88 272.74"/>
      <line class="cls-6" x1="274.99" y1="152.56" x2="274.99" y2="315.79"/>
      <line class="cls-6" x1="202.34" y1="110.23" x2="202.34" y2="273.17"/>
      <line class="cls-6" x1="339.34" y1="115.72" x2="339.34" y2="277.49"/>
      <g>
        <polygon class="cls-14" points="243.12 80.94 267.19 67.48 287.17 80.14 263.49 93.83 243.12 80.94"/>
        <polygon class="cls-14" points="224.07 58.74 234.96 53.19 234.96 63.62 224.07 70.01 224.07 58.74"/>
        <polygon class="cls-14" points="227.32 61.1 230.88 58.82 260.98 77.56 257.95 80.2 227.32 61.1"/>
        <path class="cls-14" d="M255.65,81.81l6.24,4.95c.51.41,1.22.46,1.79.14l11.78-6.68c1.02-.58,1.1-2.01.15-2.7l-7.07-5.11c-.53-.38-1.24-.41-1.79-.06l-10.95,6.84c-.94.59-1.02,1.93-.15,2.62Z"/>
      </g>
      <path class="cls-4" d="M202.34,110.48s-1.41-9.47,1.67-7.69c3.07,1.77,70.98,41.08,70.98,41.08v8.69l-72.65-42.08Z"/>
      <path class="cls-3" d="M274.99,143.23l63.36-35.85s4.76,5.21.75,7.96l-64.1,37.22v-9.33Z"/>
      <polygon class="cls-16" points="202.34 110.48 274.99 152.56 338.44 114.13 338.77 276.34 274.86 315.41 201.88 272.74 202.34 110.48"/>
      <g>
        <polygon class="cls-12" points="110.74 356.83 110.74 297.92 157.44 271.82 157.76 330.37 110.74 356.83"/>
        <path class="cls-8" d="M110.51,297.51l-31.28-17.93,32.25-18.84c1.48.88,2.68,1.6,3.03,1.81.75.46,1.24,1.55,1.37,2.95-.02,0-.04.01-.06.02l-16.58,9.23c-.26.15-.42.41-.43.71,0,.3.15.57.41.72l20.34,12.08c.13.08.28.12.42.12s.28-.04.41-.11l21.14-12.1c.26-.15.42-.42.42-.72,0-.3-.15-.57-.41-.72l-20.46-11.82c-.26-.15-.57-.15-.83,0l-.27.15c-.79-1.69-2.19-3.11-4.44-4.52l10.73-6.16,30.94,19.02-46.7,26.1Z"/>
        <path class="cls-8" d="M115.9,266.49c-.01.48.24.88.72,1.13.34.18.77.26,1.21.26.69,0,1.42-.21,1.95-.6.14-.11.27-.23.38-.35v7.74l-11.59,6.52-9.12-5.42c-.11-.07-.17-.18-.17-.31,0-.13.07-.24.18-.3l16.44-9.15c0,.16,0,.32,0,.48Z"/>
        <path class="cls-8" d="M120.4,275.07l11.26,6.2-11.51,6.59c-.11.06-.25.06-.36,0l-10.75-6.39,11.36-6.39Z"/>
        <path class="cls-8" d="M132.14,280.99l-11.5-6.33v-8.8c.03-.26.03-.53-.03-.81,0,0,0,0,0,0,0,0,0,0,0,0-.1-.54-.25-1.05-.44-1.54l.32-.18c.11-.06.24-.06.35,0l20.46,11.82c.11.06.18.18.18.31,0,.13-.07.24-.18.31l-9.15,5.24Z"/>
        <polygon class="cls-12" points="79.08 279.32 110.27 297.92 110.27 356.83 80.65 340.28 79.08 279.32"/>
      </g>
      <g>
        <g>
          <path class="cls-15" d="M444.36,300.92c1.2-.73,2.24-1.3,3.07-1.82-.42,7.09-2.61,11.2-7.29,13.44-6.25,3.07-4.27,15.27-4.17,15.79,0,.1.89,5.42-1.67,6.83-1.41.73-9.8,5.52-17.87,10.11-8.13,4.64-16.57,9.43-17.61,9.95-1.46.78-5.84,3.07-12.56,1.3-2.81-.73-4.53-1.77-5.21-3.13-.42-.78-.42-1.67-.05-2.71.68-1.77,1.15-3.39,1.15-7.19,0-3.18.26-8.91.36-10.84,2.76,2.61,6.3,4.43,13.03,4.43,1.88,0,4.01-.16,6.41-.47.16,0,.26-.16.26-.31-.05-.16-.16-.26-.36-.26-2.4.31-4.53.47-6.41.47-6.77,0-10.21-1.93-12.97-4.69l-.05-.05c-.94-.94-1.82-1.98-2.76-3.13l-.47-.52c-2.66-3.18-3.18-8.34-3.23-11.83.36,1.25.99,2.45,1.93,3.44,1.41,1.46,3.23,2.4,5.11,3.13,3.75,1.3,7.66,2.45,11.67,2.5,5,.05,9.95-1.3,14.38-3.6,1.72-.99,5.94-3.39,7.71-4.38,5.26-2.97,17.3-10.32,25.53-15.27.1-.05.21-.1.26-.16.63-.36,1.25-.73,1.82-1.04Z"/>
          <path class="cls-15" d="M444.36,300.92c-.57.31-1.2.68-1.82,1.04.68-.36,1.25-.73,1.82-1.04Z"/>
          <path class="cls-15" d="M435.61,305.92c2.34-1.35,4.64-2.66,6.67-3.8-8.23,4.95-20.27,12.3-25.53,15.27-1.77.99-5.99,3.39-7.71,4.38-4.43,2.29-9.38,3.65-14.38,3.6-4.01-.05-7.92-1.2-11.67-2.5-1.88-.73-3.7-1.67-5.11-3.13-.94-.99-1.56-2.19-1.93-3.44-.63-1.56.26-4.32.26-4.32,1.2-4.27,9.9-10.06,17.92-14.64.05,0,10.68-5.47,13.49-6.98v.21c.16.05.26.16.26.16,7.97,4.38,27.56,15.16,27.56,15.16-.05-3.6,0-11.2,0-18.44.1,9.01.16,18.44.16,18.44v.05Z"/>
        </g>
        <g>
          <path class="cls-8" d="M442.54,301.96c.63-.36,1.25-.73,1.82-1.04"/>
          <path class="cls-8" d="M447.43,299.09c-.42,7.09-2.61,11.2-7.29,13.44-6.25,3.07-4.27,15.27-4.17,15.79,0,.1.89,5.42-1.67,6.83-1.41.73-9.8,5.52-17.87,10.11-8.13,4.64-16.57,9.43-17.61,9.95-1.46.78-5.84,3.07-12.56,1.3-2.81-.73-4.53-1.77-5.21-3.13-.42-.78-.42-1.67-.05-2.71.68-1.77,1.15-3.39,1.15-7.19,0-3.18.26-8.91.36-10.84,2.76,2.61,6.3,4.43,13.03,4.43,1.88,0,4.01-.16,6.41-.47.16,0,.26-.16.26-.31-.05-.16-.16-.26-.36-.26-2.4.31-4.53.47-6.41.47-6.77,0-10.21-1.93-12.97-4.69l-.05-.05c-.94-.94-1.82-1.98-2.76-3.13l-.47-.52c-2.66-3.18-3.18-8.34-3.23-11.83.36,1.25.99,2.45,1.93,3.44,1.41,1.46,3.23,2.4,5.11,3.13,3.75,1.3,7.66,2.45,11.67,2.5,5,.05,9.95-1.3,14.38-3.6,1.72-.99,5.94-3.39,7.71-4.38,5.26-2.97,17.3-10.32,25.53-15.27"/>
          <path class="cls-8" d="M445.14,266.37c-3.13,2.03-9.43,6.1-9.69,6.15,0,0-.05,0-.05-.05-7.71-4.38-16.31-9.53-24.07-13.86"/>
          <path class="cls-8" d="M435.45,272.52v14.9c0,7.24-.05,14.85,0,18.44,0,0-19.59-10.79-27.56-15.16,0,0-.1-.1-.26-.16v-26.62c0-5.47.83-6.1,1.98-6.93.99-.73,9.27-5.26,11.78-6.67.52-.26,1.2-.26,1.67.05l23.65,13.96c.42.21.68.68.63,1.15-.05,4.22-.26,18.81,0,28.45.05,1.98.1,3.6.1,5.16-.83.52-1.88,1.09-3.07,1.82-.57.31-1.15.68-1.82,1.04-.05.05-.16.1-.26.16-2.03,1.15-4.32,2.45-6.67,3.8v-.05s-.05-9.43-.16-18.44c0-6.2-.05-12.19-.1-14.9l.05-.05,9.74-6.1c1.15-.73,1.82-1.15,1.77-1.15"/>
          <path class="cls-8" d="M375.95,316.29c-.63-1.56.26-4.32.26-4.32,1.2-4.27,9.9-10.06,17.92-14.64.05,0,10.68-5.47,13.49-6.98.05-.05.16-.05.21-.1"/>
        </g>
      </g>
      <path class="cls-17" d="M76.5,239.55s.49.17,1.27.17c.96,0,2.41-.23,4.22-1.24,3.18-1.77,32.81-18.66,33.11-18.83l.14-.08v-74.89c0-.47-1.44-1.45-2.65-2.19-1.78-1.08-3.87-2.26-4.97-2.87-.53-.29-1.18-.29-1.71.02l-35.09,20.34c-.4.23-.65.66-.65,1.13v74.81l6.28,3.62.04.02ZM81.72,238c-1.15.64-2.15.95-2.95,1.08v-73.43c0-.26.14-.49.36-.62l35.55-19.89v74.11c-2.21,1.26-29.9,17.05-32.97,18.75ZM114.56,144.58l-35.7,19.97c-.4.22-.64.64-.64,1.1v73.5c-.66.05-1.13-.01-1.36-.07l-.6-75.11,36.89-20.48c.86.57,1.25.91,1.42,1.09ZM106.19,140.11c.36-.21.81-.21,1.17-.01,1.09.6,3.18,1.78,4.95,2.86.11.07.22.14.33.2l-36.64,20.34-5-2.98s.06-.05.1-.07l35.09-20.34ZM70.72,161.1s0-.07,0-.11l4.99,2.98.6,74.85-5.6-3.22v-74.49Z"/>
      <polygon class="cls-8" points="79.22 279.57 79.22 271.48 125.98 244.41 125.98 252.33 79.22 279.57"/>
      <g>
        <path class="cls-12" d="M104.79,255.88l2.62-1.48s.08-.03.11-.03.08,0,.11.03c.18.1.51.31.98.6,1.11.7,2.98,1.87,5.36,3.18,3.79,2.09,5.58,4.08,6.14,6.86-1.32,1.81-3.24,1.15-3.74.93-.05-1.79-.65-3.23-1.62-3.83-.93-.57-7.78-4.65-9.97-5.86-.11-.06-.12-.16-.12-.2,0-.04.01-.14.12-.2Z"/>
        <path class="cls-12" d="M117.81,266.73c.74,0,1.6-.23,2.35-1v.09c-.08.52-.38.87-.66,1.08-.79.59-2.01.63-2.65.3-.32-.17-.47-.4-.47-.69,0,0,0-.02,0-.03.32.12.84.26,1.43.26Z"/>
      </g>
    </g>
  </g>
</svg>