<?xml version="1.0" encoding="UTF-8"?>
<svg id="Layer_2" data-name="Layer 2" xmlns="http://www.w3.org/2000/svg" viewBox="0 0 406.6 235.59">
  <defs>
    <style>
      .cls-1 {
        fill: #f0851c;
      }

      .cls-2 {
        stroke-width: 2px;
      }

      .cls-2, .cls-3, .cls-4 {
        fill: none;
        stroke: #fff;
        stroke-linecap: round;
        stroke-linejoin: round;
      }

      .cls-3 {
        stroke-width: .75px;
      }
    </style>
  </defs>
  <g id="Vent_Filled" data-name="Vent Filled">
    <g>
      <g>
        <polygon class="cls-1" points="354.84 43.35 354.84 99.37 338.11 109.03 338.11 53.01 354.84 43.35"/>
        <path class="cls-1" d="M354.84,43.35l-16.73,9.66v-3.23c0-1.86-1.01-3.37-2.42-4.18l-.23-.13-1.54-.89v-13.37h.28l20.64,12.14Z"/>
        <path class="cls-1" d="M338.11,53.01v56.02l-200.76,115.9v-64.82c0-1.73.92-3.32,2.42-4.18l191.09-110.33c.78-.45,1.61-.66,2.41-.66.18,0,.36.01.54.03.08.01.16.02.24.04.06.01.11.02.17.03.04.01.07.01.11.03.11.02.22.04.32.08.08.02.15.04.22.07.09.03.17.06.25.1.12.05.23.1.34.15.08.05.16.09.23.13,1.41.81,2.42,2.32,2.42,4.18v3.23Z"/>
        <path class="cls-1" d="M333.92,44.58l1.54.89c-.11-.05-.22-.1-.34-.15-.08-.04-.16-.07-.25-.1-.07-.03-.14-.05-.22-.07-.11-.03-.21-.06-.32-.08-.04-.02-.07-.02-.11-.03-.05-.02-.11-.03-.17-.03-.08-.02-.16-.03-.24-.04-.18-.02-.36-.03-.54-.03-.8,0-1.63.21-2.41.66l-191.09,110.33c-1.5.86-2.42,2.45-2.42,4.18v8.8l-4.18-2.41v-8.81c0-1.72.92-3.32,2.41-4.18l68.69-39.65h0s64.83-37.43,64.83-37.43h0s57.58-33.25,57.58-33.25c1.61-.93,3.42-.81,4.83,0l2.41,1.4Z"/>
        <path class="cls-1" d="M301.17,32.21l17.1-9.88,3.53-2.04c.46-.26,1.09-.22,1.78.18l7.84,4.53c1.38.8,2.5,2.74,2.5,4.34v15.24l-2.41-1.4c-1.41-.81-3.22-.93-4.83,0l-57.58,33.24v-9.65c0-1.6-1.13-3.55-2.51-4.35l-7.84-4.52c-.69-.4-1.32-.44-1.77-.18l33.77-19.5,10.42-6.01Z"/>
        <path class="cls-1" d="M318.2,22.21l.07.12-17.1,9.88-35.28-20.9c-.19-.11-.39-.21-.59-.29-.82-.34-1.66-.43-2.46-.32-.11.01-.21.03-.31.05-.44.09-.85.24-1.24.43l16.5-9.53c1.4-.81,3.21-.93,4.82,0l35.59,20.56Z"/>
        <path class="cls-1" d="M301.17,32.21l-10.42,6.01-27.76-16.03c-.97-.56-2.06-.49-2.9,0l-1.45.84v-7.54c0-1.86,1.01-3.37,2.42-4.18.07-.04.15-.08.23-.13.39-.19.8-.34,1.24-.43.1-.02.2-.03.31-.05.8-.11,1.65-.02,2.46.32.2.08.4.18.59.29l35.28,20.9Z"/>
        <path class="cls-1" d="M258.64,23.03l1.45-.84c.84-.49,1.93-.56,2.9,0l27.76,16.03-33.77,19.5-31.05,17.93-27.77-16.03c-.97-.56-2.05-.49-2.9,0l63.38-36.59Z"/>
        <path class="cls-1" d="M269.1,76.42h0s-64.83,37.43-64.83,37.43v-9.65c0-1.6-1.12-3.55-2.51-4.35l-7.84-4.52c-.69-.4-1.31-.44-1.77-.18l33.78-19.5,31.05-17.93c.45-.26,1.08-.22,1.77.18l7.84,4.52c1.38.8,2.51,2.75,2.51,4.35v9.65Z"/>
        <path class="cls-1" d="M261.29,11.18c-.08.05-.16.09-.23.13l.23-.13Z"/>
        <path class="cls-1" d="M225.93,75.65l-33.78,19.5-31.05,17.93-29.22-16.87,63.38-36.59c.85-.49,1.93-.56,2.9,0l27.77,16.03Z"/>
        <path class="cls-1" d="M204.27,113.85h0s-68.69,39.66-68.69,39.66c-1.49.86-2.41,2.46-2.41,4.18v-12.44c0-1.6-1.13-3.55-2.51-4.35l-7.84-4.52c-.69-.4-1.32-.44-1.77-.18l40.05-23.12,31.05-17.93c.46-.26,1.08-.22,1.77.18l7.84,4.52c1.39.8,2.51,2.75,2.51,4.35v9.65Z"/>
        <path class="cls-1" d="M121.05,136.2c.45-.26,1.08-.22,1.77.18l7.84,4.52c1.38.8,2.51,2.75,2.51,4.35v21.25l-68.04-39.29c-1.61-.92-3.42-.81-4.83,0l-8.46,4.89L5.35,105.26c-.96-.56-2.05-.49-2.9,0l71.1-41.05c.85-.49,1.94-.56,2.9,0l55.43,32,29.22,16.87-40.05,23.12Z"/>
        <polygon class="cls-1" points="137.35 168.91 137.35 224.93 120.62 234.59 120.62 178.57 137.35 168.91"/>
        <path class="cls-1" d="M137.35,168.91l-16.73,9.66-72.22-41.7c-1.61-.93-3.42-.81-4.83,0l8.27-4.77,8.46-4.89c1.41-.81,3.22-.92,4.83,0l68.04,39.29,4.18,2.41Z"/>
        <path class="cls-1" d="M120.62,178.57v56.02l-79.46-45.88v-47.65c0-1.86,1-3.37,2.41-4.19,1.41-.81,3.22-.93,4.83,0l72.22,41.7Z"/>
        <path class="cls-1" d="M51.84,132.1l-8.27,4.77c-1.41.82-2.41,2.33-2.41,4.19v2.26L3.98,121.85l-2.15-1.24c-.51-.29-.83-.84-.83-1.43v-11.41c0-1.12.61-2.02,1.45-2.51.85-.49,1.94-.56,2.9,0l46.49,26.84Z"/>
        <path class="cls-1" d="M41.16,143.32v26.07L1.87,146.72v-23.66c0-1.08,1.17-1.75,2.11-1.21l37.18,21.47Z"/>
      </g>
      <g>
        <path class="cls-2" d="M262.53,10.75c.1-.02.2-.04.31-.05.8-.11,1.64-.02,2.46.32"/>
        <path class="cls-2" d="M258.64,23.21v-7.72c0-1.86,1.01-3.37,2.42-4.18"/>
        <line class="cls-2" x1="354.84" y1="43.35" x2="334.2" y2="31.21"/>
        <path class="cls-2" d="M318.2,22.21L282.61,1.65c-1.61-.93-3.42-.81-4.82,0l-16.5,9.53-.23.13c.07-.04.15-.08.23-.13.39-.19.8-.34,1.24-.43.1-.02.2-.03.31-.05.8-.11,1.65-.02,2.46.32.2.08.4.18.59.29l35.28,20.9h.02"/>
        <path class="cls-2" d="M290.75,38.22l-27.76-16.03c-.97-.56-2.06-.49-2.9,0l-1.45.84-63.38,36.59"/>
        <path class="cls-2" d="M225.93,75.65l-27.77-16.03c-.97-.56-2.05-.49-2.9,0l-63.38,36.59"/>
        <path class="cls-2" d="M41.16,169.39L1.87,146.72v-23.66c0-1.08,1.17-1.75,2.11-1.21l37.18,21.47"/>
        <line class="cls-2" x1="5.35" y1="105.26" x2="51.84" y2="132.1"/>
        <path class="cls-2" d="M161.1,113.08l-29.22-16.87-55.43-32c-.96-.56-2.05-.49-2.9,0L2.45,105.26"/>
        <line class="cls-2" x1="269.1" y1="66.77" x2="269.1" y2="76.42"/>
        <path class="cls-2" d="M333.92,44.86v-15.52c0-1.6-1.12-3.54-2.5-4.34l-7.84-4.53c-.69-.4-1.32-.44-1.78-.18l-3.53,2.04-17.1,9.88-10.42,6.01-33.77,19.5"/>
        <path class="cls-2" d="M269.1,66.77c0-1.6-1.13-3.55-2.51-4.35l-7.84-4.52c-.69-.4-1.32-.44-1.77-.18l-31.05,17.93-33.78,19.5"/>
        <path class="cls-2" d="M118.06,156.1l2.27-18.64c.08-.61.34-1.04.72-1.26"/>
        <path class="cls-2" d="M204.27,113.85v-9.65c0-1.6-1.12-3.55-2.51-4.35l-7.84-4.52c-.69-.4-1.31-.44-1.77-.18l-31.05,17.93-40.05,23.12c.45-.26,1.08-.22,1.77.18l7.84,4.52c1.38.8,2.51,2.75,2.51,4.35v12.44"/>
        <line class="cls-2" x1="137.35" y1="224.93" x2="120.62" y2="234.59"/>
        <polyline class="cls-2" points="338.11 109.03 354.84 99.37 354.84 43.35 338.11 53.01"/>
        <path class="cls-2" d="M137.35,168.91v56.02l200.76-115.9v-59.25c0-1.86-1.01-3.37-2.42-4.18"/>
        <path class="cls-2" d="M334.22,45.04c-.05-.02-.11-.03-.17-.03-.08-.02-.16-.03-.24-.04"/>
        <path class="cls-2" d="M334.65,45.15c-.1-.04-.21-.06-.32-.08"/>
        <path class="cls-2" d="M335.12,45.32c-.08-.04-.16-.07-.25-.1"/>
        <path class="cls-2" d="M137.35,168.91v-8.8c0-1.73.92-3.32,2.42-4.18l191.09-110.33c.78-.45,1.61-.66,2.41-.66.18,0,.36.01.54.03.08.01.16.02.24.04.06.01.11.02.17.03.04.01.07.01.11.03.11.02.21.05.32.08.08.02.15.04.22.07.09.03.17.06.25.1.12.05.23.1.34.15.08.05.16.09.23.13l-.23-.13-1.54-.89-2.41-1.4c-1.41-.81-3.22-.93-4.83,0l-57.58,33.24h0s-64.83,37.43-64.83,37.43h0s-68.69,39.66-68.69,39.66c-1.49.86-2.41,2.46-2.41,4.18v8.81"/>
        <path class="cls-2" d="M120.62,178.57v56.02l-79.46-45.88v-47.65c0-1.86,1-3.37,2.41-4.19"/>
        <path class="cls-2" d="M133.17,166.5l-68.04-39.29c-1.61-.92-3.42-.81-4.83,0l-8.46,4.89-8.27,4.77c1.41-.81,3.22-.93,4.83,0l72.22,41.7,16.73-9.66-4.18-2.41Z"/>
        <path class="cls-2" d="M5.35,105.26c-.96-.56-2.05-.49-2.9,0-.84.49-1.45,1.39-1.45,2.51v11.41c0,.59.32,1.14.83,1.43l2.15,1.24"/>
        <line class="cls-3" x1="144.47" y1="136.23" x2="191.16" y2="109.28"/>
        <line class="cls-3" x1="215.25" y1="95.37" x2="256.47" y2="71.57"/>
        <line class="cls-3" x1="280.38" y1="57.76" x2="320.62" y2="34.54"/>
      </g>
    </g>
    <g>
      <polygon class="cls-1" points="358.74 75.85 391.91 53.54 406.6 62.01 373.56 84.6 358.74 75.85"/>
      <line class="cls-4" x1="363.44" y1="75.18" x2="374.18" y2="81.48"/>
      <line class="cls-4" x1="365.91" y1="73.74" x2="376.33" y2="79.85"/>
      <line class="cls-4" x1="368.3" y1="72.29" x2="378.63" y2="78.34"/>
      <line class="cls-4" x1="370.54" y1="70.65" x2="380.87" y2="76.7"/>
      <line class="cls-4" x1="372.77" y1="69" x2="383.1" y2="75.06"/>
      <line class="cls-4" x1="375.07" y1="67.45" x2="385.4" y2="73.51"/>
      <line class="cls-4" x1="377.59" y1="66.22" x2="387.92" y2="72.28"/>
      <line class="cls-4" x1="379.77" y1="64.5" x2="390.1" y2="70.55"/>
      <line class="cls-4" x1="382.17" y1="63.1" x2="392.5" y2="69.16"/>
      <line class="cls-4" x1="384.43" y1="61.5" x2="394.76" y2="67.55"/>
      <line class="cls-4" x1="386.64" y1="59.82" x2="396.97" y2="65.88"/>
      <line class="cls-4" x1="389.07" y1="58.45" x2="399.4" y2="64.51"/>
      <line class="cls-4" x1="391.25" y1="56.73" x2="401.58" y2="62.79"/>
    </g>
  </g>
</svg>