<?xml version="1.0" encoding="UTF-8"?>
<svg id="Layer_2" data-name="Layer 2" xmlns="http://www.w3.org/2000/svg" viewBox="0 0 25.06 30.25">
  <defs>
    <style>
      .cls-1 {
        fill: #f0851c;
        stroke: #fff;
        stroke-linecap: round;
        stroke-linejoin: round;
      }

      .cls-2 {
        fill: #fff;
      }
    </style>
  </defs>
  <g id="Thermostat_Filled" data-name="Thermostat Filled">
    <g>
      <path class="cls-1" d="M24.49,11.14c.7,7.77-4.08,15.85-10.69,18.05-6.61,2.2-12.53-2.31-13.24-10.08C-.14,11.34,4.65,3.26,11.26,1.06c6.61-2.2,12.53,2.31,13.24,10.08Z"/>
      <g>
        <path class="cls-2" d="M9.73,14.71l-.16-1.75-1.77.59.16,1.75-.6.2-.36-4,.6-.2.15,1.64,1.77-.59-.15-1.64.6-.2.36,4-.6.2Z"/>
        <path class="cls-2" d="M11.87,10.94c.74-.25,1.28.26,1.36,1.17v.15s-1.89.64-1.89.64c.08.43.39.69.86.54.24-.08.52-.29.67-.55l.28.33c-.22.36-.57.62-.96.75-.74.25-1.35-.18-1.43-1.09-.08-.84.38-1.69,1.11-1.94ZM11.29,12.46l1.39-.46c-.04-.34-.28-.7-.76-.54-.46.15-.63.64-.62,1Z"/>
        <path class="cls-2" d="M15.39,12.83l-.03-.31c-.16.31-.44.54-.76.65-.4.13-.89-.03-.95-.67-.06-.67.37-1.09.77-1.23.33-.11.63-.08.83.11l-.04-.43c-.03-.34-.28-.46-.63-.35-.28.09-.51.29-.7.61l-.26-.36c.26-.41.6-.68,1-.81.55-.18,1.05-.07,1.12.71l.17,1.92-.54.18ZM15.29,11.73c-.14-.16-.38-.18-.61-.1-.3.1-.51.38-.48.7.03.31.27.44.57.34.23-.08.46-.26.56-.5l-.04-.44Z"/>
        <path class="cls-2" d="M16.66,11.71l-.15-1.67-.41.14-.05-.55.41-.14-.07-.79.54-.18.07.79.5-.17.05.55-.5.17.14,1.52c.02.2.11.31.27.26.1-.03.2-.11.23-.18l.17.43c-.09.14-.24.27-.49.35-.41.14-.66-.05-.7-.53Z"/>
        <path class="cls-2" d="M11.35,16.91c.42-.14.77-.07,1.02.12l-.23.63c-.2-.16-.41-.23-.73-.12-.57.19-.84.92-.78,1.62,0,.04,0,.08.02.11.13-.32.46-.73.86-.86.61-.2,1.18.06,1.26.91.07.74-.37,1.51-1.14,1.76-1,.33-1.49-.49-1.59-1.6-.1-1.16.33-2.24,1.31-2.57ZM11.4,19.06c-.29.1-.56.38-.7.72.08.42.32.86.85.68.45-.15.65-.6.62-.92-.04-.49-.39-.6-.77-.48Z"/>
        <path class="cls-2" d="M13.87,18.13c-.4-.02-.75-.2-.8-.71-.07-.74.55-1.27,1.16-1.47.6-.2,1.28-.1,1.35.63.05.51-.26.92-.63,1.19.43.02.81.27.86.78.06.71-.51,1.3-1.2,1.53-.7.23-1.34.06-1.41-.66-.05-.51.27-.99.67-1.29ZM14.28,16.58c-.37.12-.63.41-.6.75.03.38.49.38.7.35.21-.11.63-.4.59-.78-.03-.34-.33-.44-.69-.32ZM14.44,18.27c-.21.1-.69.45-.65.87.03.35.37.46.76.33.38-.13.68-.45.65-.8-.04-.41-.55-.44-.76-.4Z"/>
      </g>
    </g>
  </g>
</svg>