<?xml version="1.0" encoding="UTF-8"?>
<svg id="Layer_2" data-name="Layer 2" xmlns="http://www.w3.org/2000/svg" viewBox="0 0 42.5 150.5">
  <defs>
    <style>
      .cls-1 {
        fill: #f0851c;
        stroke: #fff;
        stroke-linecap: round;
        stroke-linejoin: round;
        stroke-width: 1.5px;
      }
    </style>
  </defs>
  <g id="Lighting_Filled" data-name="Lighting Filled">
    <g>
      <ellipse class="cls-1" cx="21.25" cy="141.75" rx="12.5" ry="8"/>
      <g>
        <path class="cls-1" d="M21.21,129.75h0c-7.46,0-20.46-26-20.46-64S15.75,2.75,15.75,2.75c0,0,.44-2,5-2s6,2,6,2c0,0,15,24.39,15,63s-12,64-20.54,64Z"/>
        <ellipse class="cls-1" cx="21.25" cy="2.75" rx="5.5" ry="2"/>
        <path class="cls-1" d="M11.75,119.77l.23.09c6.2,2.44,13.09,2.41,19.27-.09h0"/>
        <path class="cls-1" d="M6,105.81l.2.12c9.33,5.96,21.28,5.91,30.55-.12h0"/>
        <path class="cls-1" d="M3.25,92.97l.23.15c11.07,7.08,25.26,7.02,36.27-.15h0"/>
        <path class="cls-1" d="M1.25,77.49l.25.16c12.25,10.1,27.25,10.1,39.75-.16h0"/>
        <path class="cls-1" d="M.75,63.65l.26.17c12.55,10.35,27.93,10.35,40.74-.17h0"/>
        <path class="cls-1" d="M1.75,47.75c8,12,30,14,39,0"/>
        <path class="cls-1" d="M4.25,33.38c6.97,10.46,26.15,12.21,34,0"/>
        <path class="cls-1" d="M8.25,19.38c5.33,8,20,9.33,26,0"/>
      </g>
      <path class="cls-1" d="M19.75,129.75h3v12.5c0,.83-.67,1.5-1.5,1.5h0c-.83,0-1.5-.67-1.5-1.5v-12.5h0Z"/>
    </g>
  </g>
</svg>