<?xml version="1.0" encoding="UTF-8"?>
<svg id="Layer_2" data-name="Layer 2" xmlns="http://www.w3.org/2000/svg" viewBox="0 0 525.9 517.99">
  <defs>
    <style>
      .cls-1 {
        stroke-width: 1.18px;
      }

      .cls-1, .cls-2, .cls-3, .cls-4, .cls-5, .cls-6, .cls-7, .cls-8, .cls-9, .cls-10, .cls-11, .cls-12, .cls-13, .cls-14, .cls-15, .cls-16, .cls-17, .cls-18, .cls-19 {
        stroke: #fff;
      }

      .cls-1, .cls-2, .cls-3, .cls-4, .cls-5, .cls-6, .cls-7, .cls-8, .cls-9, .cls-10, .cls-11, .cls-12, .cls-13, .cls-14, .cls-15, .cls-19 {
        stroke-linecap: round;
        stroke-linejoin: round;
      }

      .cls-1, .cls-2, .cls-3, .cls-4, .cls-5, .cls-20, .cls-18 {
        fill: #001689;
      }

      .cls-2, .cls-7 {
        stroke-width: .79px;
      }

      .cls-3, .cls-10 {
        stroke-width: .71px;
      }

      .cls-4, .cls-11 {
        stroke-width: 1.57px;
      }

      .cls-5, .cls-14 {
        stroke-width: 1.42px;
      }

      .cls-6 {
        fill: #f0851c;
      }

      .cls-6, .cls-19 {
        stroke-width: 1.21px;
      }

      .cls-7, .cls-8, .cls-9, .cls-10, .cls-11, .cls-12, .cls-13, .cls-14, .cls-15, .cls-16, .cls-17 {
        fill: none;
      }

      .cls-8 {
        stroke-width: .53px;
      }

      .cls-9 {
        stroke-width: .6px;
      }

      .cls-12 {
        stroke-width: 1.45px;
      }

      .cls-13 {
        stroke-width: 1.56px;
      }

      .cls-15, .cls-17 {
        stroke-width: 1.74px;
      }

      .cls-16 {
        stroke-width: .87px;
      }

      .cls-16, .cls-17, .cls-18 {
        stroke-miterlimit: 10;
      }

      .cls-18 {
        stroke-width: 1.61px;
      }

      .cls-19 {
        fill: #0078d3;
      }
    </style>
  </defs>
  <g id="Mobile_Rooms" data-name="Mobile Rooms">
    <g id="Window">
      <g>
        <line class="cls-13" x1="266.87" y1="20.41" x2="268.25" y2="236.26"/>
        <polygon class="cls-13" points="525.11 148.26 525.11 362.25 505.22 374.32 505.57 158.89 525.11 148.26"/>
        <polygon class="cls-13" points=".81 155.72 .78 368.25 14.5 377.2 14.5 164.83 .81 155.72"/>
        <polygon class="cls-13" points="505.22 373.96 252.03 517.21 14.5 377.2 268.25 236.26 505.22 373.96"/>
        <polygon class="cls-13" points="272.3 .78 .78 155.15 13.53 164.24 266.2 20.41 505.57 158.9 525.11 148.26 272.3 .78"/>
      </g>
      <g>
        <polygon class="cls-14" points="285.95 265.2 411.68 337.79 411.68 351.6 376.16 372.11 238.47 292.61 285.95 265.2"/>
        <path class="cls-8" d="M411.68,346.12l-40.27,23.25M361.91,363.89l47.48-27.41M404.65,333.73l-47.48,27.41M395.15,328.25l-47.48,27.41M390.4,325.51l-47.48,27.41M385.65,322.77l-47.48,27.41M380.91,320.03l-47.48,27.41M371.41,314.54l-47.48,27.41M319.18,339.22l47.48-27.41M361.91,309.06l-47.48,27.41M352.42,303.58l-47.48,27.41M295.44,325.51l47.48-27.41M338.17,295.36l-47.48,27.41M328.68,289.87l-47.48,27.41M323.93,287.13l-47.48,27.41M319.18,284.39l-47.48,27.41M262.21,306.32l47.48-27.41M300.19,273.43l-47.48,27.41M295.44,270.68l-47.48,27.41"/>
      </g>
      <g>
        <line class="cls-17" x1="375.65" y1="84.3" x2="375.65" y2="297.8"/>
        <polygon class="cls-17" points="370.97 295.01 370.97 82.1 328.72 57.7 328.72 270.62 370.97 295.01"/>
        <path class="cls-16" d="M370.97,285.92l-42.25-24.4M370.97,290.79l-42.25-24.4M328.72,256.66l42.25,24.4M328.72,251.79l42.25,24.4M328.72,246.92l42.25,24.4M370.97,266.45l-42.25-24.4M328.72,237.18l42.25,24.4M370.97,256.71l-42.25-24.4M328.72,227.45l42.25,24.4M328.72,222.58l42.25,24.4M328.72,217.71l42.25,24.4M328.72,212.84l42.25,24.4M370.97,232.37l-42.25-24.4M328.72,203.1l42.25,24.4M328.72,198.24l42.25,24.4M328.72,193.37l42.25,24.4M328.72,188.5l42.25,24.4M370.97,208.02l-42.25-24.4M328.72,178.76l42.25,24.4M328.72,173.89l42.25,24.4M328.72,169.02l42.25,24.4M328.72,164.16l42.25,24.4M328.72,159.29l42.25,24.4M328.72,154.42l42.25,24.4M370.97,173.94l-42.25-24.4M328.72,144.68l42.25,24.4M328.72,139.81l42.25,24.4M328.72,134.94l42.25,24.4M328.72,130.07l42.25,24.4M370.97,149.6l-42.25-24.4M328.72,120.34l42.25,24.4M328.72,115.47l42.25,24.4M328.72,110.6l42.25,24.4M328.72,105.73l42.25,24.4M370.97,125.26l-42.25-24.4M328.72,95.99l42.25,24.4M328.72,91.13l42.25,24.4M328.72,86.26l42.25,24.4M328.72,81.39l42.25,24.4M328.72,76.52l42.25,24.4M328.72,71.65l42.25,24.4M370.97,91.18l-42.25-24.4M328.72,61.91l42.25,24.4"/>
        <polyline class="cls-17" points="422.58 296.25 422.58 111.9 380.33 87.5 380.33 300.41 397.81 310.5 422.58 325.42 422.58 296.25"/>
        <path class="cls-16" d="M421.67,315.19l-41.34-23.87M422.58,320.59l-42.25-24.4M380.33,286.46l41.73,24.09M380.33,281.59l42.21,24.37M380.33,276.72l41.73,24.09M422.58,296.25l-42.25-24.4M380.33,266.98l42.25,24.4M422.58,286.51l-42.25-24.4M380.33,257.24l42.25,24.4M380.33,252.38l42.25,24.4M380.33,247.51l42.25,24.4M380.33,242.64l42.25,24.4M422.58,262.17l-42.25-24.4M380.33,232.9l42.25,24.4M380.33,228.03l42.25,24.4M380.33,223.16l42.25,24.4M380.33,218.3l42.25,24.4M422.58,237.82l-42.25-24.4M380.33,208.56l42.25,24.4M380.33,203.69l42.25,24.4M380.33,198.82l42.25,24.4M380.33,193.95l42.25,24.4M380.33,189.08l42.25,24.4M380.33,184.21l42.25,24.4M422.58,203.74l-42.25-24.4M380.33,174.48l42.25,24.4M380.33,169.61l42.25,24.4M380.33,164.74l42.25,24.4M380.33,159.87l42.25,24.4M422.58,179.4l-42.25-24.4M380.33,150.13l42.25,24.4M380.33,145.27l42.25,24.4M380.33,140.4l42.25,24.4M380.33,135.53l42.25,24.4M422.58,155.06l-42.25-24.4M380.33,125.79l42.25,24.4M380.33,120.92l42.25,24.4M380.33,116.05l42.25,24.4M380.33,111.19l42.25,24.4M380.33,106.32l42.25,24.4M380.33,101.45l42.25,24.4M422.58,120.98l-42.25-24.4M380.33,91.71l42.25,24.4"/>
        <line class="cls-15" x1="373.35" y1="200.68" x2="373.35" y2="215.38"/>
        <line class="cls-15" x1="377.97" y1="204.04" x2="377.97" y2="218.74"/>
      </g>
      <polygon class="cls-14" points="85.93 325.86 91.87 329.28 91.87 342.3 85.93 338.88 85.93 325.86"/>
      <polygon class="cls-14" points="97.8 332.71 91.87 329.28 91.87 342.3 97.8 338.88 97.8 332.71"/>
      <g>
        <g>
          <g>
            <polyline class="cls-14" points="235.97 269.92 235.97 273.39 206.3 256.26 206.3 251.64"/>
            <polyline class="cls-5" points="234.99 239.25 205.7 222.34 225.3 211.02 240.91 202.37 268.02 220.63 235.38 239.47"/>
            <polyline class="cls-14" points="205.7 222.34 205.7 251.29 234.99 268.2"/>
            <polyline class="cls-14" points="235.97 273.39 268.36 254.15 268.36 250.84"/>
            <g>
              <polyline class="cls-10" points="235.72 254.64 235.72 262 235.72 269.2 252.04 259.77 268.36 250.35 268.36 243.16 268.36 235.79"/>
              <polygon class="cls-3" points="235.72 254.64 252.04 245.21 268.36 235.79 268.36 228.59 268.36 221.4 252.04 230.82 235.72 240.24 235.72 247.44 235.72 254.64"/>
              <polyline class="cls-8" points="249.96 238.76 251.74 239.79 250.55 240.47 248.77 239.45"/>
              <polyline class="cls-8" points="255.3 235.68 257.08 236.7 255.89 237.39 254.11 236.36"/>
              <line class="cls-14" x1="258.78" y1="236.07" x2="249.87" y2="241.21"/>
              <polyline class="cls-8" points="249.96 253.32 251.74 254.35 250.55 255.04 248.77 254.01"/>
              <polyline class="cls-8" points="255.3 250.24 257.08 251.27 255.89 251.95 254.11 250.92"/>
              <line class="cls-14" x1="258.78" y1="250.63" x2="249.87" y2="255.77"/>
            </g>
          </g>
          <line class="cls-10" x1="235.38" y1="239.47" x2="235.38" y2="268.43"/>
        </g>
        <g>
          <g>
            <polygon class="cls-20" points="321.44 303.66 321.44 314.62 217.58 374.59 214.61 376.3 214.61 365.34 321.44 303.66"/>
            <polygon class="cls-20" points="321.33 314.76 321.33 324.36 315.39 327.78 315.39 318.19 321.33 314.76"/>
            <path class="cls-20" d="M319,295.93v7c0,.63-.42,1.27-1.25,1.75l-100.59,58.07c-.83.48-1.93.72-3.03.72s-2.2-.24-3.03-.72l-.65-4.62v-2.05c0-1.32.47-2.79,1.22-4.09s1.79-2.44,2.94-3.1l98.52-56.88c1-.58,1.92-.7,2.64-.43,1.26.9,3.23,2.87,3.23,4.35Z"/>
            <path class="cls-20" d="M315.45,291.37l.61.35c-.09-.05-.19-.1-.29-.14-.12-.08-.22-.15-.32-.21Z"/>
            <path class="cls-20" d="M315.45,291.37c.1.06.2.13.32.21-.72-.27-1.64-.15-2.64.43l-98.52,56.88c-1.15.66-2.19,1.8-2.94,3.1s-1.22,2.77-1.22,4.09v3.43l-76.22-44v-3.43c0-1.32.47-2.79,1.22-4.1.75-1.3,1.79-2.44,2.94-3.1l98.52-56.88c.66-.38,1.29-.56,1.85-.56.4,0,.77.09,1.09.27l75.54,43.62.06.04Z"/>
            <polygon class="cls-20" points="315.39 318.19 315.39 327.78 309.46 324.36 309.46 321.62 315.39 318.19"/>
            <path class="cls-20" d="M232.79,243.64l7.06,4.07c-.32-.18-.69-.27-1.09-.27-.56,0-1.19.18-1.85.56l-98.52,56.88c-1.15.66-2.19,1.8-2.94,3.1-.75,1.31-1.22,2.78-1.22,4.1v3.43l-7.05-4.08v-3.42c0-1.33.46-2.8,1.22-4.1.75-1.3,1.79-2.44,2.93-3.1l98.52-56.88c1.15-.66,2.19-.72,2.94-.29Z"/>
            <path class="cls-20" d="M218.95,243.28v4.19c0,.38-.24.76-.74,1.05l-35.56,20.53c-.5.29-1.16.43-1.82.43s-1.31-.14-1.81-.43l-24.1-13.91v-4.2l24.1,13.91c.5.29,1.16.44,1.81.44s1.32-.15,1.82-.44l35.56-20.52c.5-.29.74-.67.74-1.05Z"/>
            <path class="cls-20" d="M218.95,243.28c0,.38-.24.76-.74,1.05l-35.56,20.52c-.5.29-1.16.44-1.82.44s-1.31-.15-1.81-.44l-24.1-13.91c0-1.15.82-2.57,1.82-3.15l1.1-.63s7.14-5.68,17.44-11.59c10.29-5.91,15.9-7.66,15.9-7.66l1.12-.64c.49-.29.95-.32,1.28-.13l24.09,13.91c.72.43,1.28,1.24,1.28,2.23Z"/>
            <polygon class="cls-20" points="217.58 374.59 217.58 384.18 211.64 387.61 211.64 374.59 214.61 376.3 217.58 374.59"/>
            <polygon class="cls-20" points="214.61 365.34 214.61 376.3 211.64 374.59 205.71 371.16 95.91 307.77 95.91 296.8 214.61 365.34"/>
            <polygon class="cls-20" points="211.64 374.59 211.64 387.61 205.71 384.18 205.71 371.16 211.64 374.59"/>
            <path class="cls-20" d="M171.29,270.8v4.19c0,.38-.25.76-.75,1.05l-35.55,20.53c-.5.29-1.16.43-1.82.43s-1.32-.14-1.82-.43l-17.52-10.11-6.57-3.8v-4.2l24.09,13.91c.5.29,1.16.44,1.82.44s1.32-.15,1.82-.44l35.55-20.52c.5-.29.75-.67.75-1.05Z"/>
            <path class="cls-20" d="M171.29,270.8c0,.38-.25.76-.75,1.05l-35.55,20.52c-.5.29-1.16.44-1.82.44s-1.32-.15-1.82-.44l-24.09-13.91c0-1.15.82-2.57,1.81-3.14l1.11-.64s7.14-5.68,17.43-11.59c10.29-5.91,15.9-7.66,15.9-7.66l1.12-.64c.5-.29.95-.32,1.28-.13l24.1,13.91c.71.43,1.28,1.24,1.28,2.23Z"/>
          </g>
          <g>
            <polyline class="cls-14" points="89.97 259.11 202.74 194.01 205.7 195.72"/>
            <polyline class="cls-14" points="92.94 260.83 205.7 195.72 205.71 195.72 205.71 232.09"/>
            <line class="cls-14" x1="98.88" y1="312.91" x2="92.94" y2="316.34"/>
            <polygon class="cls-14" points="92.94 316.34 89.97 314.62 89.97 259.11 92.94 260.83 92.94 316.34"/>
            <polyline class="cls-14" points="211.64 387.61 205.71 384.18 205.71 371.16"/>
            <polyline class="cls-14" points="211.64 374.59 211.64 387.61 217.58 384.18 217.58 374.59"/>
            <polyline class="cls-14" points="315.39 327.78 309.46 324.36 309.46 321.62 315.39 318.19"/>
            <polygon class="cls-14" points="315.39 327.78 321.33 324.36 321.33 314.76 315.39 318.19 315.39 327.78"/>
            <polyline class="cls-14" points="214.61 365.34 95.91 296.8 95.91 307.77 205.71 371.16 211.64 374.59 214.61 376.3"/>
            <polygon class="cls-14" points="214.61 365.34 321.44 303.66 321.44 314.62 217.58 374.59 214.61 376.3 214.61 365.34"/>
            <path class="cls-12" d="M210.45,358.13l.65,4.62c.83.48,1.93.72,3.03.72s2.2-.24,3.03-.72l100.59-58.07c.83-.48,1.25-1.12,1.25-1.75v-7c0-1.48-1.97-3.45-3.23-4.35"/>
            <path class="cls-14" d="M134.23,315.51l76.22,44v-3.43c0-1.32.47-2.79,1.22-4.09s1.79-2.44,2.94-3.1l98.52-56.88c1-.58,1.92-.7,2.64-.43.1.04.2.09.29.14l-.61-.35-.06-.04-75.54-43.62"/>
            <path class="cls-14" d="M239.85,247.71l-7.06-4.07c-.75-.43-1.79-.37-2.94.29l-98.52,56.88c-1.14.66-2.18,1.8-2.93,3.1-.76,1.3-1.22,2.77-1.22,4.1v3.42l7.05,4.08v-3.43c0-1.32.47-2.79,1.22-4.1.75-1.3,1.79-2.44,2.94-3.1l98.52-56.88c.66-.38,1.29-.56,1.85-.56.4,0,.77.09,1.09.27Z"/>
            <path class="cls-14" d="M107.26,278.46v4.2l6.57,3.8,17.52,10.11c.5.29,1.16.43,1.82.43s1.32-.14,1.82-.43l35.55-20.53c.5-.29.75-.67.75-1.05v-4.19"/>
            <path class="cls-14" d="M171.29,270.8c0-.99-.57-1.8-1.28-2.23l-24.1-13.91c-.33-.19-.78-.16-1.28.13l-1.12.64s-5.61,1.75-15.9,7.66c-10.29,5.91-17.43,11.59-17.43,11.59l-1.11.64c-.99.57-1.81,1.99-1.81,3.14l24.09,13.91c.5.29,1.16.44,1.82.44s1.32-.15,1.82-.44l35.55-20.52c.5-.29.75-.67.75-1.05Z"/>
            <path class="cls-14" d="M154.92,250.94v4.2l24.1,13.91c.5.29,1.16.43,1.81.43s1.32-.14,1.82-.43l35.56-20.53c.5-.29.74-.67.74-1.05v-4.19"/>
            <path class="cls-14" d="M218.95,243.28c0-.99-.56-1.8-1.28-2.23l-24.09-13.91c-.33-.19-.79-.16-1.28.13l-1.12.64s-5.61,1.75-15.9,7.66c-10.3,5.91-17.44,11.59-17.44,11.59l-1.1.63c-1,.58-1.82,2-1.82,3.15l24.1,13.91c.5.29,1.16.44,1.81.44s1.32-.15,1.82-.44l35.56-20.52c.5-.29.74-.67.74-1.05Z"/>
            <line class="cls-14" x1="95.91" y1="296.8" x2="113.83" y2="286.46"/>
            <line class="cls-8" x1="142.27" y1="311.92" x2="204.3" y2="347.74"/>
          </g>
        </g>
        <g>
          <g>
            <polyline class="cls-14" points="85.03 354.66 85.03 358.14 55.35 341.01 55.35 336.38"/>
            <polyline class="cls-5" points="84.05 323.99 54.76 307.08 74.36 295.77 89.97 287.12 117.08 305.37 84.44 324.22"/>
            <polyline class="cls-14" points="54.76 307.08 54.76 336.04 84.05 352.95"/>
            <polyline class="cls-14" points="85.03 358.14 117.41 338.89 117.41 335.59"/>
            <g>
              <polyline class="cls-10" points="84.77 339.38 84.77 346.75 84.77 353.94 101.09 344.52 117.41 335.1 117.41 327.9 117.41 320.53"/>
              <polygon class="cls-3" points="84.77 339.38 101.09 329.96 117.41 320.53 117.41 313.34 117.41 306.14 101.09 315.57 84.77 324.99 84.77 332.18 84.77 339.38"/>
              <polyline class="cls-8" points="99.02 323.51 100.8 324.53 99.61 325.22 97.83 324.19"/>
              <polyline class="cls-8" points="104.36 320.42 106.14 321.45 104.95 322.13 103.17 321.11"/>
              <line class="cls-14" x1="107.83" y1="320.81" x2="98.93" y2="325.95"/>
              <polyline class="cls-8" points="99.02 338.07 100.8 339.1 99.61 339.78 97.83 338.75"/>
              <polyline class="cls-8" points="104.36 334.98 106.14 336.01 104.95 336.7 103.17 335.67"/>
              <line class="cls-14" x1="107.83" y1="335.38" x2="98.93" y2="340.52"/>
            </g>
          </g>
          <line class="cls-10" x1="84.44" y1="324.22" x2="84.44" y2="353.17"/>
        </g>
        <g>
          <g>
            <path class="cls-11" d="M90.43,301.19c.31.31.54.64.7.97.16.34.24.69.24,1.04s-.08.7-.24,1.04c-.16.34-.39.66-.7.97-.3.3-.67.58-1.11.83-.44.25-.93.47-1.44.64-.53.18-1.1.31-1.68.4-.59.09-1.2.14-1.81.14s-1.22-.05-1.81-.14c-.58-.09-1.15-.22-1.68-.4-.52-.17-1-.39-1.44-.64-.44-.25-.81-.54-1.11-.83-.31-.31-.54-.64-.7-.97-.16-.34-.24-.69-.24-1.04s.08-.7.24-1.04c.16-.34.39-.66.7-.97"/>
            <path class="cls-7" d="M89.04,302.45c0,.23-.05.47-.16.7-.1.22-.26.44-.46.65-.2.2-.45.39-.74.56-.29.17-.62.31-.96.43-.36.12-.73.21-1.12.27-.39.06-.8.09-1.2.09s-.81-.03-1.2-.09c-.39-.06-.77-.15-1.12-.27-.34-.11-.67-.26-.96-.43-.29-.17-.54-.36-.74-.56-.21-.21-.36-.42-.46-.65-.11-.23-.16-.46-.16-.7"/>
            <path class="cls-4" d="M81.1,272.45c.29-.17.62-.31.96-.43.36-.12.73-.21,1.12-.27.39-.06.8-.09,1.2-.09s.81.03,1.2.09c.39.06.77.15,1.12.27.34.11.67.26.96.43"/>
            <path class="cls-1" d="M87.67,272.45h0c1.93.89,8.34,8.28,8.34,20.88h0c0,.58-.13,1.17-.39,1.74-.26.56-.65,1.11-1.16,1.62-.5.5-1.11.96-1.85,1.39-.74.42-1.55.78-2.41,1.07-.89.3-1.83.52-2.8.67-.98.15-2,.23-3.01.23s-2.03-.08-3.01-.23c-.97-.15-1.91-.37-2.8-.67-.86-.29-1.67-.64-2.41-1.07-.74-.42-1.35-.89-1.85-1.39-.51-.51-.9-1.06-1.16-1.62-.26-.57-.39-1.15-.39-1.74,0-12.6,6.4-19.99,8.34-20.88"/>
            <path class="cls-1" d="M81.1,272.45c-.29.17-.54.36-.74.56-.21.21-.36.42-.46.65-.11.23-.16.46-.16.7s.05.47.16.7c.1.22.26.44.46.65.2.2.45.39.74.56.29.17.62.31.96.43.36.12.73.21,1.12.27.39.06.8.09,1.2.09s.81-.03,1.2-.09c.39-.06.77-.15,1.12-.27.34-.11.67-.26.96-.43.29-.17.54-.36.74-.56.21-.21.36-.42.46-.65.11-.23.16-.46.16-.7s-.05-.47-.16-.7c-.1-.22-.26-.44-.46-.65-.2-.2-.45-.39-.74-.56h0"/>
            <line class="cls-2" x1="89.04" y1="302.45" x2="89.04" y2="299.47"/>
            <line class="cls-2" x1="79.74" y1="302.45" x2="79.74" y2="299.48"/>
          </g>
          <g>
            <path class="cls-11" d="M244.29,217.97c.31.31.54.64.7.97.16.34.24.69.24,1.04s-.08.7-.24,1.04c-.16.34-.39.66-.7.97-.3.3-.67.58-1.11.83-.44.25-.93.47-1.44.64-.53.18-1.1.31-1.68.4-.59.09-1.2.14-1.81.14s-1.22-.05-1.81-.14c-.58-.09-1.15-.22-1.68-.4-.52-.17-1-.39-1.44-.64-.44-.25-.81-.54-1.11-.83-.31-.31-.54-.64-.7-.97-.16-.34-.24-.69-.24-1.04s.08-.7.24-1.04c.16-.34.39-.66.7-.97"/>
            <path class="cls-7" d="M242.9,219.22c0,.23-.05.47-.16.7-.1.22-.26.44-.46.65-.2.2-.45.39-.74.56-.29.17-.62.31-.96.43-.36.12-.73.21-1.12.27-.39.06-.8.09-1.2.09s-.81-.03-1.2-.09c-.39-.06-.77-.15-1.12-.27-.34-.11-.67-.26-.96-.43-.29-.17-.54-.36-.74-.56-.21-.21-.36-.42-.46-.65-.11-.23-.16-.46-.16-.7"/>
            <path class="cls-4" d="M234.96,189.23c.29-.17.62-.31.96-.43.36-.12.73-.21,1.12-.27.39-.06.8-.09,1.2-.09s.81.03,1.2.09c.39.06.77.15,1.12.27.34.11.67.26.96.43"/>
            <path class="cls-1" d="M241.54,189.23h0c1.93.89,8.34,8.28,8.34,20.88h0c0,.58-.13,1.17-.39,1.74-.26.56-.65,1.11-1.16,1.62-.5.5-1.11.96-1.85,1.39-.74.42-1.55.78-2.41,1.07-.89.3-1.83.52-2.8.67-.98.15-2,.23-3.01.23s-2.02-.08-3.01-.23c-.97-.15-1.91-.37-2.8-.67-.86-.29-1.67-.64-2.41-1.07-.74-.42-1.35-.89-1.85-1.39-.51-.51-.9-1.06-1.16-1.62-.26-.57-.39-1.15-.39-1.74,0-12.6,6.4-19.99,8.34-20.88"/>
            <path class="cls-1" d="M234.96,189.23c-.29.17-.54.36-.74.56-.21.21-.36.42-.46.65-.11.23-.16.46-.16.7s.05.47.16.7c.1.22.26.44.46.65.2.2.45.39.74.56.29.17.62.31.96.43.36.12.73.21,1.12.27.39.06.8.09,1.2.09s.81-.03,1.2-.09c.39-.06.77-.15,1.12-.27.34-.11.67-.26.96-.43.29-.17.54-.36.74-.56.21-.21.36-.42.46-.65.11-.23.16-.46.16-.7s-.05-.47-.16-.7c-.1-.22-.26-.44-.46-.65-.2-.2-.45-.39-.74-.56h0"/>
            <line class="cls-2" x1="242.9" y1="219.22" x2="242.9" y2="216.25"/>
            <line class="cls-2" x1="233.6" y1="219.22" x2="233.6" y2="216.26"/>
          </g>
        </g>
      </g>
      <g>
        <polygon class="cls-18" points="88.57 156.93 186.94 100.13 186.94 167.04 88.57 223.83 88.57 156.93"/>
        <polyline class="cls-9" points="184.92 98.97 86.55 155.76 86.55 222.67"/>
        <polygon class="cls-6" points="181.55 109.47 93.96 160.04 93.96 214.5 181.55 163.93 181.55 109.47"/>
        <line class="cls-19" x1="139.66" y1="188.9" x2="139.66" y2="134.44"/>
      </g>
    </g>
  </g>
</svg>